{
.appVersion = "3236";
.formatVersion = 3;
DisplayStrings = (
"ugly baggage fumbling garbage in the beginning",
q,
H,
H,
H,
f,
"amaze sizing trapeze pizza figures confusing glaze fand kand z exam "
);
customParameters = (
{
name = vendorID;
value = ADBO;
},
{
name = panose;
value = (
2,
4,
6,
3,
5,
4,
5,
2,
2,
4
);
},
{
name = unicodeRanges;
value = (
0,
1,
2,
32
);
},
{
name = fsType;
value = (
);
},
{
name = "Family Alignment Zones";
value = (
{
pos = 729;
size = 20;
},
{
pos = 669;
size = 15;
},
{
pos = 646;
size = 13;
},
{
pos = 549;
size = 14;
},
{
pos = 527;
size = 13;
},
{
pos = 475;
size = 13;
},
{
pos = 0;
size = -15;
},
{
pos = -239;
size = -10;
}
);
},
{
name = blueScale;
value = 0.0375000014901;
},
{
name = glyphOrder;
value = (
.notdef,
space,
A,
B,
C,
D,
E,
F,
G,
H,
I,
J,
K,
L,
M,
N,
O,
P,
Q,
R,
S,
T,
U,
V,
W,
X,
Y,
Z,
a,
b,
c,
d,
e,
f,
g,
h,
i,
j,
k,
l,
m,
n,
o,
p,
q,
r,
s,
t,
u,
v,
w,
x,
y,
z,
Agrave,
Aacute,
Acircumflex,
Atilde,
Adieresis,
Amacron,
Abreve,
Aring,
Aogonek,
AE,
Ccedilla,
Cacute,
Ccaron,
Dcaron,
Dcroat,
Egrave,
Eacute,
Ecircumflex,
Ecaron,
Edieresis,
Emacron,
Edotaccent,
Eogonek,
Gbreve,
Gdotaccent,
uni0122,
Igrave,
Iacute,
Icircumflex,
Idieresis,
Imacron,
Idotaccent,
Iogonek,
uni0136,
Lacute,
Lcaron,
uni013B,
Ldot,
Lslash,
Nacute,
Ncaron,
Ntilde,
uni0145,
uni1E44,
Ograve,
Oacute,
Ocircumflex,
Otilde,
Odieresis,
Omacron,
Ohungarumlaut,
Oslash,
OE,
Racute,
Rcaron,
uni0156,
Sacute,
Scaron,
uni015E,
uni0218,
Tcaron,
uni0162,
uni021A,
Ugrave,
Uacute,
Ucircumflex,
Udieresis,
Umacron,
Uring,
Uhungarumlaut,
Uogonek,
Yacute,
Ydieresis,
Zacute,
Zcaron,
Zdotaccent,
Eth,
Thorn,
agrave,
aacute,
acircumflex,
atilde,
adieresis,
amacron,
abreve,
aring,
aogonek,
ae,
ccedilla,
cacute,
ccaron,
dcaron,
dcroat,
egrave,
eacute,
ecircumflex,
ecaron,
edieresis,
emacron,
edotaccent,
eogonek,
gbreve,
gdotaccent,
uni0123,
igrave,
iacute,
icircumflex,
idieresis,
imacron,
iogonek,
i.trk,
dotlessi,
uni0237,
uni0137,
lacute,
lcaron,
uni013C,
ldot,
lslash,
nacute,

glyphs = (
{
glyphname = .notdef;
layers = (
{
hints = (
{
horizontal = 1;
place = (619,51);
type = Stem;
},
{
horizontal = 1;
place = (0,50);
type = Stem;
},
{
place = (500,60);
type = Stem;
},
{
place = (80,60);
type = Stem;
}
);
layerId = m01;
shapes = (
{
closed = 1;
nodes = (
(80,0,l),
(560,0,l),
(560,670,l),
(80,670,l)
);
},
{
closed = 1;
nodes = (
(172,50,l),
(320,286,l),
(468,50,l)
);
},
{
closed = 1;
nodes = (
(140,574,l),
(290,335,l),
(140,96,l)
);
},
{
closed = 1;
nodes = (
(351,335,l),
(500,574,l),
(500,96,l)
);
},
{
closed = 1;
nodes = (
(173,619,l),
(467,619,l),
(320,384,l)
);
}
);
width = 640;
}
);
note = .notdef;
},
{
glyphname = A;
kernLeft = A;
kernRight = A;
layers = (
{
anchors = (
{
name = bottom;
pos = (282,-22);
},
{
name = ogonek;
pos = (526,0);
},
{
name = top;
pos = (432,691);
}
);
hints = (
{
horizontal = 1;
place = (670,-20);
target = down;
type = TopGhost;
},
{
horizontal = 1;
place = (243,46);
type = Stem;
},
{
horizontal = 1;
place = (0,45.5);
type = Stem;
},
{
horizontal = 1;
place = (0,45);
type = Stem;
},
{
place = (-29,668);
type = Stem;
}
);
layerId = m01;
shapes = (
{
closed = 1;
nodes = (
(-29,0,l),
(195,0,l),
(203,40,l),
(116,53,l),
(217,243,l),
(435,243,l),
(461,50,l),
(374,40,l),
(366,0,l),
(631,0,l),
(639,40,l),
(551,51,l),
(463,670,l),
(405,670,l),
(62,52,l),
(-21,40,l)
);
},
{
closed = 1;
nodes = (
(241,289,l),
(391,572,l),
(429,289,l)
);
}
);
width = 676;
}
);
note = A;
unicode = 65;
},
{
glyphname = B;
kernLeft = B;
kernRight = B;
layers = (
{
anchors = (
{
name = bottom;
pos = (285,-22);
},
{
name = top;
pos = (372,691);
}
);
hints = (
{
horizontal = 1;
place = (623.5,46.5);
type = Stem;
},
{
horizontal = 1;
place = (623,47);
type = Stem;
},
{
horizontal = 1;
place = (327,46);
type = Stem;
},
{
horizontal = 1;
place = (0,46);
type = Stem;
},
{
horizontal = 1;
place = (0,45.5);
type = Stem;
},
{
place = (492,87);
type = Stem;
},
{
place = (477,93);
type = Stem;
}
);
layerId = m01;
shapes = (
{
closed = 1;
nodes = (
(122,629,l),
(213,618,l),
(199,532,o),
(184,446,o),
(168,360,cs),
(110,51,l),
(24,40,l),
(16,0,l),
(293,0,ls),
(456,0,o),
(570,72,o),
(570,186,cs),
(570,263,o),
(517,331,o),
(420,353,c),
(512,377,o),
(579,440,o),
(579,524,cs),
(579,605,o),
(518,670,o),
(385,670,cs),
(130,670,l)
);
},
{
closed = 1;
nodes = (
(246,327,l),
(320,327,ls),
(411,327,o),
(477,281,o),
(477,199,cs),
(477,114,o),
(424,46,o),
(283,46,cs),
(197,46,l),
(211,134,o),
(227,222,o),
(243,310,cs)
);
},
{
closed = 1;
nodes = (
(372,623,ls),
(453,623,o),
(492,576,o),
(492,510,cs),
(492,433,o),
(437,373,o),
(310,373,cs),
(255,373,l),
(302,623,l)
);
}
);
width = 624;
}
);
note = B;
unicode = 66;
},
{
glyphname = C;
kernLeft = C;
kernRight = C;
layers = (
{
anchors = (
{
name = bottom;
pos = (342,0);
},
{
name = bottom_;
pos = (319,-22);
},
{
name = top;
pos = (439,691);
}
);
hints = (
{
horizontal = 1;
place = (635,50);
type = Stem;
},
{
horizontal = 1;
place = (-15,50);
type = Stem;
},
{
place = (529,57);
type = Stem;
},
{
place = (58,91);
type = Stem;
}
);
layerId = m01;
shapes = (
{
closed = 1;
nodes = (
(415,-15,o),
(472,7,o),
(525,30,c),
(553,175,l),
(493,175,l),
(452,50,l),
(423,41,o),
(394,35,o),
(363,35,cs),
(248,35,o),
(149,117,o),
(149,285,cs),
(149,474,o),
(270,635,o),
(431,635,cs),
(464,635,o),
(499,628,o),
(529,615,c),
(529,492,l),
(586,492,l),
(609,632,l),
(547,672,o),
(493,685,o),
(440,685,cs),
(231,685,o),
(58,502,o),
(58,281,cs),
(58,103,o),
(163,-15,o),
(330,-15,cs)
);
}
);
width = 593;
}
);
note = C;
unicode = 67;
},
{
glyphname = D;
kernLeft = B;
kernRight = D;
layers = (
{
anchors = (
{
name = bottom;
pos = (297,-22);
},
{
name = top;
pos = (405,691);
}
);
hints = (
{
horizontal = 1;
place = (623.5,46.5);
type = Stem;
},
{
horizontal = 1;
place = (623,47);
type = Stem;
},
{
horizontal = 1;
place = (0,46);
type = Stem;
},
{
horizontal = 1;
place = (0,45.5);
type = Stem;
},
{
place = (590,95);
type = Stem;
}
);
layerId = m01;
shapes = (
{
closed = 1;
nodes = (
(122,629,l),
(213,618,l),
(199,532,o),
(184,446,o),
(168,360,cs),
(110,51,l),
(24,40,l),
(16,0,l),
(290,0,ls),
(493,0,o),
(684,129,o),
(685,394,cs),
(685,565,o),
(575,670,o),
(404,670,cs),
(130,670,l)
);
},
{
closed = 1;
nodes = (
(302,623,l),
(363,623,ls),
(505,623,o),
(591,543,o),
(590,394,cs),
(589,228,o),
(495,46,o),
(304,46,cs),
(197,46,l),
(211,134,o),
(227,222,o),
(243,310,cs)
);
}
);
width = 701;
}
);
note = D;
unicode = 68;
},
{
glyphname = E;
kernLeft = B;
kernRight = E;
layers = (
{
anchors = (
{
name = bottom;
pos = (307,-22);
},
{
name = ogonek;
pos = (425,0);
},
{
name = top;
pos = (397,691);
}
);
hints = (
{
horizontal = 1;
place = (623.5,46.5);
type = Stem;
},
{
horizontal = 1;
place = (619,51);
type = Stem;
},
{
horizontal = 1;
place = (492,178);
type = Stem;
},
{
horizontal = 1;
place = (319,46);
type = Stem;
},
{
horizontal = 1;
place = (0,178);
type = Stem;
},
{
horizontal = 1;
place = (0,50);
type = Stem;
},
{
horizontal = 1;
place = (0,45.5);
type = Stem;
},
{
place = (518,50);
type = Stem;
},
{
place = (398.5,40.5);
type = Stem;
}
);
layerId = m01;
shapes = (
{
closed = 1;
nodes = (
(122,629,l),
(213,618,l),
(199,532,o),
(184,446,o),
(168,360,cs),
(110,51,l),
(24,40,l),
(16,0,l),
(515,0,l),
(554,178,l),
(503,178,l),
(458,50,l),
(198,50,l),
(212,137,o),
(227,224,o),
(243,310,cs),
(245,319,l),
(400,319,l),
(397,224,l),
(439,224,l),
(484,461,l),
(442,461,l),
(408,365,l),
(253,365,l),
(301,619,l),
(518,619,l),
(518,492,l),
(568,492,l),
(592,670,l),
(130,670,l)
);
}
);
width = 587;
}
);
note = E;
unicode = 69;
},
{
glyphname = F;
kernLeft = B;
kernRight = F;
layers = (
{
anchors = (
{
name = bottom;
pos = (147,-22);
},
{
name = top;
pos = (393,691);
}
);
hints = (
{
horizontal = 1;
place = (623.5,46.5);
type = Stem;
},
{
horizontal = 1;
place = (619,51);
type = Stem;
},
{
horizontal = 1;
place = (492,178);
type = Stem;
},
{
horizontal = 1;
place = (319,46);
type = Stem;
},
{
horizontal = 1;
place = (0,46);
type = Stem;
},
{
horizontal = 1;
place = (0,45);
type = Stem;
},
{
place = (526,50);
type = Stem;
},
{
place = (398.5,40.5);
type = Stem;
}
);
layerId = m01;
shapes = (
{
closed = 1;
nodes = (
(122,629,l),
(213,618,l),
(199,532,o),
(184,446,o),
(168,360,cs),
(109,50,l),
(24,40,l),
(16,0,l),
(286,0,l),
(294,40,l),
(198,52,l),
(212,138,o),
(227,224,o),
(243,310,cs),
(245,319,l),
(400,319,l),
(397,214,l),
(439,214,l),
(483,461,l),
(441,461,l),
(407,365,l),
(253,365,l),
(301,619,l),
(526,619,l),
(526,492,l),
(576,492,l),
(605,670,l),
(130,670,l)
);
}
);
width = 550;
}
);
note = F;
unicode = 70;
},
{
glyphname = G;
kernLeft = C;
kernRight = G;
layers = (
{
anchors = (
{
name = bottom;
pos = (353,-22);
},
{
name = top;
pos = (433,691);
}
);
hints = (
{
horizontal = 1;
place = (635,50);
type = Stem;
},
{
horizontal = 1;
place = (273.5,44.5);
type = Stem;
},
{
horizontal = 1;
place = (272,46);
type = Stem;
},
{
horizontal = 1;
place = (-15,50);
type = Stem;
},
{
place = (549,56);
type = Stem;
},
{
place = (58,91);
type = Stem;
}
);
layerId = m01;
shapes = (
{
closed = 1;
nodes = (
(58,104,o),
(167,-15,o),
(347,-15,cs),
(422,-15,o),
(483,2,o),
(545,30,c),
(589,269,l),
(661,278,l),
(668,318,l),
(408,318,l),
(401,278,l),
(501,266,l),
(491,207,o),
(482,148,o),
(471,90,cs),
(463,48,l),
(434,39,o),
(404,35,o),
(373,35,cs),
(258,35,o),
(149,121,o),
(149,283,cs),
(149,474,o),
(265,635,o),
(440,635,cs),
(476,635,o),
(516,628,o),
(549,615,c),
(549,492,l),
(605,492,l),
(628,632,l),
(564,674,o),
(514,685,o),
(440,685,cs),
(235,685,o),
(58,513,o),
(58,277,cs)
);
}
);
width = 655;
}
);
note = G;
unicode = 71;
},
{
glyphname = H;
kernLeft = B;
kernRight = H;
layers = (
{
anchors = (
{
name = bottom;
pos = (350,-22);
},
{
name = top;
pos = (464,691);
}
);
hints = (
{
horizontal = 1;
place = (624,46);
type = Stem;
},
{
horizontal = 1;
place = (623.5,46.5);
type = Stem;
},
{
horizontal = 1;
place = (320,46);
type = Stem;
},
{
horizontal = 1;
place = (0,45.5);
type = Stem;
},
{
horizontal = 1;
place = (0,45);
type = Stem;
},
{
place = (17,783);
type = Stem;
}
);
layerId = m01;
shapes = (
{
closed = 1;
nodes = (
(527,629,l),
(619,618,l),
(605,534,o),
(590,450,o),
(575,366,c),
(254,366,l),
(301,619,l),
(387,629,l),
(395,670,l),
(130,670,l),
(122,629,l),
(214,618,l),
(200,532,o),
(184,446,o),
(168,360,cs),
(109,50,l),
(25,40,l),
(17,0,l),
(282,0,l),
(290,40,l),
(198,51,l),
(212,138,o),
(227,224,o),
(243,310,cs),
(245,320,l),
(566,320,l),
(515,50,l),
(430,40,l),
(422,0,l),
(687,0,l),
(695,40,l),
(603,52,l),
(617,138,o),
(632,224,o),
(648,310,cs),
(706,619,l),
(792,629,l),
(800,670,l),
(535,670,l)
);
}
);
width = 764;
}
);
note = H;
unicode = 72;
},
{
glyphname = I;
kernLeft = B;
kernRight = H;
layers = (
{
anchors = (
{
name = bottom;
pos = (141,-22);
},
{
name = ogonek;
pos = (178,0);
},
{
name = top;
pos = (266,691);
}
);
hints = (
{
horizontal = 1;
place = (624,46);
type = Stem;
},
{
horizontal = 1;
place = (623.5,46.5);
type = Stem;
},
{
horizontal = 1;
place = (0,45.5);
type = Stem;
},
{
horizontal = 1;
place = (0,45);
type = Stem;
},
{
place = (16,379);
type = Stem;
}
);
layerId = m01;
shapes = (
{
closed = 1;
nodes = (
(122,629,l),
(213,618,l),
(199,532,o),
(184,446,o),
(168,360,cs),
(109,50,l),
(24,40,l),
(16,0,l),
(281,0,l),
(289,40,l),
(198,51,l),
(212,137,o),
(227,224,o),
(243,310,cs),
(301,619,l),
(387,629,l),
(395,670,l),
(130,670,l)
);
}
);
width = 358;
}
);
note = I;
unicode = 73;
},
{
glyphname = J;
kernLeft = J;
kernRight = J;
layers = (
{
anchors = (
{
name = bottom;
pos = (95,-64);
},
{
name = top;
pos = (324,691);
}
);
hints = (
{
horizontal = 1;
place = (623.5,46.5);
type = Stem;
},
{
horizontal = 1;
place = (-44,97);
type = Stem;
},
{
place = (-28,487);
type = Stem;
}
);
layerId = m01;
shapes = (
{
closed = 1;
nodes = (
(176,629,l),
(272,618,l),
(260,531,o),
(246,445,o),
(233,360,cs),
(213,235,o),
(208,188,o),
(198,140,cs),
(185,81,o),
(160,38,o),
(123,10,c),
(80,42,o),
(61,53,o),
(40,53,cs),
(8,53,o),
(-20,37,o),
(-28,7,c),
(-22,-28,o),
(18,-44,o),
(64,-44,cs),
(132,-44,o),
(217,5,o),
(258,100,cs),
(276,139,o),
(289,188,o),
(301,263,cs),
(360,618,l),
(451,629,l),
(459,670,l),
(184,670,l)
);
}
);
width = 404;
}
);
note = J;
unicode = 74;
},
{
glyphname = K;
kernLeft = B;
kernRight = K;
layers = (
{
anchors = (
{
name = bottom;
pos = (332,-22);
},
{
name = top;
pos = (434,691);
}
);
hints = (
{
horizontal = 1;
place = (624,46);
type = Stem;
},
{
horizontal = 1;
place = (623.5,46.5);
type = Stem;
},
{
horizontal = 1;
place = (618,52);
type = Stem;
},
{
horizontal = 1;
place = (0,45.5);
type = Stem;
},
{
horizontal = 1;
place = (0,45);
type = Stem;
},
{
place = (15,698);
type = Stem;
}
);
layerId = m01;
shapes = (
{
closed = 1;
nodes = (
(484,629,l),
(549,618,l),
(249,341,l),
(301,619,l),
(387,629,l),
(395,670,l),
(130,670,l),
(122,629,l),
(213,618,l),
(199,532,o),
(184,446,o),
(168,360,cs),
(109,50,l),
(24,40,l),
(15,0,l),
(280,0,l),
(288,40,l),
(198,51,l),
(210,127,o),
(223,202,o),
(237,277,c),
(318,351,l),
(478,50,l),
(401,40,l),
(396,0,l),
(646,0,l),
(652,40,l),
(570,51,l),
(379,407,l),
(606,616,l),
(705,629,l),
(713,670,l),
(493,670,l)
);
}
);
width = 663;
}
);
note = K;
unicode = 75;
},
{
glyphname = L;
kernLeft = B;
kernRight = L;
layers = (
{
anchors = (
{
name = bottom;
pos = (295,-22);
},
{
name = top;
pos = (259,691);
}
);
hints = (
{
horizontal = 1;
place = (623.5,46.5);
type = Stem;
},
{
horizontal = 1;
place = (623,47);
type = Stem;
},
{
horizontal = 1;
place = (0,188);
type = Stem;
},
{
horizontal = 1;
place = (0,50);
type = Stem;
},
{
horizontal = 1;
place = (0,45.5);
type = Stem;
},
{
place = (16,541);
type = Stem;
}
);
layerId = m01;
shapes = (
{
closed = 1;
nodes = (
(122,629,l),
(213,618,l),
(199,532,o),
(184,446,o),
(168,360,cs),
(110,51,l),
(24,40,l),
(16,0,l),
(521,0,l),
(557,188,l),
(501,188,l),
(453,50,l),
(198,50,l),
(212,137,o),
(227,224,o),
(243,310,cs),
(301,617,l),
(397,629,l),
(405,670,l),
(130,670,l)
);
}
);
width = 568;
}
);
note = L;
unicode = 76;
},
{
glyphname = M;
kernLeft = M;
kernRight = H;
layers = (
{
anchors = (
{
name = bottom;
pos = (404,-22);
},
{
name = top;
pos = (540,661);
}
);
hints = (
{
horizontal = 1;
place = (629,41);
type = Stem;
},
{
horizontal = 1;
place = (624,46);
type = Stem;
},
{
horizontal = 1;
place = (0,47.5);
type = Stem;
},
{
horizontal = 1;
place = (0,47);
type = Stem;
},
{
place = (-7,950);
type = Stem;
}
);
layerId = m01;
shapes = (
{
closed = 1;
nodes = (
(-7,0,l),
(223,0,l),
(231,40,l),
(139,53,l),
(261,567,l),
(391,1,l),
(420,1,l),
(755,574,l),
(678,52,l),
(597,42,l),
(591,0,l),
(851,0,l),
(856,42,l),
(766,53,l),
(777,139,o),
(788,227,o),
(800,312,cs),
(844,617,l),
(939,629,l),
(943,670,l),
(767,670,l),
(448,129,l),
(333,670,l),
(148,670,l),
(140,629,l),
(226,619,l),
(93,53,l),
(1,40,l)
);
}
);
width = 927;
}
);
note = M;
unicode = 77;
},
{
glyphname = N;
kernLeft = M;
kernRight = N;
layers = (
{
anchors = (
{
name = bottom;
pos = (364,-22);
},
{
name = top;
pos = (431,691);
}
);
hints = (
{
horizontal = 1;
place = (629,41);
type = Stem;
},
{
horizontal = 1;
place = (624,46);
type = Stem;
},
{
horizontal = 1;
place = (0,40);
type = Stem;
},
{
horizontal = 1;
place = (-10,21);
target = up;
type = BottomGhost;
},
{
place = (9,783);
type = Stem;
}
);
layerId = m01;
shapes = (
{
closed = 1;
nodes = (
(548,629,l),
(655,616,l),
(569,146,l),
(278,670,l),
(125,670,l),
(116,629,l),
(201,619,l),
(205,612,l),
(100,52,l),
(18,40,l),
(9,0,l),
(242,0,l),
(248,40,l),
(148,53,l),
(242,547,l),
(557,-10,l),
(588,-10,l),
(704,616,l),
(784,629,l),
(792,670,l),
(556,670,l)
);
}
);
width = 727;
}
);
note = N;
unicode = 78;
},
{
glyphname = O;
kernLeft = C;
kernRight = O;
layers = (
{
anchors = (
{
name = bottom;
pos = (304,-21);
},
{
name = ogonek;
pos = (392,-1);
},
{
name = top;
pos = (417,690);
}
);
hints = (
{
horizontal = 1;
place = (634,50);
type = Stem;
},
{
horizontal = 1;
place = (-14,50);
type = Stem;
},
{
place = (565,89);
type = Stem;
},
{
place = (66,89);
type = Stem;
}
);
layerId = m01;
shapes = (
{
closed = 1;
nodes = (
(504,-14,o),
(654,179,o),
(654,409,cs),
(654,571,o),
(561,684,o),
(415,684,cs),
(218,684,o),
(66,491,o),
(66,259,cs),
(66,90,o),
(160,-14,o),
(302,-14,cs)
);
},
{
closed = 1;
nodes = (
(205,36,o),
(155,125,o),
(155,257,cs),
(155,471,o),
(265,634,o),
(403,634,cs),
(516,634,o),
(565,547,o),
(565,411,cs),
(565,198,o),
(455,36,o),
(316,36,cs)
);
}
);
width = 660;
}
);
note = O;
unicode = 79;
},
{
glyphname = P;
kernLeft = B;
kernRight = P;
layers = (
{
anchors = (
{
name = bottom;
pos = (150,-22);
},
{
name = top;
pos = (371,691);
}
);
hints = (
{
horizontal = 1;
place = (623.5,46.5);
type = Stem;
},
{
horizontal = 1;
place = (623,47);
type = Stem;
},
{
horizontal = 1;
place = (260,46);
type = Stem;
},
{
horizontal = 1;
place = (0,46);
type = Stem;
},
{
horizontal = 1;
place = (0,45);
type = Stem;
},
{
place = (492,93);
type = Stem;
}
);
layerId = m01;
shapes = (
{
closed = 1;
nodes = (
(343,623,ls),
(440,623,o),
(492,575,o),
(492,483,cs),
(492,379,o),
(429,306,o),
(301,306,cs),
(242,306,l),
(243,310,l),
(302,623,l)
);
},
{
closed = 1;
nodes = (
(122,629,l),
(213,618,l),
(199,532,o),
(184,446,o),
(168,360,cs),
(109,50,l),
(24,40,l),
(16,0,l),
(286,0,l),
(294,40,l),
(198,52,l),
(209,121,o),
(221,191,o),
(234,260,c),
(303,260,ls),
(484,260,o),
(585,359,o),
(585,494,cs),
(585,598,o),
(510,670,o),
(358,670,cs),
(130,670,l)
);
}
);
width = 563;
}
);
note = P;
unicode = 80;
},
{
glyphname = Q;
kernLeft = C;
kernRight = O;
layers = (
{
anchors = (
{
name = top;
pos = (413,691);
}
);
hints = (
{
horizontal = 1;
place = (634,50);
type = Stem;
},
{
horizontal = 1;
place = (-11,47);
type = Stem;
},
{
horizontal = 1;
place = (-249,63);
type = Stem;
},
{
place = (565,89);
type = Stem;
},
{
place = (66,89);
type = Stem;
}
);
layerId = m01;
shapes = (
{
closed = 1;
nodes = (
(205,36,o),
(155,125,o),
(155,257,cs),
(155,471,o),
(265,634,o),
(403,634,cs),
(516,634,o),
(565,547,o),
(565,411,cs),
(565,198,o),
(455,36,o),
(316,36,cs)
);
},
{
closed = 1;
nodes = (
(561,-249,o),
(612,-223,o),
(654,-186,c),
(639,-157,l),
(600,-177,o),
(566,-186,o),
(513,-186,cs),
(411,-186,o),
(352,-121,o),
(344,-11,c),
(524,13,o),
(654,195,o),
(654,409,cs),
(654,571,o),
(561,684,o),
(415,684,cs),
(218,684,o),
(66,491,o),
(66,259,cs),
(66,107,o),
(142,8,o),
(260,-11,c),
(271,-151,o),
(356,-249,o),
(496,-249,cs)
);
}
);
width = 660;
}
);
note = Q;
unicode = 81;
},
{
glyphname = R;
kernLeft = B;
kernRight = R;
layers = (
{
anchors = (
{
name = bottom;
pos = (365,-22);
},
{
name = top;
pos = (378,691);
}
);
hints = (
{
horizontal = 1;
place = (623.5,46.5);
type = Stem;
},
{
horizontal = 1;
place = (623,47);
type = Stem;
},
{
horizontal = 1;
place = (310,45);
type = Stem;
},
{
horizontal = 1;
place = (0,46);
type = Stem;
},
{
horizontal = 1;
place = (0,45);
type = Stem;
},
{
horizontal = 1;
place = (-10,21);
target = up;
type = BottomGhost;
},
{
place = (507,92);
type = Stem;
}
);
layerId = m01;
shapes = (
{
closed = 1;
nodes = (
(386,623,ls),
(464,623,o),
(507,584,o),
(507,513,cs),
(507,420,o),
(456,355,o),
(323,355,cs),
(252,355,l),
(302,623,l)
);
},
{
closed = 1;
nodes = (
(122,629,l),
(213,618,l),
(199,532,o),
(184,446,o),
(168,360,cs),
(109,50,l),
(24,40,l),
(16,0,l),
(286,0,l),
(294,40,l),
(198,52,l),
(212,138,o),
(227,224,o),
(243,310,c),
(285,310,ls),
(341,310,o),
(360,294,o),
(387,215,cs),
(438,60,ls),
(455,9,o),
(487,-10,o),
(545,-10,cs),
(585,-10,o),
(606,-5,o),
(629,0,c),
(637,40,l),
(531,53,l),
(480,198,ls),
(457,264,o),
(435,298,o),
(397,316,c),
(535,337,o),
(599,413,o),
(599,511,cs),
(599,614,o),
(518,670,o),
(395,670,cs),
(130,670,l)
);
}
);
width = 646;
}
);
note = R;
unicode = 82;
},
{
glyphname = S;
kernLeft = S;
kernRight = S;
layers = (
{
anchors = (
{
name = bottom;
pos = (205,0);
},
{
name = bottom_;
pos = (210,-22);
},
{
name = top;
pos = (354,691);
}
);
hints = (
{
horizontal = 1;
place = (635,50);
type = Stem;
},
{
horizontal = 1;
place = (-15,50);
type = Stem;
},
{
place = (354,80);
type = Stem;
},
{
place = (122,76);
type = Stem;
}
);
layerId = m01;
shapes = (
{
closed = 1;
nodes = (
(34,30,l),
(76,2,o),
(151,-15,o),
(211,-15,cs),
(345,-15,o),
(434,61,o),
(434,177,cs),
(434,238,o),
(409,290,o),
(296,378,cs),
(225,432,o),
(198,471,o),
(198,524,cs),
(198,598,o),
(254,635,o),
(352,635,cs),
(372,635,o),
(391,633,o),
(418,623,c),
(424,500,l),
(483,500,l),
(506,640,l),
(450,673,o),
(394,685,o),
(340,685,cs),
(213,685,o),
(122,608,o),
(122,502,cs),
(122,440,o),
(148,383,o),
(251,305,cs),
(340,236,o),
(354,200,o),
(354,155,cs),
(354,86,o),
(307,35,o),
(207,35,cs),
(178,35,o),
(149,39,o),
(122,47,c),
(110,172,l),
(53,172,l)
);
}
);
width = 494;
}
);
note = S;
unicode = 83;
},
{
glyphname = T;
kernLeft = T;
kernRight = T;
layers = (
{
anchors = (
{
name = bottom;
pos = (257,0);
},
{
name = bottom_;
pos = (258,-22);
},
{
name = top;
pos = (381,691);
}
);
hints = (
{
horizontal = 1;
place = (619,51);
type = Stem;
},
{
horizontal = 1;
place = (491,179);
type = Stem;
},
{
horizontal = 1;
place = (0,46);
type = Stem;
},
{
horizontal = 1;
place = (0,45.5);
type = Stem;
},
{
place = (554,51);
type = Stem;
}
);
layerId = m01;
shapes = (
{
closed = 1;
nodes = (
(76,491,l),
(127,491,l),
(173,619,l),
(323,619,l),
(309,533,o),
(294,446,o),
(278,360,cs),
(220,51,l),
(123,40,l),
(115,0,l),
(400,0,l),
(408,40,l),
(307,52,l),
(321,138,o),
(336,224,o),
(352,310,cs),
(410,619,l),
(554,619,l),
(554,491,l),
(605,491,l),
(634,670,l),
(112,670,l)
);
}
);
width = 569;
}
);
note = T;
unicode = 84;
},
{
glyphname = U;
kernLeft = U;
kernRight = U;
layers = (
{
anchors = (
{
name = bottom;
pos = (336,-22);
},
{
name = ogonek;
pos = (422,0);
},
{
name = top;
pos = (455,691);
}
);
hints = (
{
horizontal = 1;
place = (623.5,46.5);
type = Stem;
},
{
horizontal = 1;
place = (-15,70);
type = Stem;
},
{
place = (120,85);
type = Stem;
}
);
layerId = m01;
shapes = (
{
closed = 1;
nodes = (
(528,629,l),
(631,616,l),
(570,298,ls),
(534,108,o),
(478,55,o),
(339,55,cs),
(266,55,o),
(205,101,o),
(205,185,cs),
(205,232,o),
(211,256,o),
(216,282,cs),
(278,618,l),
(365,629,l),
(373,670,l),
(108,670,l),
(100,629,l),
(192,618,l),
(178,532,o),
(163,446,o),
(147,360,cs),
(133,286,ls),
(126,249,o),
(120,212,o),
(120,179,cs),
(120,54,o),
(193,-15,o),
(328,-15,cs),
(474,-15,o),
(579,62,o),
(619,274,cs),
(684,617,l),
(770,629,l),
(778,670,l),
(536,670,l)
);
}
);
width = 712;
}
);
note = U;
unicode = 85;
},
{
glyphname = V;
kernLeft = V;
kernRight = V;
layers = (
{
anchors = (
{
name = bottom;
pos = (257,-22);
},
{
name = top;
pos = (411,691);
}
);
hints = (
{
horizontal = 1;
place = (624,46);
type = Stem;
},
{
horizontal = 1;
place = (623,47);
type = Stem;
},
{
horizontal = 1;
place = (617,53);
type = Stem;
},
{
horizontal = 1;
place = (-10,21);
target = up;
type = BottomGhost;
},
{
place = (62,653);
type = Stem;
}
);
layerId = m01;
shapes = (
{
closed = 1;
nodes = (
(483,629,l),
(566,617,l),
(302,122,l),
(231,617,l),
(327,629,l),
(335,670,l),
(70,670,l),
(62,629,l),
(140,619,l),
(241,-10,l),
(284,-10,l),
(619,616,l),
(707,629,l),
(715,670,l),
(491,670,l)
);
}
);
width = 605;
}
);
note = V;
unicode = 86;
},
{
glyphname = W;
kernLeft = W;
kernRight = W;
layers = (
{
anchors = (
{
name = bottom;
pos = (410,-2);
},
{
name = top;
pos = (521,691);
}
);
hints = (
{
horizontal = 1;
place = (629,41);
type = Stem;
},
{
horizontal = 1;
place = (624,46);
type = Stem;
},
{
horizontal = 1;
place = (623.5,46.5);
type = Stem;
},
{
horizontal = 1;
place = (623,47);
type = Stem;
},
{
horizontal = 1;
place = (617,53);
type = Stem;
},
{
horizontal = 1;
place = (-10,21);
target = up;
type = BottomGhost;
},
{
place = (62,920);
type = Stem;
}
);
layerId = m01;
shapes = (
{
closed = 1;
nodes = (
(750,629,l),
(839,616,l),
(618,127,l),
(564,618,l),
(657,629,l),
(665,670,l),
(402,670,l),
(394,629,l),
(490,617,l),
(257,133,l),
(229,617,l),
(323,629,l),
(331,670,l),
(70,670,l),
(62,629,l),
(140,619,l),
(196,-10,l),
(237,-10,l),
(496,524,l),
(565,-10,l),
(605,-10,l),
(892,617,l),
(974,629,l),
(982,670,l),
(759,670,l)
);
}
);
width = 872;
}
);
note = W;
unicode = 87;
},
{
glyphname = X;
kernLeft = X;
kernRight = X;
layers = (
{
anchors = (
{
name = bottom;
pos = (299,-22);
},
{
name = top;
pos = (438,691);
}
);
hints = (
{
horizontal = 1;
place = (629,41);
type = Stem;
},
{
horizontal = 1;
place = (624,46);
type = Stem;
},
{
horizontal = 1;
place = (623.5,46.5);
type = Stem;
},
{
horizontal = 1;
place = (0,46);
type = Stem;
},
{
horizontal = 1;
place = (0,45.5);
type = Stem;
},
{
horizontal = 1;
place = (0,44.5);
type = Stem;
},
{
place = (-2,722);
type = Stem;
}
);
layerId = m01;
shapes = (
{
closed = 1;
nodes = (
(471,629,l),
(563,616,l),
(385,396,l),
(289,618,l),
(381,629,l),
(390,670,l),
(124,670,l),
(116,629,l),
(196,619,l),
(323,327,l),
(95,51,l),
(5,40,l),
(-2,0,l),
(242,0,l),
(249,40,l),
(154,53,l),
(340,288,l),
(444,49,l),
(362,40,l),
(353,0,l),
(624,0,l),
(632,40,l),
(535,52,l),
(403,357,l),
(621,617,l),
(713,629,l),
(720,670,l),
(478,670,l)
);
}
);
width = 661;
}
);
note = X;
unicode = 88;
},
{
glyphname = Y;
kernLeft = Y;
kernRight = Y;
layers = (
{
anchors = (
{
name = bottom;
pos = (250,-22);
},
{
name = top;
pos = (387,691);
}
);
hints = (
{
horizontal = 1;
place = (624,46);
type = Stem;
},
{
horizontal = 1;
place = (623.5,46.5);
type = Stem;
},
{
horizontal = 1;
place = (0,46);
type = Stem;
},
{
horizontal = 1;
place = (0,45);
type = Stem;
},
{
place = (62,601);
type = Stem;
}
);
layerId = m01;
shapes = (
{
closed = 1;
nodes = (
(62,629,l),
(142,619,l),
(259,280,l),
(216,50,l),
(120,40,l),
(112,0,l),
(397,0,l),
(405,40,l),
(304,52,l),
(316,127,o),
(329,203,o),
(343,278,c),
(565,616,l),
(655,629,l),
(663,670,l),
(440,670,l),
(432,629,l),
(516,616,l),
(330,329,l),
(239,618,l),
(327,629,l),
(335,670,l),
(70,670,l)
);
}
);
width = 554;
}
);
note = Y;
unicode = 89;
},
{
glyphname = Z;
kernLeft = Z;
kernRight = Z;
layers = (
{
anchors = (
{
name = bottom;
pos = (259,-22);
},
{
name = top;
pos = (353,691);
}
);
hints = (
{
horizontal = 1;
place = (619,51);
type = Stem;
},
{
horizontal = 1;
place = (491,179);
type = Stem;
},
{
horizontal = 1;
place = (0,178);
type = Stem;
},
{
horizontal = 1;
place = (0,50);
type = Stem;
},
{
place = (1,588);
type = Stem;
}
);
layerId = m01;
shapes = (
{
closed = 1;
nodes = (
(89,491,l),
(147,491,l),
(192,619,l),
(473,619,l),
(8,35,l),
(1,0,l),
(484,0,l),
(519,178,l),
(460,178,l),
(415,50,l),
(115,50,l),
(582,634,l),
(589,670,l),
(123,670,l)
);
}
);
width = 537;
}
);
note = Z;
unicode = 90;
},
{
glyphname = a;
kernLeft = a;
kernRight = a;
layers = (
{
anchors = (
{
name = bottom;
pos = (218,-22);
},
{
name = ogonek;
pos = (401,0);
},
{
name = top;
pos = (353,506);
}
);
hints = (
{
horizontal = 1;
place = (497,-20);
target = down;
type = TopGhost;
},
{
horizontal = 1;
place = (421,66);
type = Stem;
},
{
horizontal = 1;
place = (-13,69);
type = Stem;
},
{
place = (311,75);
type = Stem;
},
{
place = (45,78);
type = Stem;
}
);
layerId = m01;
shapes = (
{
closed = 1;
nodes = (
(123,234,o),
(161,313,o),
(209,363,cs),
(245,400,o),
(287,421,o),
(319,421,cs),
(340,421,o),
(361,413,o),
(380,402,c),
(326,152,l),
(260,80,o),
(218,56,o),
(183,56,cs),
(147,56,o),
(123,85,o),
(123,146,cs)
);
},
{
closed = 1;
nodes = (
(430,-13,o),
(493,51,o),
(532,109,c),
(508,128,l),
(473,85,o),
(435,56,o),
(410,56,cs),
(397,56,o),
(386,64,o),
(386,78,cs),
(386,89,o),
(389,110,o),
(395,135,cs),
(475,488,l),
(457,497,l),
(411,460,l),
(395,477,o),
(377,487,o),
(354,487,cs),
(225,487,o),
(45,279,o),
(45,105,cs),
(45,22,o),
(92,-13,o),
(140,-13,cs),
(194,-13,o),
(257,32,o),
(315,98,c),
(312,80,o),
(311,64,o),
(311,45,cs),
(311,5,o),
(336,-13,o),
(363,-13,cs)
);
}
);
width = 522;
}
);
note = a;
unicode = 97;
},
{
glyphname = b;
kernLeft = b;
kernRight = b;
layers = (
{
anchors = (
{
name = bottom;
pos = (184,-22);
},
{
name = top;
pos = (232,738);
}
);
hints = (
{
horizontal = 1;
place = (420,67);
type = Stem;
},
{
horizontal = 1;
place = (-13,63);
type = Stem;
},
{
place = (421,75);
type = Stem;
},
{
place = (86,77);
type = Stem;
}
);
layerId = m01;
shapes = (
{
closed = 1;
nodes = (
(163,142,o),
(167,167,o),
(183,243,cs),
(198,312,l),
(262,381,o),
(317,420,o),
(360,420,cs),
(397,420,o),
(421,388,o),
(421,324,cs),
(421,242,o),
(385,156,o),
(331,104,cs),
(294,69,o),
(254,50,o),
(213,50,cs),
(181,50,o),
(163,70,o),
(163,104,cs)
);
},
{
closed = 1;
nodes = (
(331,-13,o),
(496,195,o),
(496,364,cs),
(496,454,o),
(454,487,o),
(405,487,cs),
(346,487,o),
(268,439,o),
(207,359,c),
(284,732,l),
(273,740,l),
(100,690,l),
(95,661,l),
(194,654,l),
(109,227,ls),
(96,160,o),
(86,112,o),
(86,70,cs),
(86,18,o),
(124,-13,o),
(169,-13,cs)
);
}
);
width = 494;
}
);
note = b;
unicode = 98;
},
{
glyphname = c;
kernLeft = c;
kernRight = c;
layers = (
{
anchors = (
{
name = bottom;
pos = (184,0);
},
{
name = bottom_;
pos = (178,-22);
},
{
name = top;
pos = (314,505);
}
);
hints = (
{
horizontal = 1;
place = (449,38);
type = Stem;
},
{
horizontal = 1;
place = (-13,69);
type = Stem;
},
{
place = (54,75);
type = Stem;
}
);
layerId = m01;
shapes = (
{
closed = 1;
nodes = (
(272,-13,o),
(345,41,o),
(385,111,c),
(362,129,l),
(334,95,o),
(293,56,o),
(240,56,cs),
(174,56,o),
(129,98,o),
(129,185,cs),
(129,308,o),
(202,419,o),
(288,449,c),
(318,415,ls),
(336,395,o),
(355,379,o),
(377,379,cs),
(396,379,o),
(415,389,o),
(419,414,c),
(408,457,o),
(372,487,o),
(311,487,cs),
(185,487,o),
(54,343,o),
(54,174,cs),
(54,49,o),
(116,-13,o),
(204,-13,cs)
);
}
);
width = 407;
}
);
note = c;
unicode = 99;
},
{
glyphname = d;
kernLeft = a;
kernRight = d;
layers = (
{
anchors = (
{
name = bottom;
pos = (242,-22);
},
{
name = top;
pos = (464,738);
}
);
hints = (
{
horizontal = 1;
place = (421,66);
type = Stem;
},
{
horizontal = 1;
place = (-13,69);
type = Stem;
},
{
place = (315,79);
type = Stem;
},
{
place = (47,77);
type = Stem;
}
);
layerId = m01;
shapes = (
{
closed = 1;
nodes = (
(124,232,o),
(155,309,o),
(200,359,cs),
(234,397,o),
(277,421,o),
(320,421,cs),
(340,421,o),
(361,414,o),
(381,397,c),
(333,158,l),
(266,82,o),
(223,56,o),
(187,56,cs),
(151,56,o),
(124,85,o),
(124,151,cs)
);
},
{
closed = 1;
nodes = (
(523,732,l),
(511,740,l),
(340,690,l),
(336,661,l),
(437,654,l),
(399,472,l),
(384,482,o),
(369,487,o),
(350,487,cs),
(215,487,o),
(47,279,o),
(47,113,cs),
(47,22,o),
(89,-13,o),
(137,-13,cs),
(192,-13,o),
(262,35,o),
(322,105,c),
(315,70,o),
(314,53,o),
(315,39,cs),
(315,4,o),
(340,-13,o),
(371,-13,cs),
(438,-13,o),
(500,51,o),
(539,109,c),
(515,128,l),
(481,85,o),
(443,56,o),
(417,56,cs),
(405,56,o),
(394,64,o),
(394,78,cs),
(394,89,o),
(397,110,o),
(402,135,cs)
);
}
);
width = 524;
}
);
note = d;
unicode = 100;
},
{
glyphname = e;
kernLeft = c;
kernRight = e;
layers = (
{
anchors = (
{
name = bottom;
pos = (192,-22);
},
{
name = ogonek;
pos = (241,0);
},
{
name = top;
pos = (319,506);
}
);
hints = (
{
horizontal = 1;
place = (444,43);
type = Stem;
},
{
horizontal = 1;
place = (-13,69);
type = Stem;
},
{
place = (349,66);
type = Stem;
},
{
place = (54,70);
type = Stem;
}
);
layerId = m01;
shapes = (
{
closed = 1;
nodes = (
(326,444,o),
(349,422,o),
(349,385,cs),
(349,331,o),
(290,262,o),
(124,214,c),
(134,339,o),
(231,444,o),
(293,444,cs)
);
},
{
closed = 1;
nodes = (
(278,-13,o),
(343,43,o),
(385,111,c),
(362,129,l),
(335,95,o),
(290,56,o),
(227,56,cs),
(166,56,o),
(128,90,o),
(124,175,c),
(352,241,o),
(415,331,o),
(415,395,cs),
(415,454,o),
(380,487,o),
(315,487,cs),
(175,487,o),
(54,334,o),
(54,173,cs),
(54,45,o),
(117,-13,o),
(205,-13,cs)
);
}
);
width = 407;
}
);
note = e;
unicode = 101;
},
{
glyphname = f;
kernLeft = f;
kernRight = f;
lastChange = "2024-07-22 17:48:09 +0000";
layers = (
{
anchors = (
{
name = bottom;
pos = (-41,-251);
},
{
name = top;
pos = (370,750);
}
);
hints = (
{
horizontal = 1;
place = (717,33);
type = Stem;
},
{
horizontal = 1;
place = (427,42.5);
type = Stem;
},
{
horizontal = 1;
place = (423,51);
type = Stem;
},
{
horizontal = 1;
place = (-250,98);
type = Stem;
},
{
place = (-151,634);
type = Stem;
}
);
layerId = m01;
shapes = (
{
closed = 1;
nodes = (
(305,750,o),
(190,704,o),
(156,483,cs),
(155,474,l),
(51,465,l),
(43,427,l),
(147,427,l),
(126,292,o),
(98,134,o),
(74,0,c),
(143,0,l),
(168,126,o),
(197,298,o),
(218,425,c),
(347,421,l),
(355,474,l),
(226,474,l),
(227,478,o),
(227,481,o),
(228,485,cs),
(253,638,o),
(298,694,o),
(349,717,c),
(365,698,ls),
(397,659,o),
(414,643,o),
(444,643,cs),
(462,643,o),
(476,653,o),
(483,677,c),
(475,714,o),
(429,750,o),
(370,750,cs)
);
}
);
width = 324;
}
);
note = f;
unicode = 102;
},
{
glyphname = g;
kernLeft = g;
kernRight = g;
lastChange = "2024-07-22 17:48:37 +0000";
layers = (
{
hints = (
{
horizontal = 1;
place = (498,-20);
target = down;
type = TopGhost;
},
{
horizontal = 1;
place = (455,32);
type = Stem;
},
{
horizontal = 1;
place = (155,32);
type = Stem;
},
{
horizontal = 1;
place = (-7,72);
type = Stem;
},
{
horizontal = 1;
place = (-241,47);
type = Stem;
},
{
horizontal = 1;
place = (-7,21);
target = up;
type = BottomGhost;
},
{
place = (358,69);
type = Stem;
},
{
place = (83,77);
type = Stem;
},
{
place = (57,72);
type = Stem;
},
{
place = (-25,78);
type = Stem;
}
);
layerId = m01;
shapes = (
{
closed = 1;
nodes = (
(123,231,o),
(158,311,o),
(207,362,cs),
(242,398,o),
(286,421,o),
(327,421,cs),
(346,421,o),
(366,416,o),
(389,402,c),
(336,148,l),
(270,79,o),
(220,56,o),
(186,56,cs),
(143,56,o),
(123,91,o),
(123,147,cs)
);
},
{
closed = 1;
nodes = (
(477,478,l),
(459,488,l),
(425,463,l),
(405,480,o),
(386,487,o),
(360,487,cs),
(219,487,o),
(47,279,o),
(47,113,cs),
(47,22,o),
(88,-13,o),
(137,-13,cs),
(190,-13,o),
(264,30,o),
(325,95,c),
(317,62,l),
(393,79,l)
);
},
{
closed = 1;
nodes = (
(317,62,l),
(294,-53,o),
(281,-103,o),
(260,-140,cs),
(232,-189,o),
(188,-204,o),
(157,-204,cs),
(137,-204,o),
(119,-202,o),
(102,-198,c),
(98,-147,ls),
(94,-101,o),
(88,-78,o),
(55,-78,cs),
(32,-78,o),
(14,-89,o),
(-3,-112,c),
(-5,-211,o),
(64,-249,o),
(142,-249,cs),
(326,-249,o),
(352,-128,o),
(393,79,c)
);
}
);
width = 477;
}
);
note = g;
unicode = 103;
},
{
glyphname = h;
kernLeft = b;
kernRight = h;
layers = (
{
anchors = (
{
name = bottom;
pos = (217,-12);
},
{
name = top;
pos = (250,738);
}
);
hints = (
{
horizontal = 1;
place = (658,32);
type = Stem;
},
{
horizontal = 1;
place = (420,67);
type = Stem;
},
{
horizontal = 1;
place = (-13,69);
type = Stem;
},
{
horizontal = 1;
place = (0,21);
target = up;
type = BottomGhost;
},
{
horizontal = 1;
place = (-8,21);
target = up;
type = BottomGhost;
},
{
place = (402,81);
type = Stem;
},
{
place = (327,81);
type = Stem;
}
);
layerId = m01;
shapes = (
{
closed = 1;
nodes = (
(72,-8,l),
(139,0,l),
(150,70,o),
(163,140,o),
(177,210,cs),
(203,333,l),
(276,392,o),
(331,420,o),
(367,420,cs),
(389,420,o),
(402,409,o),
(402,374,cs),
(402,354,o),
(394,321,o),
(386,287,cs),
(343,111,ls),
(333,70,o),
(327,53,o),
(327,30,cs),
(327,4,o),
(346,-13,o),
(378,-13,cs),
(446,-13,o),
(511,50,o),
(550,109,c),
(526,128,l),
(490,83,o),
(452,56,o),
(428,56,cs),
(416,56,o),
(408,63,o),
(408,77,cs),
(408,87,o),
(414,107,o),
(421,135,cs),
(466,320,ls),
(474,353,o),
(483,386,o),
(483,418,cs),
(483,464,o),
(460,487,o),
(418,487,cs),
(358,487,o),
(276,438,o),
(212,376,c),
(284,732,l),
(274,740,l),
(101,690,l),
(97,661,l),
(192,655,l),
(182,595,o),
(171,536,o),
(159,477,cs),
(62,0,l)
);
}
);
width = 544;
}
);
note = h;
unicode = 104;
},
{
glyphname = i;
kernLeft = i;
kernRight = i;
lastChange = "2024-07-22 17:47:46 +0000";
layers = (
{
anchors = (
{
name = bottom;
pos = (138,-22);
},
{
name = ogonek;
pos = (181,0);
},
{
name = top;
pos = (241,736);
}
);
hints = (
{
horizontal = 1;
place = (487,-20);
target = down;
type = TopGhost;
},
{
horizontal = 1;
place = (623,121);
type = Stem;
},
{
horizontal = 1;
place = (404,32);
type = Stem;
},
{
horizontal = 1;
place = (-13,69);
type = Stem;
},
{
place = (183,113);
type = Stem;
},
{
place = (90,79);
type = Stem;
}
);
layerId = m01;
shapes = (
{
closed = 1;
nodes = (
(90,4,o),
(117,-13,o),
(144,-13,cs),
(215,-13,o),
(267,49,o),
(312,109,c),
(287,128,l),
(247,80,o),
(215,56,o),
(191,56,cs),
(180,56,o),
(169,64,o),
(169,78,cs),
(169,89,o),
(173,110,o),
(178,135,cs),
(249,477,l),
(236,487,l),
(66,436,l),
(62,407,l),
(161,401,l),
(101,111,ls),
(92,70,o),
(90,53,o),
(90,38,cs)
);
},
{
closed = 1;
nodes = (
(268,613,o),
(296,644,o),
(296,676,cs),
(296,712,o),
(274,734,o),
(242,734,cs),
(211,734,o),
(183,705,o),
(183,672,cs),
(183,635,o),
(205,613,o),
(237,613,cs)
);
}
);
width = 305;
}
);
note = i;
unicode = 105;
},
{
glyphname = j;
kernLeft = j;
kernRight = j;
lastChange = "2024-07-22 17:47:51 +0000";
layers = (
{
anchors = (
{
name = bottom;
pos = (-20,-251);
},
{
name = top;
pos = (241,736);
}
);
hints = (
{
horizontal = 1;
place = (487,-20);
target = down;
type = TopGhost;
},
{
horizontal = 1;
place = (623,121);
type = Stem;
},
{
horizontal = 1;
place = (404,32);
type = Stem;
},
{
place = (183,113);
type = Stem;
}
);
layerId = m01;
shapes = (
{
closed = 1;
nodes = (
(268,613,o),
(296,644,o),
(296,676,cs),
(296,712,o),
(274,734,o),
(242,734,cs),
(211,734,o),
(183,705,o),
(183,672,cs),
(183,635,o),
(205,613,o),
(237,613,cs)
);
},
{
closed = 1;
nodes = (
(-62,-248,l),
(-27,-242,o),
(7,-226,o),
(39,-199,cs),
(102,-146,o),
(141,-70,o),
(160,23,cs),
(248,477,l),
(235,487,l),
(66,436,l),
(63,407,l),
(161,401,l),
(93,48,ls),
(71,-73,o),
(45,-123,o),
(11,-166,cs),
(-9,-191,o),
(-34,-205,o),
(-70,-220,c)
);
}
);
width = 260;
}
);
note = j;
unicode = 106;
},
{
glyphname = k;
kernLeft = b;
kernRight = k;
layers = (
{
anchors = (
{
name = bottom;
pos = (232,-22);
},
{
name = top;
pos = (242,738);
}
);
hints = (
{
horizontal = 1;
place = (658,32);
type = Stem;
},
{
horizontal = 1;
place = (-13,45);
type = Stem;
},
{
horizontal = 1;
place = (0,21);
target = up;
type = BottomGhost;
},
{
horizontal = 1;
place = (-8,21);
target = up;
type = BottomGhost;
},
{
place = (61,430);
type = Stem;
}
);
layerId = m01;
shapes = (
{
closed = 1;
nodes = (
(61,0,l),
(71,-8,l),
(137,0,l),
(149,70,o),
(161,140,o),
(175,210,cs),
(179,232,l),
(188,229,ls),
(223,219,o),
(238,201,o),
(262,145,cs),
(294,67,ls),
(323,-3,o),
(356,-13,o),
(403,-13,cs),
(425,-13,o),
(444,-10,o),
(474,0,c),
(479,30,l),
(428,34,ls),
(397,36,o),
(382,44,o),
(360,92,cs),
(331,155,ls),
(308,205,o),
(277,239,o),
(219,250,cs),
(196,255,l),
(439,389,ls),
(476,409,o),
(491,423,o),
(491,441,cs),
(491,462,o),
(475,481,o),
(454,482,c),
(188,275,l),
(278,732,l),
(272,740,l),
(99,690,l),
(95,661,l),
(190,655,l),
(180,595,o),
(169,536,o),
(157,477,cs)
);
}
);
width = 472;
}
);
note = k;
unicode = 107;
},
{
glyphname = l;
kernLeft = b;
kernRight = d;
layers = (
{
anchors = (
{
name = bottom;
pos = (130,-22);
},
{
name = top;
pos = (238,738);
}
);
hints = (
{
horizontal = 1;
place = (658,32);
type = Stem;
},
{
horizontal = 1;
place = (-13,69);
type = Stem;
},
{
place = (74,77);
type = Stem;
}
);
layerId = m01;
shapes = (
{
closed = 1;
nodes = (
(201,-13,o),
(251,50,o),
(294,109,c),
(271,128,l),
(231,82,o),
(197,56,o),
(176,56,cs),
(163,56,o),
(151,64,o),
(151,79,cs),
(151,89,o),
(154,110,o),
(160,137,cs),
(280,732,l),
(269,740,l),
(97,690,l),
(93,661,l),
(187,655,l),
(178,595,o),
(167,536,o),
(155,477,cs),
(83,112,ls),
(77,77,o),
(74,59,o),
(74,45,cs),
(74,6,o),
(99,-13,o),
(130,-13,cs)
);
}
);
width = 279;
}
);
note = l;
unicode = 108;
},
{
glyphname = m;
kernLeft = m;
kernRight = h;
layers = (
{
anchors = (
{
name = bottom;
pos = (383,-22);
},
{
name = top;
pos = (460,506);
}
);
hints = (
{
horizontal = 1;
place = (420,67);
type = Stem;
},
{
horizontal = 1;
place = (404,32);
type = Stem;
},
{
horizontal = 1;
place = (-13,69);
type = Stem;
},
{
horizontal = 1;
place = (0,21);
target = up;
type = BottomGhost;
},
{
horizontal = 1;
place = (-8,21);
target = up;
type = BottomGhost;
},
{
place = (676,81);
type = Stem;
},
{
place = (601,81);
type = Stem;
},
{
place = (420,80);
type = Stem;
}
);
layerId = m01;
shapes = (
{
closed = 1;
nodes = (
(723,-13,o),
(781,48,o),
(824,109,c),
(800,128,l),
(760,80,o),
(729,56,o),
(702,56,cs),
(691,56,o),
(682,63,o),
(682,77,cs),
(682,87,o),
(688,107,o),
(695,135,cs),
(740,320,ls),
(748,353,o),
(757,386,o),
(757,418,cs),
(757,464,o),
(735,487,o),
(694,487,cs),
(634,487,o),
(558,437,o),
(495,376,c),
(498,391,o),
(500,405,o),
(500,418,cs),
(500,464,o),
(478,487,o),
(437,487,cs),
(375,487,o),
(293,437,o),
(228,374,c),
(249,477,l),
(236,487,l),
(66,436,l),
(62,407,l),
(161,401,l),
(76,0,l),
(86,-8,l),
(153,0,l),
(166,71,o),
(178,140,o),
(193,210,cs),
(220,331,l),
(293,391,o),
(349,420,o),
(385,420,cs),
(407,420,o),
(420,409,o),
(420,377,cs),
(420,361,o),
(415,343,o),
(412,326,cs),
(343,0,l),
(353,-8,l),
(418,0,l),
(431,71,o),
(444,140,o),
(460,210,cs),
(486,332,l),
(556,390,o),
(607,420,o),
(641,420,cs),
(664,420,o),
(676,409,o),
(676,374,cs),
(676,354,o),
(668,321,o),
(660,287,cs),
(617,111,ls),
(607,70,o),
(601,53,o),
(601,30,cs),
(601,4,o),
(620,-13,o),
(652,-13,cs)
);
}
);
width = 818;
}
);
note = m;
unicode = 109;
},
{
glyphname = n;
kernLeft = m;
kernRight = h;
layers = (
{
anchors = (
{
name = bottom;
pos = (244,-12);
},
{
name = top;
pos = (338,506);
}
);
hints = (
{
horizontal = 1;
place = (420,67);
type = Stem;
},
{
horizontal = 1;
place = (404,32);
type = Stem;
},
{
horizontal = 1;
place = (-13,69);
type = Stem;
},
{
horizontal = 1;
place = (0,21);
target = up;
type = BottomGhost;
},
{
horizontal = 1;
place = (-8,21);
target = up;
type = BottomGhost;
},
{
place = (421,80);
type = Stem;
},
{
place = (346,81);
type = Stem;
}
);
layerId = m01;
shapes = (
{
closed = 1;
nodes = (
(153,0,l),
(166,71,o),
(178,140,o),
(193,210,cs),
(220,331,l),
(293,391,o),
(350,420,o),
(386,420,cs),
(408,420,o),
(421,409,o),
(421,374,cs),
(421,354,o),
(413,321,o),
(405,287,cs),
(362,111,ls),
(352,70,o),
(346,53,o),
(346,30,cs),
(346,4,o),
(365,-13,o),
(396,-13,cs),
(465,-13,o),
(530,50,o),
(569,109,c),
(545,128,l),
(509,83,o),
(471,56,o),
(446,56,cs),
(435,56,o),
(427,63,o),
(427,77,cs),
(427,87,o),
(433,107,o),
(440,135,cs),
(485,320,ls),
(493,353,o),
(501,386,o),
(501,418,cs),
(501,464,o),
(479,487,o),
(437,487,cs),
(376,487,o),
(294,437,o),
(228,374,c),
(249,477,l),
(236,487,l),
(66,436,l),
(62,407,l),
(161,401,l),
(76,0,l),
(86,-8,l)
);
}
);
width = 563;
}
);
note = n;
unicode = 110;
},
{
glyphname = o;
kernLeft = c;
kernRight = o;
layers = (
{
anchors = (
{
name = bottom;
pos = (203,-22);
},
{
name = ogonek;
pos = (277,0);
},
{
name = top;
pos = (318,506);
}
);
hints = (
{
horizontal = 1;
place = (447,40);
type = Stem;
},
{
horizontal = 1;
place = (-13,40);
type = Stem;
},
{
place = (396,81);
type = Stem;
},
{
place = (54,82);
type = Stem;
}
);
layerId = m01;
shapes = (
{
closed = 1;
nodes = (
(361,-13,o),
(477,138,o),
(477,312,cs),
(477,425,o),
(409,487,o),
(315,487,cs),
(173,487,o),
(54,343,o),
(54,163,cs),
(54,49,o),
(128,-13,o),
(221,-13,cs)
);
},
{
closed = 1;
nodes = (
(176,27,o),
(136,70,o),
(136,175,cs),
(136,324,o),
(209,447,o),
(304,447,cs),
(358,447,o),
(396,405,o),
(396,297,cs),
(396,163,o),
(330,27,o),
(232,27,cs)
);
}
);
width = 488;
}
);
note = o;
unicode = 111;
},
{
glyphname = p;
kernLeft = p;
kernRight = b;
layers = (
{
anchors = (
{
name = bottom;
pos = (68,-251);
},
{
name = top;
pos = (324,506);
}
);
hints = (
{
horizontal = 1;
place = (420,67);
type = Stem;
},
{
horizontal = 1;
place = (404,32);
type = Stem;
},
{
horizontal = 1;
place = (-13,68);
type = Stem;
},
{
horizontal = 1;
place = (-241,34);
type = Stem;
},
{
place = (437,77);
type = Stem;
}
);
layerId = m01;
shapes = (
{
closed = 1;
nodes = (
(-58,-241,l),
(195,-241,l),
(203,-207,l),
(111,-192,l),
(119,-142,o),
(130,-84,o),
(148,2,c),
(165,-8,o),
(183,-13,o),
(205,-13,cs),
(349,-13,o),
(514,195,o),
(514,364,cs),
(514,454,o),
(472,487,o),
(423,487,cs),
(366,487,o),
(287,441,o),
(225,365,c),
(249,477,l),
(236,487,l),
(66,436,l),
(62,407,l),
(161,401,l),
(35,-193,l),
(-51,-207,l)
);
},
{
closed = 1;
nodes = (
(415,420,o),
(437,389,o),
(437,324,cs),
(437,255,o),
(412,184,o),
(372,131,cs),
(337,86,o),
(291,55,o),
(241,55,cs),
(218,55,o),
(192,63,o),
(165,83,c),
(215,316,l),
(278,383,o),
(335,420,o),
(376,420,cs)
);
}
);
width = 512;
}
);
note = p;
unicode = 112;
},
{
glyphname = q;
kernLeft = a;
kernRight = q;
layers = (
{
anchors = (
{
name = bottom;
pos = (290,-251);
},
{
name = top;
pos = (368,506);
}
);
hints = (
{
horizontal = 1;
place = (421,66);
type = Stem;
},
{
horizontal = 1;
place = (-13,69);
type = Stem;
},
{
horizontal = 1;
place = (-241,34);
type = Stem;
},
{
place = (47,76);
type = Stem;
}
);
layerId = m01;
shapes = (
{
closed = 1;
nodes = (
(123,231,o),
(158,311,o),
(207,362,cs),
(242,398,o),
(286,421,o),
(327,421,cs),
(346,421,o),
(366,416,o),
(389,402,c),
(336,148,l),
(270,79,o),
(220,56,o),
(186,56,cs),
(143,56,o),
(123,91,o),
(123,147,cs)
);
},
{
closed = 1;
nodes = (
(477,478,l),
(459,488,l),
(425,463,l),
(405,480,o),
(386,487,o),
(360,487,cs),
(219,487,o),
(47,279,o),
(47,113,cs),
(47,22,o),
(88,-13,o),
(137,-13,cs),
(190,-13,o),
(264,30,o),
(325,95,c),
(264,-192,l),
(174,-207,l),
(167,-241,l),
(420,-241,l),
(428,-207,l),
(339,-193,l),
(348,-141,o),
(357,-91,o),
(368,-39,cs)
);
}
);
width = 488;
}
);
note = q;
unicode = 113;
},
{
glyphname = r;
kernLeft = m;
kernRight = r;
layers = (
{
anchors = (
{
name = bottom;
pos = (114,-22);
},
{
name = top;
pos = (290,506);
}
);
hints = (
{
horizontal = 1;
place = (404,32);
type = Stem;
},
{
horizontal = 1;
place = (401,86);
type = Stem;
},
{
horizontal = 1;
place = (0,21);
target = up;
type = BottomGhost;
},
{
horizontal = 1;
place = (-8,21);
target = up;
type = BottomGhost;
},
{
place = (62,378);
type = Stem;
}
);
layerId = m01;
shapes = (
{
closed = 1;
nodes = (
(76,0,l),
(86,-8,l),
(153,0,l),
(166,71,o),
(178,140,o),
(193,210,cs),
(205,262,l),
(241,332,o),
(280,387,o),
(328,427,c),
(348,412,o),
(370,401,o),
(387,401,cs),
(420,401,o),
(439,424,o),
(440,457,c),
(426,479,o),
(401,487,o),
(373,487,cs),
(320,487,o),
(265,418,o),
(222,343,c),
(244,477,l),
(231,487,l),
(66,436,l),
(62,407,l),
(161,401,l)
);
}
);
width = 400;
}
);
note = r;
unicode = 114;
},
{
glyphname = s;
kernLeft = s;
kernRight = s;
layers = (
{
anchors = (
{
name = bottom;
pos = (122,0);
},
{
name = bottom_;
pos = (119,-22);
},
{
name = top;
pos = (265,506);
}
);
hints = (
{
horizontal = 1;
place = (448,39);
type = Stem;
},
{
horizontal = 1;
place = (-13,39);
type = Stem;
},
{
place = (256,73);
type = Stem;
},
{
place = (103,71);
type = Stem;
}
);
layerId = m01;
shapes = (
{
closed = 1;
nodes = (
(329,187,o),
(308,217,o),
(248,262,cs),
(191,304,o),
(174,324,o),
(174,366,cs),
(174,411,o),
(200,448,o),
(269,448,cs),
(274,448,o),
(279,448,o),
(283,447,c),
(292,418,ls),
(302,388,o),
(320,371,o),
(343,371,cs),
(361,371,o),
(375,380,o),
(381,399,c),
(366,464,o),
(321,487,o),
(262,487,cs),
(166,487,o),
(103,425,o),
(103,347,cs),
(103,284,o),
(141,248,o),
(191,210,cs),
(248,169,o),
(256,143,o),
(256,111,cs),
(256,59,o),
(215,26,o),
(146,26,cs),
(141,26,o),
(136,26,o),
(132,27,c),
(121,70,ls),
(114,98,o),
(102,114,o),
(73,114,cs),
(57,114,o),
(41,103,o),
(36,86,c),
(43,26,o),
(82,-13,o),
(160,-13,cs),
(261,-13,o),
(329,46,o),
(329,129,cs)
);
}
);
width = 360;
}
);
note = s;
unicode = 115;
},
{
glyphname = t;
kernLeft = t;
kernRight = t;
layers = (
{
anchors = (
{
name = bottom;
pos = (142,0);
},
{
name = bottom_;
pos = (134,-22);
},
{
name = top;
pos = (252,628);
}
);
hints = (
{
horizontal = 1;
place = (425,45);
type = Stem;
},
{
horizontal = 1;
place = (422,52);
type = Stem;
},
{
horizontal = 1;
place = (-13,69);
type = Stem;
},
{
place = (90,79);
type = Stem;
}
);
layerId = m01;
shapes = (
{
closed = 1;
nodes = (
(100,111,ls),
(92,70,o),
(90,53,o),
(90,38,cs),
(90,4,o),
(116,-13,o),
(145,-13,cs),
(213,-13,o),
(274,49,o),
(316,109,c),
(291,128,l),
(251,80,o),
(220,56,o),
(193,56,cs),
(181,56,o),
(169,64,o),
(169,79,cs),
(169,89,o),
(172,110,o),
(178,137,cs),
(239,424,l),
(368,420,l),
(376,474,l),
(249,474,l),
(278,609,l),
(227,609,l),
(180,475,l),
(72,465,l),
(65,425,l),
(167,425,l)
);
}
);
width = 329;
}
);
note = t;
unicode = 116;
},
{
glyphname = u;
kernLeft = u;
kernRight = u;
layers = (
{
anchors = (
{
name = bottom;
pos = (273,-22);
},
{
name = ogonek;
pos = (431,0);
},
{
name = top;
pos = (347,506);
}
);
hints = (
{
horizontal = 1;
place = (487,-20);
target = down;
type = TopGhost;
},
{
horizontal = 1;
place = (404.5,32.5);
type = Stem;
},
{
horizontal = 1;
place = (-13,69);
type = Stem;
},
{
place = (359,78);
type = Stem;
},
{
place = (98,81);
type = Stem;
}
);
layerId = m01;
shapes = (
{
closed = 1;
nodes = (
(484,-13,o),
(537,49,o),
(583,109,c),
(559,128,l),
(517,80,o),
(487,56,o),
(460,56,cs),
(448,56,o),
(437,64,o),
(437,78,cs),
(437,89,o),
(441,110,o),
(446,135,cs),
(517,477,l),
(504,487,l),
(439,467,l),
(429,403,o),
(416,339,o),
(403,275,cs),
(376,142,l),
(300,82,o),
(259,56,o),
(217,56,cs),
(193,56,o),
(179,70,o),
(179,99,cs),
(179,121,o),
(185,153,o),
(194,194,cs),
(257,477,l),
(244,487,l),
(70,437,l),
(66,407,l),
(165,402,l),
(119,186,ls),
(111,147,o),
(98,97,o),
(98,60,cs),
(98,5,o),
(129,-13,o),
(167,-13,cs),
(228,-13,o),
(290,30,o),
(367,101,c),
(360,67,o),
(359,52,o),
(359,39,cs),
(359,4,o),
(385,-13,o),
(412,-13,cs)
);
}
);
width = 572;
}
);
note = u;
unicode = 117;
},
{
glyphname = v;
kernLeft = v;
kernRight = v;
layers = (
{
anchors = (
{
name = bottom;
pos = (197,-22);
},
{
name = top;
pos = (312,496);
}
);
hints = (
{
horizontal = 1;
place = (418,69);
type = Stem;
},
{
horizontal = 1;
place = (-2,21);
target = up;
type = BottomGhost;
},
{
horizontal = 1;
place = (-7,21);
target = up;
type = BottomGhost;
},
{
place = (408,97);
type = Stem;
},
{
place = (178,68);
type = Stem;
}
);
layerId = m01;
shapes = (
{
closed = 1;
nodes = (
(185,-7,l),
(214,-4,l),
(316,100,o),
(408,221,o),
(455,310,cs),
(503,399,o),
(505,425,o),
(505,446,cs),
(505,462,o),
(504,468,o),
(500,474,cs),
(494,481,o),
(481,487,o),
(462,487,cs),
(429,487,o),
(408,466,o),
(408,416,cs),
(408,406,o),
(410,390,o),
(412,377,cs),
(419,338,l),
(418,336,o),
(417,334,o),
(416,332,cs),
(367,240,o),
(317,163,o),
(246,80,c),
(245,196,o),
(240,318,o),
(226,408,cs),
(217,463,o),
(200,487,o),
(159,487,cs),
(112,487,o),
(68,446,o),
(33,368,c),
(56,352,l),
(91,404,o),
(106,418,o),
(124,418,cs),
(138,418,o),
(148,411,o),
(152,371,cs),
(167,265,o),
(174,155,o),
(178,-2,c)
);
}
);
width = 478;
}
);
note = v;
unicode = 118;
},
{
glyphname = w;
kernLeft = v;
kernRight = v;
layers = (
{
anchors = (
{
name = bottom;
pos = (326,-22);
},
{
name = top;
pos = (466,506);
}
);
hints = (
{
horizontal = 1;
place = (418,69);
type = Stem;
},
{
horizontal = 1;
place = (-2,21);
target = up;
type = BottomGhost;
},
{
horizontal = 1;
place = (-7,21);
target = up;
type = BottomGhost;
},
{
place = (657,99);
type = Stem;
},
{
place = (419,82);
type = Stem;
},
{
place = (175,67);
type = Stem;
}
);
layerId = m01;
shapes = (
{
closed = 1;
nodes = (
(182,-7,l),
(212,-4,l),
(292,87,o),
(367,217,o),
(419,314,c),
(423,231,o),
(433,36,o),
(435,-2,c),
(442,-7,l),
(471,-4,l),
(574,103,o),
(658,219,o),
(705,310,cs),
(751,396,o),
(756,423,o),
(756,444,cs),
(756,460,o),
(754,468,o),
(750,474,cs),
(744,481,o),
(733,486,o),
(717,487,cs),
(686,487,o),
(657,466,o),
(657,416,cs),
(657,407,o),
(659,387,o),
(662,375,cs),
(670,340,l),
(668,337,o),
(667,334,o),
(665,331,cs),
(615,239,o),
(569,171,o),
(501,87,c),
(499,166,o),
(488,455,o),
(487,475,c),
(446,475,l),
(384,329,o),
(315,204,o),
(242,97,c),
(241,208,o),
(237,337,o),
(223,420,cs),
(215,468,o),
(198,487,o),
(156,487,cs),
(111,487,o),
(68,446,o),
(33,368,c),
(56,352,l),
(88,400,o),
(105,418,o),
(124,418,cs),
(139,418,o),
(148,413,o),
(152,374,cs),
(166,273,o),
(174,159,o),
(175,-2,c)
);
}
);
width = 729;
}
);
note = w;
unicode = 119;
},
{
glyphname = x;
kernLeft = x;
kernRight = x;
layers = (
{
anchors = (
{
name = bottom;
pos = (225,-22);
},
{
name = top;
pos = (337,506);
}
);
hints = (
{
horizontal = 1;
place = (420,67);
type = Stem;
},
{
horizontal = 1;
place = (386,101);
type = Stem;
},
{
horizontal = 1;
place = (-13,107);
type = Stem;
},
{
horizontal = 1;
place = (-13,69);
type = Stem;
},
{
place = (-5,563);
type = Stem;
}
);
layerId = m01;
shapes = (
{
closed = 1;
nodes = (
(-1,10,o),
(37,-13,o),
(77,-13,cs),
(104,-13,o),
(125,-5,o),
(147,21,cs),
(182,62,o),
(219,116,o),
(260,183,c),
(297,59,ls),
(314,1,o),
(336,-13,o),
(366,-13,cs),
(419,-13,o),
(478,38,o),
(526,109,c),
(501,128,l),
(465,83,o),
(431,56,o),
(405,56,cs),
(377,56,o),
(363,67,o),
(348,122,cs),
(313,249,l),
(353,306,o),
(395,361,o),
(442,413,cs),
(447,418,o),
(451,424,o),
(456,428,c),
(462,420,ls),
(481,392,o),
(497,386,o),
(517,386,cs),
(539,386,o),
(558,406,o),
(558,434,c),
(550,470,o),
(517,487,o),
(491,487,cs),
(459,487,o),
(438,476,o),
(409,442,cs),
(384,411,o),
(344,358,o),
(301,290,c),
(270,401,ls),
(252,465,o),
(232,487,o),
(193,487,cs),
(151,487,o),
(105,451,o),
(68,369,c),
(91,352,l),
(125,410,o),
(152,420,o),
(166,420,cs),
(187,420,o),
(194,407,o),
(206,366,cs),
(248,223,l),
(207,162,o),
(167,108,o),
(119,56,cs),
(113,49,o),
(107,43,o),
(100,38,c),
(89,58,ls),
(72,88,o),
(59,94,o),
(38,94,cs),
(22,94,o),
(0,82,o),
(-5,58,c)
);
}
);
width = 519;
}
);
note = x;
unicode = 120;
},
{
glyphname = y;
kernLeft = y;
kernRight = v;
layers = (
{
anchors = (
{
name = bottom;
pos = (5,-252);
},
{
name = top;
pos = (319,496);
}
);
hints = (
{
horizontal = 1;
place = (493,-20);
target = down;
type = TopGhost;
},
{
horizontal = 1;
place = (487,-20);
target = down;
type = TopGhost;
},
{
horizontal = 1;
place = (418,69);
type = Stem;
},
{
horizontal = 1;
place = (-240,103);
type = Stem;
},
{
place = (199,55);
type = Stem;
},
{
place = (-82,586);
type = Stem;
}
);
layerId = m01;
shapes = (
{
closed = 1;
nodes = (
(-79,-216,o),
(-55,-240,o),
(-11,-240,cs),
(47,-240,o),
(105,-197,o),
(171,-126,cs),
(212,-81,o),
(239,-39,o),
(265,0,cs),
(320,83,o),
(362,160,o),
(399,226,cs),
(437,294,o),
(458,335,o),
(479,378,cs),
(499,418,o),
(504,433,o),
(504,459,cs),
(504,479,o),
(490,493,o),
(467,493,cs),
(439,493,o),
(424,472,o),
(391,357,cs),
(358,243,o),
(324,170,o),
(254,43,c),
(250,136,o),
(243,238,o),
(231,354,cs),
(219,466,o),
(198,487,o),
(160,487,cs),
(118,487,o),
(73,453,o),
(33,368,c),
(56,352,l),
(92,406,o),
(106,418,o),
(123,418,cs),
(141,418,o),
(147,404,o),
(162,277,cs),
(179,144,o),
(191,76,o),
(199,-41,c),
(182,-62,o),
(165,-82,o),
(146,-101,cs),
(118,-130,o),
(88,-154,o),
(56,-174,c),
(53,-172,ls),
(24,-151,o),
(1,-137,o),
(-28,-137,cs),
(-56,-137,o),
(-77,-153,o),
(-82,-182,c)
);
}
);
width = 476;
}
);
note = y;
unicode = 121;
},
{
glyphname = z;
kernLeft = z;
kernRight = z;
lastChange = "2024-07-22 17:48:22 +0000";
layers = (
{
hints = (
{
horizontal = 1;
place = (487,-20);
target = down;
type = TopGhost;
},
{
horizontal = 1;
place = (-23,69);
type = Stem;
},
{
horizontal = 1;
place = (0,21);
target = up;
type = BottomGhost;
},
{
horizontal = 1;
place = (-6,21);
target = up;
type = BottomGhost;
},
{
place = (362,83);
type = Stem;
}
);
layerId = m01;
shapes = (
{
closed = 1;
nodes = (
(135,475,l),
(98,325,l),
(149,321,l),
(198,432,l),
(365,432,l),
(36,35,l),
(29,0,l),
(361,0,l),
(403,163,l),
(351,163,l),
(297,42,l),
(133,42,l),
(461,439,l),
(468,475,l)
);
}
);
width = 444;
}
);
note = z;
unicode = 122;
},
{
glyphname = Agrave;
kernLeft = A;
kernRight = A;
layers = (
{
hints = (
{
horizontal = 1;
place = (670,-20);
target = down;
type = TopGhost;
},
{
horizontal = 1;
place = (243,46);
type = Stem;
},
{
horizontal = 1;
place = (0,45.5);
type = Stem;
},
{
horizontal = 1;
place = (0,45);
type = Stem;
},
{
place = (-29,668);
type = Stem;
}
);
layerId = m01;
shapes = (
{
closed = 1;
nodes = (
(241,289,l),
(391,572,l),
(429,289,l)
);
},
{
closed = 1;
nodes = (
(-29,0,l),
(195,0,l),
(203,40,l),
(116,53,l),
(217,243,l),
(435,243,l),
(461,50,l),
(374,40,l),
(366,0,l),
(631,0,l),
(639,40,l),
(551,51,l),
(463,670,l),
(405,670,l),
(62,52,l),
(-21,40,l)
);
},
{
closed = 1;
nodes = (
(480,746,l),
(450,777,o),
(419,808,o),
(387,839,cs),
(359,867,o),
(342,877,o),
(325,877,cs),
(304,877,o),
(287,864,o),
(287,844,cs),
(287,826,o),
(300,808,o),
(337,788,cs),
(378,766,o),
(420,743,o),
(462,721,c)
);
}
);
width = 676;
}
);
note = Agrave;
unicode = 192;
},
{
glyphname = Aacute;
kernLeft = A;
kernRight = A;
layers = (
{
hints = (
{
horizontal = 1;
place = (670,-20);
target = down;
type = TopGhost;
},
{
horizontal = 1;
place = (243,46);
type = Stem;
},
{
horizontal = 1;
place = (0,45.5);
type = Stem;
},
{
horizontal = 1;
place = (0,45);
type = Stem;
},
{
place = (-29,668);
type = Stem;
}
);
layerId = m01;
shapes = (
{
closed = 1;
nodes = (
(241,289,l),
(391,572,l),
(429,289,l)
);
},
{
closed = 1;
nodes = (
(-29,0,l),
(195,0,l),
(203,40,l),
(116,53,l),
(217,243,l),
(435,243,l),
(461,50,l),
(374,40,l),
(366,0,l),
(631,0,l),
(639,40,l),
(551,51,l),
(463,670,l),
(405,670,l),
(62,52,l),
(-21,40,l)
);
},
{
closed = 1;
nodes = (
(410,713,l),
(460,735,o),
(511,756,o),
(561,778,cs),
(609,800,o),
(615,816,o),
(615,833,cs),
(615,854,o),
(598,867,o),
(578,867,cs),
(553,867,o),
(543,857,o),
(510,830,cs),
(472,798,o),
(435,767,o),
(397,735,c)
);
}
);
width = 676;
}
);
note = Aacute;
unicode = 193;
},
{
glyphname = Acircumflex;
kernLeft = A;
kernRight = A;
layers = (
{
hints = (
{
horizontal = 1;
place = (670,-20);
target = down;
type = TopGhost;
},
{
horizontal = 1;
place = (243,46);
type = Stem;
},
{
horizontal = 1;
place = (0,45.5);
type = Stem;
},
{
horizontal = 1;
place = (0,45);
type = Stem;
},
{
place = (-29,668);
type = Stem;
}
);
layerId = m01;
shapes = (
{
closed = 1;
nodes = (
(-29,0,l),
(195,0,l),
(203,40,l),
(116,53,l),
(217,243,l),
(435,243,l),
(461,50,l),
(374,40,l),
(366,0,l),
(631,0,l),
(639,40,l),
(551,51,l),
(463,670,l),
(405,670,l),
(62,52,l),
(-21,40,l)
);
},
{
closed = 1;
nodes = (
(241,289,l),
(391,572,l),
(429,289,l)
);
},
{
closed = 1;
nodes = (
(473,861,l),
(441,861,l),
(289,741,l),
(303,717,l),
(447,799,l),
(568,717,l),
(592,741,l)
);
}
);
width = 676;
}
);
note = Acircumflex;
unicode = 194;
},
{
glyphname = Atilde;
kernLeft = A;
kernRight = A;
layers = (
{
hints = (
{
horizontal = 1;
place = (670,-20);
target = down;
type = TopGhost;
},
{
horizontal = 1;
place = (806,57);
type = Stem;
},
{
horizontal = 1;
place = (724,56);
type = Stem;
},
{
horizontal = 1;
place = (243,46);
type = Stem;
},
{
horizontal = 1;
place = (0,45.5);
type = Stem;
},
{
horizontal = 1;
place = (0,45);
type = Stem;
},
{
place = (-29,673);
type = Stem;
}
);
layerId = m01;
shapes = (
{
closed = 1;
nodes = (
(-29,0,l),
(195,0,l),
(203,40,l),
(116,53,l),
(217,243,l),
(435,243,l),
(461,50,l),
(374,40,l),
(366,0,l),
(631,0,l),
(639,40,l),
(551,51,l),
(463,670,l),
(405,670,l),
(62,52,l),
(-21,40,l)
);
},
{
closed = 1;
nodes = (
(241,289,l),
(391,572,l),
(429,289,l)
);
},
{
closed = 1;
nodes = (
(289,725,l),
(315,785,o),
(340,806,o),
(373,806,cs),
(403,806,o),
(419,778,o),
(440,757,cs),
(459,740,o),
(479,724,o),
(516,724,cs),
(578,724,o),
(616,764,o),
(644,852,c),
(616,861,l),
(591,801,o),
(566,780,o),
(532,780,cs),
(502,780,o),
(487,808,o),
(465,829,cs),
(446,847,o),
(427,863,o),
(390,863,cs),
(329,863,o),
(288,822,o),
(262,735,c)
);
}
);
width = 676;
}
);
note = Atilde;
unicode = 195;
},
{
glyphname = Adieresis;
kernLeft = A;
kernRight = A;
layers = (
{
hints = (
{
horizontal = 1;
place = (670,-20);
target = down;
type = TopGhost;
},
{
horizontal = 1;
place = (748,103);
type = Stem;
},
{
horizontal = 1;
place = (243,46);
type = Stem;
},
{
horizontal = 1;
place = (0,45.5);
type = Stem;
},
{
horizontal = 1;
place = (0,45);
type = Stem;
},
{
place = (496,100);
type = Stem;
},
{
place = (275,101);
type = Stem;
}
);
layerId = m01;
shapes = (
{
closed = 1;
nodes = (
(-29,0,l),
(195,0,l),
(203,40,l),
(116,53,l),
(217,243,l),
(435,243,l),
(461,50,l),
(374,40,l),
(366,0,l),
(631,0,l),
(639,40,l),
(551,51,l),
(463,670,l),
(405,670,l),
(62,52,l),
(-21,40,l)
);
},
{
closed = 1;
nodes = (
(241,289,l),
(391,572,l),
(429,289,l)
);
},
{
closed = 1;
nodes = (
(351,748,o),
(376,772,o),
(376,807,cs),
(376,832,o),
(357,851,o),
(331,851,cs),
(303,851,o),
(275,828,o),
(275,793,cs),
(275,765,o),
(297,748,o),
(321,748,cs)
);
},
{
closed = 1;
nodes = (
(570,748,o),
(596,772,o),
(596,807,cs),
(596,832,o),
(576,851,o),
(550,851,cs),
(522,851,o),
(496,828,o),
(496,793,cs),
(496,765,o),
(517,748,o),
(539,748,cs)
);
}
);
width = 676;
}
);
note = Adieresis;
unicode = 196;
},
{
glyphname = Amacron;
kernLeft = A;
kernRight = A;
layers = (
{
hints = (
{
horizontal = 1;
place = (670,-20);
target = down;
type = TopGhost;
},
{
horizontal = 1;
place = (759,58);
type = Stem;
},
{
horizontal = 1;
place = (243,46);
type = Stem;
},
{
horizontal = 1;
place = (0,45.5);
type = Stem;
},
{
horizontal = 1;
place = (0,45);
type = Stem;
},
{
place = (-29,668);
type = Stem;
}
);
layerId = m01;
shapes = (
{
closed = 1;
nodes = (
(-29,0,l),
(195,0,l),
(203,40,l),
(116,53,l),
(217,243,l),
(435,243,l),
(461,50,l),
(374,40,l),
(366,0,l),
(631,0,l),
(639,40,l),
(551,51,l),
(463,670,l),
(405,670,l),
(62,52,l),
(-21,40,l)
);
},
{
closed = 1;
nodes = (
(277,759,l),
(577,759,l),
(588,817,l),
(288,817,l)
);
},
{
closed = 1;
nodes = (
(241,289,l),
(391,572,l),
(429,289,l)
);
}
);
width = 676;
}
);
note = Amacron;
unicode = 256;
},
{
glyphname = Abreve;
kernLeft = A;
kernRight = A;
layers = (
{
hints = (
{
horizontal = 1;
place = (670,-20);
target = down;
type = TopGhost;
},
{
horizontal = 1;
place = (731,59);
type = Stem;
},
{
horizontal = 1;
place = (243,46);
type = Stem;
},
{
horizontal = 1;
place = (0,45.5);
type = Stem;
},
{
horizontal = 1;
place = (0,45);
type = Stem;
},
{
place = (-29,668);
type = Stem;
}
);
layerId = m01;
shapes = (
{
closed = 1;
nodes = (
(-29,0,l),
(195,0,l),
(203,40,l),
(116,53,l),
(217,243,l),
(435,243,l),
(461,50,l),
(374,40,l),
(366,0,l),
(631,0,l),
(639,40,l),
(551,51,l),
(463,670,l),
(405,670,l),
(62,52,l),
(-21,40,l)
);
},
{
closed = 1;
nodes = (
(241,289,l),
(391,572,l),
(429,289,l)
);
},
{
closed = 1;
nodes = (
(526,731,o),
(584,799,o),
(604,858,c),
(574,870,l),
(548,825,o),
(506,790,o),
(452,790,cs),
(397,790,o),
(356,822,o),
(337,869,c),
(309,855,l),
(323,780,o),
(368,731,o),
(441,731,cs)
);
}
);
width = 676;
}
);
note = Abreve;
unicode = 258;
},
{
glyphname = Aring;
kernLeft = A;
kernRight = A;
layers = (
{
hints = (
{
horizontal = 1;
place = (670,-20);
target = down;
type = TopGhost;
},
{
horizontal = 1;
place = (865,33);
type = Stem;
},
{
horizontal = 1;
place = (713,33);
type = Stem;
},
{
horizontal = 1;
place = (243,46);
type = Stem;
},
{
horizontal = 1;
place = (0,45.5);
type = Stem;
},
{
horizontal = 1;
place = (0,45);
type = Stem;
},
{
place = (505,41);
type = Stem;
},
{
place = (353,41);
type = Stem;
}
);
layerId = m01;
shapes = (
{
closed = 1;
nodes = (
(-29,0,l),
(195,0,l),
(203,40,l),
(116,53,l),
(217,243,l),
(435,243,l),
(461,50,l),
(374,40,l),
(366,0,l),
(631,0,l),
(639,40,l),
(551,51,l),
(463,670,l),
(405,670,l),
(62,52,l),
(-21,40,l)
);
},
{
closed = 1;
nodes = (
(241,289,l),
(391,572,l),
(429,289,l)
);
},
{
closed = 1;
nodes = (
(413,746,o),
(394,769,o),
(394,799,cs),
(394,836,o),
(422,865,o),
(457,865,cs),
(491,865,o),
(505,840,o),
(505,813,cs),
(505,778,o),
(482,746,o),
(446,746,cs)
);
},
{
closed = 1;
nodes = (
(494,713,o),
(546,752,o),
(546,816,cs),
(546,868,o),
(509,898,o),
(458,898,cs),
(408,898,o),
(353,861,o),
(353,795,cs),
(353,744,o),
(394,713,o),
(442,713,cs)
);
}
);
width = 676;
}
);
note = Aring;
unicode = 197;
},
{
glyphname = Aogonek;
kernLeft = A;
kernRight = A;
layers = (
{
anchors = (
{
name = top;
pos = (432,691);
}
);
hints = (
{
horizontal = 1;
place = (670,-20);
target = down;
type = TopGhost;
},
{
horizontal = 1;
place = (243,46);
type = Stem;
},
{
horizontal = 1;
place = (0,45.5);
type = Stem;
},
{
horizontal = 1;
place = (0,45);
type = Stem;
},
{
horizontal = 1;
place = (-240,46);
type = Stem;
},
{
place = (402,62);
type = Stem;
}
);
layerId = m01;
shapes = (
{
closed = 1;
nodes = (
(-29,0,l),
(195,0,l),
(203,40,l),
(116,53,l),
(217,243,l),
(435,243,l),
(461,50,l),
(374,40,l),
(366,0,l),
(503,0,l),
(453,-48,o),
(402,-102,o),
(402,-162,cs),
(402,-210,o),
(434,-240,o),
(491,-240,cs),
(535,-240,o),
(580,-212,o),
(606,-183,c),
(594,-166,l),
(571,-182,o),
(539,-194,o),
(514,-194,cs),
(485,-194,o),
(464,-175,o),
(464,-137,cs),
(464,-85,o),
(498,-39,o),
(537,0,c),
(631,0,l),
(639,40,l),
(551,51,l),
(463,670,l),
(405,670,l),
(62,52,l),
(-21,40,l)
);
},
{
closed = 1;
nodes = (
(241,289,l),
(391,572,l),
(429,289,l)
);
}
);
width = 676;
}
);
note = Aogonek;
unicode = 260;
},
{
glyphname = AE;
kernLeft = AE;
kernRight = E;
layers = (
{
anchors = (
{
name = top;
pos = (658,691);
}
);
hints = (
{
horizontal = 1;
place = (623.5,46.5);
type = Stem;
},
{
horizontal = 1;
place = (619,51);
type = Stem;
},
{
horizontal = 1;
place = (614,56);
type = Stem;
},
{
horizontal = 1;
place = (492,178);
type = Stem;
},
{
horizontal = 1;
place = (319,46);
type = Stem;
},
{
horizontal = 1;
place = (243,46);
type = Stem;
},
{
horizontal = 1;
place = (0,178);
type = Stem;
},
{
horizontal = 1;
place = (0,50);
type = Stem;
},
{
horizontal = 1;
place = (0,45.5);
type = Stem;
},
{
place = (821,51);
type = Stem;
},
{
place = (691.5,41.5);
type = Stem;
}
);
layerId = m01;
shapes = (
{
closed = 1;
nodes = (
(449,289,l),
(278,289,l),
(501,614,l),
(506,614,l),
(492,529,o),
(478,444,o),
(462,360,cs)
);
},
{
closed = 1;
nodes = (
(-38,0,l),
(186,0,l),
(194,40,l),
(115,52,l),
(246,243,l),
(440,243,l),
(404,51,l),
(317,40,l),
(309,0,l),
(809,0,l),
(848,178,l),
(797,178,l),
(752,50,l),
(492,50,l),
(506,137,o),
(521,224,o),
(537,310,cs),
(539,319,l),
(693,319,l),
(690,224,l),
(733,224,l),
(778,461,l),
(735,461,l),
(701,365,l),
(547,365,l),
(595,619,l),
(821,619,l),
(821,492,l),
(872,492,l),
(896,670,l),
(372,670,l),
(364,629,l),
(453,618,l),
(59,52,l),
(-30,40,l)
);
}
);
width = 880;
}
);
note = AE;
unicode = 198;
},
{
glyphname = Ccedilla;
kernLeft = C;
kernRight = C;
layers = (
{
hints = (
{
horizontal = 1;
place = (635,50);
type = Stem;
},
{
horizontal = 1;
place = (-14,49);
type = Stem;
},
{
horizontal = 1;
place = (-15,50);
type = Stem;
},
{
horizontal = 1;
place = (-231,32);
type = Stem;
},
{
place = (529,57);
type = Stem;
},
{
place = (344,57);
type = Stem;
},
{
place = (58,91);
type = Stem;
}
);
layerId = m01;
shapes = (
{
closed = 1;
nodes = (
(270,-87,l),
(317,-99,o),
(344,-115,o),
(344,-152,cs),
(344,-182,o),
(321,-199,o),
(286,-199,cs),
(261,-199,o),
(242,-193,o),
(220,-183,c),
(209,-208,l),
(230,-221,o),
(264,-231,o),
(298,-231,cs),
(362,-231,o),
(401,-197,o),
(401,-157,cs),
(401,-112,o),
(370,-91,o),
(309,-69,c),
(334,-15,l),
(415,-15,o),
(472,7,o),
(525,30,c),
(553,175,l),
(493,175,l),
(452,50,l),
(423,41,o),
(394,35,o),
(363,35,cs),
(248,35,o),
(149,117,o),
(149,285,cs),
(149,474,o),
(270,635,o),
(431,635,cs),
(464,635,o),
(499,628,o),
(529,615,c),
(529,492,l),
(586,492,l),
(609,632,l),
(547,672,o),
(493,685,o),
(440,685,cs),
(231,685,o),
(58,502,o),
(58,281,cs),
(58,112,o),
(153,-3,o),
(306,-14,c)
);
}
);
width = 593;
}
);
note = Ccedilla;
unicode = 199;
},
{
glyphname = Cacute;
kernLeft = C;
kernRight = C;
layers = (
{
hints = (
{
horizontal = 1;
place = (635,50);
type = Stem;
},
{
horizontal = 1;
place = (-15,50);
type = Stem;
},
{
place = (529,57);
type = Stem;
},
{
place = (58,91);
type = Stem;
}
);
layerId = m01;
shapes = (
{
closed = 1;
nodes = (
(415,-15,o),
(472,7,o),
(525,30,c),
(553,175,l),
(493,175,l),
(452,50,l),
(423,41,o),
(394,35,o),
(363,35,cs),
(248,35,o),
(149,117,o),
(149,285,cs),
(149,474,o),
(270,635,o),
(431,635,cs),
(464,635,o),
(499,628,o),
(529,615,c),
(529,492,l),
(586,492,l),
(609,632,l),
(547,672,o),
(493,685,o),
(440,685,cs),
(231,685,o),
(58,502,o),
(58,281,cs),
(58,103,o),
(163,-15,o),
(330,-15,cs)
);
},
{
closed = 1;
nodes = (
(411,713,l),
(461,735,o),
(512,756,o),
(562,778,cs),
(610,800,o),
(616,816,o),
(616,833,cs),
(616,854,o),
(599,867,o),
(579,867,cs),
(554,867,o),
(544,857,o),
(511,830,cs),
(473,798,o),
(436,767,o),
(398,735,c)
);
}
);
width = 593;
}
);
note = Cacute;
unicode = 262;
},
{
glyphname = Ccaron;
kernLeft = C;
kernRight = C;
layers = (
{
hints = (
{
horizontal = 1;
place = (729,52);
type = Stem;
},
{
horizontal = 1;
place = (635,50);
type = Stem;
},
{
horizontal = 1;
place = (-15,50);
type = Stem;
},
{
place = (529,57);
type = Stem;
},
{
place = (58,91);
type = Stem;
}
);
layerId = m01;
shapes = (
{
closed = 1;
nodes = (
(415,-15,o),
(472,7,o),
(525,30,c),
(553,175,l),
(493,175,l),
(452,50,l),
(423,41,o),
(394,35,o),
(363,35,cs),
(248,35,o),
(149,117,o),
(149,285,cs),
(149,474,o),
(270,635,o),
(431,635,cs),
(464,635,o),
(499,628,o),
(529,615,c),
(529,492,l),
(586,492,l),
(609,632,l),
(547,672,o),
(493,685,o),
(440,685,cs),
(231,685,o),
(58,502,o),
(58,281,cs),
(58,103,o),
(163,-15,o),
(330,-15,cs)
);
},
{
closed = 1;
nodes = (
(330,868,l),
(303,847,l),
(401,729,l),
(456,729,l),
(589,847,l),
(569,868,l),
(434,781,l)
);
}
);
width = 593;
}
);
note = Ccaron;
unicode = 268;
},
{
glyphname = Dcaron;
kernLeft = B;
kernRight = D;
layers = (
{
hints = (
{
horizontal = 1;
place = (729,52);
type = Stem;
},
{
horizontal = 1;
place = (623.5,46.5);
type = Stem;
},
{
horizontal = 1;
place = (623,47);
type = Stem;
},
{
horizontal = 1;
place = (0,46);
type = Stem;
},
{
horizontal = 1;
place = (0,45.5);
type = Stem;
},
{
place = (590,95);
type = Stem;
}
);
layerId = m01;
shapes = (
{
closed = 1;
nodes = (
(122,629,l),
(213,618,l),
(199,532,o),
(184,446,o),
(168,360,cs),
(110,51,l),
(24,40,l),
(16,0,l),
(290,0,ls),
(493,0,o),
(684,129,o),
(685,394,cs),
(685,565,o),
(575,670,o),
(404,670,cs),
(130,670,l)
);
},
{
closed = 1;
nodes = (
(302,623,l),
(363,623,ls),
(505,623,o),
(591,543,o),
(590,394,cs),
(589,228,o),
(495,46,o),
(304,46,cs),
(197,46,l),
(211,134,o),
(227,222,o),
(243,310,cs)
);
},
{
closed = 1;
nodes = (
(303,868,l),
(276,847,l),
(374,729,l),
(429,729,l),
(562,847,l),
(542,868,l),
(407,781,l)
);
}
);
width = 701;
}
);
note = Dcaron;
unicode = 270;
},
{
glyphname = Dcroat;
kernLeft = B;
kernRight = D;
layers = (
{
hints = (
{
horizontal = 1;
place = (623.5,46.5);
type = Stem;
},
{
horizontal = 1;
place = (623,47);
type = Stem;
},
{
horizontal = 1;
place = (320,46);
type = Stem;
},
{
horizontal = 1;
place = (0,46);
type = Stem;
},
{
horizontal = 1;
place = (0,45.5);
type = Stem;
},
{
place = (590,95);
type = Stem;
}
);
layerId = m01;
shapes = (
{
closed = 1;
nodes = (
(122,629,l),
(213,618,l),
(199,534,o),
(184,450,o),
(169,366,c),
(66,366,l),
(58,320,l),
(160,320,l),
(110,51,l),
(24,40,l),
(16,0,l),
(290,0,ls),
(493,0,o),
(684,129,o),
(685,394,cs),
(685,565,o),
(575,670,o),
(404,670,cs),
(130,670,l)
);
},
{
closed = 1;
nodes = (
(398,320,l),
(406,366,l),
(254,366,l),
(302,623,l),
(363,623,ls),
(505,623,o),
(591,543,o),
(590,394,cs),
(589,228,o),
(495,46,o),
(304,46,cs),
(197,46,l),
(211,134,o),
(227,222,o),
(243,310,cs),
(245,320,l)
);
}
);
width = 701;
}
);
note = Dcroat;
unicode = 272;
},
{
glyphname = Egrave;
kernLeft = B;
kernRight = E;
layers = (
{
hints = (
{
horizontal = 1;
place = (623.5,46.5);
type = Stem;
},
{
horizontal = 1;
place = (619,51);
type = Stem;
},
{
horizontal = 1;
place = (492,178);
type = Stem;
},
{
horizontal = 1;
place = (319,46);
type = Stem;
},
{
horizontal = 1;
place = (0,178);
type = Stem;
},
{
horizontal = 1;
place = (0,50);
type = Stem;
},
{
horizontal = 1;
place = (0,45.5);
type = Stem;
},
{
place = (518,50);
type = Stem;
},
{
place = (398.5,40.5);
type = Stem;
}
);
layerId = m01;
shapes = (
{
closed = 1;
nodes = (
(122,629,l),
(213,618,l),
(199,532,o),
(184,446,o),
(168,360,cs),
(110,51,l),
(24,40,l),
(16,0,l),
(515,0,l),
(554,178,l),
(503,178,l),
(458,50,l),
(198,50,l),
(212,137,o),
(227,224,o),
(243,310,cs),
(245,319,l),
(400,319,l),
(397,224,l),
(439,224,l),
(484,461,l),
(442,461,l),
(408,365,l),
(253,365,l),
(301,619,l),
(518,619,l),
(518,492,l),
(568,492,l),
(592,670,l),
(130,670,l)
);
},
{
closed = 1;
nodes = (
(437,746,l),
(407,777,o),
(376,808,o),
(344,839,cs),
(316,867,o),
(299,877,o),
(282,877,cs),
(261,877,o),
(244,864,o),
(244,844,cs),
(244,826,o),
(257,808,o),
(294,788,cs),
(335,766,o),
(377,743,o),
(419,721,c)
);
}
);
width = 587;
}
);
note = Egrave;
unicode = 200;
},
{
glyphname = Eacute;
kernLeft = B;
kernRight = E;
layers = (
{
hints = (
{
horizontal = 1;
place = (623.5,46.5);
type = Stem;
},
{
horizontal = 1;
place = (619,51);
type = Stem;
},
{
horizontal = 1;
place = (492,178);
type = Stem;
},
{
horizontal = 1;
place = (319,46);
type = Stem;
},
{
horizontal = 1;
place = (0,178);
type = Stem;
},
{
horizontal = 1;
place = (0,50);
type = Stem;
},
{
horizontal = 1;
place = (0,45.5);
type = Stem;
},
{
place = (518,50);
type = Stem;
},
{
place = (398.5,40.5);
type = Stem;
}
);
layerId = m01;
shapes = (
{
closed = 1;
nodes = (
(122,629,l),
(213,618,l),
(199,532,o),
(184,446,o),
(168,360,cs),
(110,51,l),
(24,40,l),
(16,0,l),
(515,0,l),
(554,178,l),
(503,178,l),
(458,50,l),
(198,50,l),
(212,137,o),
(227,224,o),
(243,310,cs),
(245,319,l),
(400,319,l),
(397,224,l),
(439,224,l),
(484,461,l),
(442,461,l),
(408,365,l),
(253,365,l),
(301,619,l),
(518,619,l),
(518,492,l),
(568,492,l),
(592,670,l),
(130,670,l)
);
},
{
closed = 1;
nodes = (
(382,713,l),
(432,735,o),
(483,756,o),
(533,778,cs),
(581,800,o),
(587,816,o),
(587,833,cs),
(587,854,o),
(570,867,o),
(550,867,cs),
(525,867,o),
(515,857,o),
(482,830,cs),
(444,798,o),
(407,767,o),
(369,735,c)
);
}
);
width = 587;
}
);
note = Eacute;
unicode = 201;
},
{
glyphname = Ecircumflex;
kernLeft = B;
kernRight = E;
layers = (
{
hints = (
{
horizontal = 1;
place = (623.5,46.5);
type = Stem;
},
{
horizontal = 1;
place = (619,51);
type = Stem;
},
{
horizontal = 1;
place = (492,178);
type = Stem;
},
{
horizontal = 1;
place = (319,46);
type = Stem;
},
{
horizontal = 1;
place = (0,178);
type = Stem;
},
{
horizontal = 1;
place = (0,50);
type = Stem;
},
{
horizontal = 1;
place = (0,45.5);
type = Stem;
},
{
place = (518,50);
type = Stem;
},
{
place = (398.5,40.5);
type = Stem;
}
);
layerId = m01;
shapes = (
{
closed = 1;
nodes = (
(122,629,l),
(213,618,l),
(199,532,o),
(184,446,o),
(168,360,cs),
(110,51,l),
(24,40,l),
(16,0,l),
(515,0,l),
(554,178,l),
(503,178,l),
(458,50,l),
(198,50,l),
(212,137,o),
(227,224,o),
(243,310,cs),
(245,319,l),
(400,319,l),
(397,224,l),
(439,224,l),
(484,461,l),
(442,461,l),
(408,365,l),
(253,365,l),
(301,619,l),
(518,619,l),
(518,492,l),
(568,492,l),
(592,670,l),
(130,670,l)
);
},
{
closed = 1;
nodes = (
(430,861,l),
(398,861,l),
(246,741,l),
(260,717,l),
(404,799,l),
(525,717,l),
(549,741,l)
);
}
);
width = 587;
}
);
note = Ecircumflex;
unicode = 202;
},
{
glyphname = Ecaron;
kernLeft = B;
kernRight = E;
layers = (
{
hints = (
{
horizontal = 1;
place = (729,52);
type = Stem;
},
{
horizontal = 1;
place = (623.5,46.5);
type = Stem;
},
{
horizontal = 1;
place = (619,51);
type = Stem;
},
{
horizontal = 1;
place = (492,178);
type = Stem;
},
{
horizontal = 1;
place = (319,46);
type = Stem;
},
{
horizontal = 1;
place = (0,178);
type = Stem;
},
{
horizontal = 1;
place = (0,50);
type = Stem;
},
{
horizontal = 1;
place = (0,45.5);
type = Stem;
},
{
place = (518,50);
type = Stem;
},
{
place = (398.5,40.5);
type = Stem;
}
);
layerId = m01;
shapes = (
{
closed = 1;
nodes = (
(122,629,l),
(213,618,l),
(199,532,o),
(184,446,o),
(168,360,cs),
(110,51,l),
(24,40,l),
(16,0,l),
(515,0,l),
(554,178,l),
(503,178,l),
(458,50,l),
(198,50,l),
(212,137,o),
(227,224,o),
(243,310,cs),
(245,319,l),
(400,319,l),
(397,224,l),
(439,224,l),
(484,461,l),
(442,461,l),
(408,365,l),
(253,365,l),
(301,619,l),
(518,619,l),
(518,492,l),
(568,492,l),
(592,670,l),
(130,670,l)
);
},
{
closed = 1;
nodes = (
(315,868,l),
(288,847,l),
(386,729,l),
(441,729,l),
(574,847,l),
(554,868,l),
(419,781,l)
);
}
);
width = 587;
}
);
note = Ecaron;
unicode = 282;
},
{
glyphname = Edieresis;
kernLeft = B;
kernRight = E;
layers = (
{
hints = (
{
horizontal = 1;
place = (748,103);
type = Stem;
},
{
horizontal = 1;
place = (623.5,46.5);
type = Stem;
},
{
horizontal = 1;
place = (619,51);
type = Stem;
},
{
horizontal = 1;
place = (492,178);
type = Stem;
},
{
horizontal = 1;
place = (319,46);
type = Stem;
},
{
horizontal = 1;
place = (0,178);
type = Stem;
},
{
horizontal = 1;
place = (0,50);
type = Stem;
},
{
horizontal = 1;
place = (0,45.5);
type = Stem;
},
{
place = (518,50);
type = Stem;
},
{
place = (470,100);
type = Stem;
},
{
place = (398.5,40.5);
type = Stem;
},
{
place = (249,101);
type = Stem;
}
);
layerId = m01;
shapes = (
{
closed = 1;
nodes = (
(122,629,l),
(213,618,l),
(199,532,o),
(184,446,o),
(168,360,cs),
(110,51,l),
(24,40,l),
(16,0,l),
(515,0,l),
(554,178,l),
(503,178,l),
(458,50,l),
(198,50,l),
(212,137,o),
(227,224,o),
(243,310,cs),
(245,319,l),
(400,319,l),
(397,224,l),
(439,224,l),
(484,461,l),
(442,461,l),
(408,365,l),
(253,365,l),
(301,619,l),
(518,619,l),
(518,492,l),
(568,492,l),
(592,670,l),
(130,670,l)
);
},
{
closed = 1;
nodes = (
(325,748,o),
(350,772,o),
(350,807,cs),
(350,832,o),
(331,851,o),
(305,851,cs),
(277,851,o),
(249,828,o),
(249,793,cs),
(249,765,o),
(271,748,o),
(295,748,cs)
);
},
{
closed = 1;
nodes = (
(544,748,o),
(570,772,o),
(570,807,cs),
(570,832,o),
(550,851,o),
(524,851,cs),
(496,851,o),
(470,828,o),
(470,793,cs),
(470,765,o),
(491,748,o),
(513,748,cs)
);
}
);
width = 587;
}
);
note = Edieresis;
unicode = 203;
},
{
glyphname = Emacron;
kernLeft = B;
kernRight = E;
layers = (
{
hints = (
{
horizontal = 1;
place = (759,58);
type = Stem;
},
{
horizontal = 1;
place = (623.5,46.5);
type = Stem;
},
{
horizontal = 1;
place = (619,51);
type = Stem;
},
{
horizontal = 1;
place = (492,178);
type = Stem;
},
{
horizontal = 1;
place = (319,46);
type = Stem;
},
{
horizontal = 1;
place = (0,178);
type = Stem;
},
{
horizontal = 1;
place = (0,50);
type = Stem;
},
{
horizontal = 1;
place = (0,45.5);
type = Stem;
},
{
place = (518,50);
type = Stem;
},
{
place = (398.5,40.5);
type = Stem;
}
);
layerId = m01;
shapes = (
{
closed = 1;
nodes = (
(122,629,l),
(213,618,l),
(199,532,o),
(184,446,o),
(168,360,cs),
(110,51,l),
(24,40,l),
(16,0,l),
(515,0,l),
(554,178,l),
(503,178,l),
(458,50,l),
(198,50,l),
(212,137,o),
(227,224,o),
(243,310,cs),
(245,319,l),
(400,319,l),
(397,224,l),
(439,224,l),
(484,461,l),
(442,461,l),
(408,365,l),
(253,365,l),
(301,619,l),
(518,619,l),
(518,492,l),
(568,492,l),
(592,670,l),
(130,670,l)
);
},
{
closed = 1;
nodes = (
(253,759,l),
(553,759,l),
(564,817,l),
(264,817,l)
);
}
);
width = 587;
}
);
note = Emacron;
unicode = 274;
},
{
glyphname = Edotaccent;
kernLeft = B;
kernRight = E;
layers = (
{
hints = (
{
horizontal = 1;
place = (730,120);
type = Stem;
},
{
horizontal = 1;
place = (623.5,46.5);
type = Stem;
},
{
horizontal = 1;
place = (619,51);
type = Stem;
},
{
horizontal = 1;
place = (492,178);
type = Stem;
},
{
horizontal = 1;
place = (319,46);
type = Stem;
},
{
horizontal = 1;
place = (0,178);
type = Stem;
},
{
horizontal = 1;
place = (0,50);
type = Stem;
},
{
horizontal = 1;
place = (0,45.5);
type = Stem;
},
{
place = (518,50);
type = Stem;
},
{
place = (398.5,40.5);
type = Stem;
},
{
place = (362,112);
type = Stem;
}
);
layerId = m01;
shapes = (
{
closed = 1;
nodes = (
(122,629,l),
(213,618,l),
(199,532,o),
(184,446,o),
(168,360,cs),
(110,51,l),
(24,40,l),
(16,0,l),
(515,0,l),
(554,178,l),
(503,178,l),
(458,50,l),
(198,50,l),
(212,137,o),
(227,224,o),
(243,310,cs),
(245,319,l),
(400,319,l),
(397,224,l),
(439,224,l),
(484,461,l),
(442,461,l),
(408,365,l),
(253,365,l),
(301,619,l),
(518,619,l),
(518,492,l),
(568,492,l),
(592,670,l),
(130,670,l)
);
},
{
closed = 1;
nodes = (
(446,730,o),
(474,761,o),
(474,794,cs),
(474,828,o),
(452,850,o),
(420,850,cs),
(390,850,o),
(362,821,o),
(362,786,cs),
(362,752,o),
(384,730,o),
(416,730,cs)
);
}
);
width = 587;
}
);
note = Edotaccent;
unicode = 278;
},
{
glyphname = Eogonek;
kernLeft = B;
kernRight = E;
layers = (
{
anchors = (
{
name = top;
pos = (397,691);
}
);
hints = (
{
horizontal = 1;
place = (623.5,46.5);
type = Stem;
},
{
horizontal = 1;
place = (619,51);
type = Stem;
},
{
horizontal = 1;
place = (492,178);
type = Stem;
},
{
horizontal = 1;
place = (319,46);
type = Stem;
},
{
horizontal = 1;
place = (0,50);
type = Stem;
},
{
horizontal = 1;
place = (0,45.5);
type = Stem;
},
{
horizontal = 1;
place = (-240,46);
type = Stem;
},
{
place = (518,50);
type = Stem;
},
{
place = (398.5,40.5);
type = Stem;
},
{
place = (294,62);
type = Stem;
}
);
layerId = m01;
shapes = (
{
closed = 1;
nodes = (
(122,629,l),
(213,618,l),
(199,532,o),
(184,446,o),
(168,360,cs),
(110,51,l),
(24,40,l),
(16,0,l),
(395,0,l),
(345,-48,o),
(294,-102,o),
(294,-162,cs),
(294,-210,o),
(326,-240,o),
(383,-240,cs),
(427,-240,o),
(472,-212,o),
(498,-183,c),
(486,-166,l),
(463,-182,o),
(431,-194,o),
(406,-194,cs),
(377,-194,o),
(356,-175,o),
(356,-137,cs),
(356,-85,o),
(390,-39,o),
(429,0,c),
(515,0,l),
(554,178,l),
(503,178,l),
(458,50,l),
(198,50,l),
(212,137,o),
(227,224,o),
(243,310,cs),
(245,319,l),
(400,319,l),
(397,224,l),
(439,224,l),
(484,461,l),
(442,461,l),
(408,365,l),
(253,365,l),
(301,619,l),
(518,619,l),
(518,492,l),
(568,492,l),
(592,670,l),
(130,670,l)
);
}
);
width = 587;
}
);
note = Eogonek;
unicode = 280;
},
{
glyphname = Gbreve;
kernLeft = C;
kernRight = G;
layers = (
{
hints = (
{
horizontal = 1;
place = (731,59);
type = Stem;
},
{
horizontal = 1;
place = (635,50);
type = Stem;
},
{
horizontal = 1;
place = (273.5,44.5);
type = Stem;
},
{
horizontal = 1;
place = (272,46);
type = Stem;
},
{
horizontal = 1;
place = (-15,50);
type = Stem;
},
{
place = (549,56);
type = Stem;
},
{
place = (58,91);
type = Stem;
}
);
layerId = m01;
shapes = (
{
closed = 1;
nodes = (
(58,104,o),
(167,-15,o),
(347,-15,cs),
(422,-15,o),
(483,2,o),
(545,30,c),
(589,269,l),
(661,278,l),
(668,318,l),
(408,318,l),
(401,278,l),
(501,266,l),
(491,207,o),
(482,148,o),
(471,90,cs),
(463,48,l),
(434,39,o),
(404,35,o),
(373,35,cs),
(258,35,o),
(149,121,o),
(149,283,cs),
(149,474,o),
(265,635,o),
(440,635,cs),
(476,635,o),
(516,628,o),
(549,615,c),
(549,492,l),
(605,492,l),
(628,632,l),
(564,674,o),
(514,685,o),
(440,685,cs),
(235,685,o),
(58,513,o),
(58,277,cs)
);
},
{
closed = 1;
nodes = (
(539,731,o),
(597,799,o),
(617,858,c),
(587,870,l),
(561,825,o),
(519,790,o),
(465,790,cs),
(410,790,o),
(369,822,o),
(350,869,c),
(322,855,l),
(336,780,o),
(381,731,o),
(454,731,cs)
);
}
);
width = 655;
}
);
note = Gbreve;
unicode = 286;
},
{
glyphname = Gdotaccent;
kernLeft = C;
kernRight = G;
layers = (
{
hints = (
{
horizontal = 1;
place = (730,120);
type = Stem;
},
{
horizontal = 1;
place = (635,50);
type = Stem;
},
{
horizontal = 1;
place = (273.5,44.5);
type = Stem;
},
{
horizontal = 1;
place = (272,46);
type = Stem;
},
{
horizontal = 1;
place = (-15,50);
type = Stem;
},
{
place = (549,56);
type = Stem;
},
{
place = (405,112);
type = Stem;
},
{
place = (58,91);
type = Stem;
}
);
layerId = m01;
shapes = (
{
closed = 1;
nodes = (
(58,104,o),
(167,-15,o),
(347,-15,cs),
(422,-15,o),
(483,2,o),
(545,30,c),
(589,269,l),
(661,278,l),
(668,318,l),
(408,318,l),
(401,278,l),
(501,266,l),
(491,207,o),
(482,148,o),
(471,90,cs),
(463,48,l),
(434,39,o),
(404,35,o),
(373,35,cs),
(258,35,o),
(149,121,o),
(149,283,cs),
(149,474,o),
(265,635,o),
(440,635,cs),
(476,635,o),
(516,628,o),
(549,615,c),
(549,492,l),
(605,492,l),
(628,632,l),
(564,674,o),
(514,685,o),
(440,685,cs),
(235,685,o),
(58,513,o),
(58,277,cs)
);
},
{
closed = 1;
nodes = (
(489,730,o),
(517,761,o),
(517,794,cs),
(517,828,o),
(495,850,o),
(463,850,cs),
(433,850,o),
(405,821,o),
(405,786,cs),
(405,752,o),
(427,730,o),
(459,730,cs)
);
}
);
width = 655;
}
);
note = Gdotaccent;
unicode = 288;
},
{
glyphname = uni0122;
kernLeft = C;
kernRight = G;
layers = (
{
hints = (
{
horizontal = 1;
place = (635,50);
type = Stem;
},
{
horizontal = 1;
place = (273.5,44.5);
type = Stem;
},
{
horizontal = 1;
place = (272,46);
type = Stem;
},
{
horizontal = 1;
place = (-15,50);
type = Stem;
},
{
place = (549,56);
type = Stem;
},
{
place = (273,96);
type = Stem;
},
{
place = (58,91);
type = Stem;
}
);
layerId = m01;
shapes = (
{
closed = 1;
nodes = (
(58,104,o),
(167,-15,o),
(347,-15,cs),
(422,-15,o),
(483,2,o),
(545,30,c),
(589,269,l),
(661,278,l),
(668,318,l),
(408,318,l),
(401,278,l),
(501,266,l),
(491,207,o),
(482,148,o),
(471,90,cs),
(463,48,l),
(434,39,o),
(404,35,o),
(373,35,cs),
(258,35,o),
(149,121,o),
(149,283,cs),
(149,474,o),
(265,635,o),
(440,635,cs),
(476,635,o),
(516,628,o),
(549,615,c),
(549,492,l),
(605,492,l),
(628,632,l),
(564,674,o),
(514,685,o),
(440,685,cs),
(235,685,o),
(58,513,o),
(58,277,cs)
);
},
{
closed = 1;
nodes = (
(262,-250,l),
(326,-214,o),
(369,-184,o),
(369,-117,cs),
(369,-105,o),
(367,-93,o),
(359,-73,c),
(346,-61,o),
(332,-55,o),
(318,-55,cs),
(293,-55,o),
(273,-72,o),
(273,-98,cs),
(273,-124,o),
(289,-145,o),
(316,-161,c),
(298,-190,o),
(279,-205,o),
(246,-227,c)
);
}
);
width = 655;
}
);
note = uni0122;
unicode = 290;
},
{
glyphname = Igrave;
kernLeft = B;
kernRight = H;
layers = (
{
hints = (
{
horizontal = 1;
place = (624,46);
type = Stem;
},
{
horizontal = 1;
place = (623.5,46.5);
type = Stem;
},
{
horizontal = 1;
place = (0,45.5);
type = Stem;
},
{
horizontal = 1;
place = (0,45);
type = Stem;
},
{
place = (16,379);
type = Stem;
}
);
layerId = m01;
shapes = (
{
closed = 1;
nodes = (
(122,629,l),
(213,618,l),
(199,532,o),
(184,446,o),
(168,360,cs),
(109,50,l),
(24,40,l),
(16,0,l),
(281,0,l),
(289,40,l),
(198,51,l),
(212,137,o),
(227,224,o),
(243,310,cs),
(301,619,l),
(387,629,l),
(395,670,l),
(130,670,l)
);
},
{
closed = 1;
nodes = (
(320,746,l),
(290,777,o),
(259,808,o),
(227,839,cs),
(199,867,o),
(182,877,o),
(165,877,cs),
(144,877,o),
(127,864,o),
(127,844,cs),
(127,826,o),
(140,808,o),
(177,788,cs),
(218,766,o),
(260,743,o),
(302,721,c)
);
}
);
width = 358;
}
);
note = Igrave;
unicode = 204;
},
{
glyphname = Iacute;
kernLeft = B;
kernRight = H;
layers = (
{
hints = (
{
horizontal = 1;
place = (624,46);
type = Stem;
},
{
horizontal = 1;
place = (623.5,46.5);
type = Stem;
},
{
horizontal = 1;
place = (0,45.5);
type = Stem;
},
{
horizontal = 1;
place = (0,45);
type = Stem;
},
{
place = (16,426);
type = Stem;
}
);
layerId = m01;
shapes = (
{
closed = 1;
nodes = (
(122,629,l),
(213,618,l),
(199,532,o),
(184,446,o),
(168,360,cs),
(109,50,l),
(24,40,l),
(16,0,l),
(281,0,l),
(289,40,l),
(198,51,l),
(212,137,o),
(227,224,o),
(243,310,cs),
(301,619,l),
(387,629,l),
(395,670,l),
(130,670,l)
);
},
{
closed = 1;
nodes = (
(237,713,l),
(287,735,o),
(338,756,o),
(388,778,cs),
(436,800,o),
(442,816,o),
(442,833,cs),
(442,854,o),
(425,867,o),
(405,867,cs),
(380,867,o),
(370,857,o),
(337,830,cs),
(299,798,o),
(262,767,o),
(224,735,c)
);
}
);
width = 358;
}
);
note = Iacute;
unicode = 205;
},
{
glyphname = Icircumflex;
kernLeft = B;
kernRight = H;
layers = (
{
hints = (
{
horizontal = 1;
place = (624,46);
type = Stem;
},
{
horizontal = 1;
place = (623.5,46.5);
type = Stem;
},
{
horizontal = 1;
place = (0,45.5);
type = Stem;
},
{
horizontal = 1;
place = (0,45);
type = Stem;
},
{
place = (16,414);
type = Stem;
}
);
layerId = m01;
shapes = (
{
closed = 1;
nodes = (
(122,629,l),
(213,618,l),
(199,532,o),
(184,446,o),
(168,360,cs),
(109,50,l),
(24,40,l),
(16,0,l),
(281,0,l),
(289,40,l),
(198,51,l),
(212,137,o),
(227,224,o),
(243,310,cs),
(301,619,l),
(387,629,l),
(395,670,l),
(130,670,l)
);
},
{
closed = 1;
nodes = (
(311,861,l),
(279,861,l),
(127,741,l),
(141,717,l),
(285,799,l),
(406,717,l),
(430,741,l)
);
}
);
width = 358;
}
);
note = Icircumflex;
unicode = 206;
},
{
glyphname = Idieresis;
kernLeft = B;
kernRight = H;
layers = (
{
hints = (
{
horizontal = 1;
place = (748,103);
type = Stem;
},
{
horizontal = 1;
place = (624,46);
type = Stem;
},
{
horizontal = 1;
place = (623.5,46.5);
type = Stem;
},
{
horizontal = 1;
place = (0,45.5);
type = Stem;
},
{
horizontal = 1;
place = (0,45);
type = Stem;
},
{
place = (344,100);
type = Stem;
},
{
place = (123,101);
type = Stem;
}
);
layerId = m01;
shapes = (
{
closed = 1;
nodes = (
(122,629,l),
(213,618,l),
(199,532,o),
(184,446,o),
(168,360,cs),
(109,50,l),
(24,40,l),
(16,0,l),
(281,0,l),
(289,40,l),
(198,51,l),
(212,137,o),
(227,224,o),
(243,310,cs),
(301,619,l),
(387,629,l),
(395,670,l),
(130,670,l)
);
},
{
closed = 1;
nodes = (
(199,748,o),
(224,772,o),
(224,807,cs),
(224,832,o),
(205,851,o),
(179,851,cs),
(151,851,o),
(123,828,o),
(123,793,cs),
(123,765,o),
(145,748,o),
(169,748,cs)
);
},
{
closed = 1;
nodes = (
(418,748,o),
(444,772,o),
(444,807,cs),
(444,832,o),
(424,851,o),
(398,851,cs),
(370,851,o),
(344,828,o),
(344,793,cs),
(344,765,o),
(365,748,o),
(387,748,cs)
);
}
);
width = 358;
}
);
note = Idieresis;
unicode = 207;
},
{
glyphname = Imacron;
kernLeft = B;
kernRight = H;
layers = (
{
hints = (
{
horizontal = 1;
place = (759,58);
type = Stem;
},
{
horizontal = 1;
place = (624,46);
type = Stem;
},
{
horizontal = 1;
place = (623.5,46.5);
type = Stem;
},
{
horizontal = 1;
place = (0,45.5);
type = Stem;
},
{
horizontal = 1;
place = (0,45);
type = Stem;
},
{
place = (16,423);
type = Stem;
}
);
layerId = m01;
shapes = (
{
closed = 1;
nodes = (
(122,629,l),
(213,618,l),
(199,532,o),
(184,446,o),
(168,360,cs),
(109,50,l),
(24,40,l),
(16,0,l),
(281,0,l),
(289,40,l),
(198,51,l),
(212,137,o),
(227,224,o),
(243,310,cs),
(301,619,l),
(387,629,l),
(395,670,l),
(130,670,l)
);
},
{
closed = 1;
nodes = (
(128,759,l),
(428,759,l),
(439,817,l),
(139,817,l)
);
}
);
width = 358;
}
);
note = Imacron;
unicode = 298;
},
{
glyphname = Idotaccent;
kernLeft = B;
kernRight = H;
layers = (
{
hints = (
{
horizontal = 1;
place = (730,120);
type = Stem;
},
{
horizontal = 1;
place = (624,46);
type = Stem;
},
{
horizontal = 1;
place = (623.5,46.5);
type = Stem;
},
{
horizontal = 1;
place = (0,45.5);
type = Stem;
},
{
horizontal = 1;
place = (0,45);
type = Stem;
},
{
place = (227,112);
type = Stem;
}
);
layerId = m01;
shapes = (
{
closed = 1;
nodes = (
(122,629,l),
(213,618,l),
(199,532,o),
(184,446,o),
(168,360,cs),
(109,50,l),
(24,40,l),
(16,0,l),
(281,0,l),
(289,40,l),
(198,51,l),
(212,137,o),
(227,224,o),
(243,310,cs),
(301,619,l),
(387,629,l),
(395,670,l),
(130,670,l)
);
},
{
closed = 1;
nodes = (
(311,730,o),
(339,761,o),
(339,794,cs),
(339,828,o),
(317,850,o),
(285,850,cs),
(255,850,o),
(227,821,o),
(227,786,cs),
(227,752,o),
(249,730,o),
(281,730,cs)
);
}
);
width = 358;
}
);
note = Idotaccent;
unicode = 304;
},
{
glyphname = Iogonek;
kernLeft = B;
kernRight = H;
layers = (
{
anchors = (
{
name = top;
pos = (266,691);
}
);
hints = (
{
horizontal = 1;
place = (624,46);
type = Stem;
},
{
horizontal = 1;
place = (623.5,46.5);
type = Stem;
},
{
horizontal = 1;
place = (0,45.5);
type = Stem;
},
{
horizontal = 1;
place = (0,45);
type = Stem;
},
{
horizontal = 1;
place = (-240,46);
type = Stem;
},
{
place = (32,62);
type = Stem;
}
);
layerId = m01;
shapes = (
{
closed = 1;
nodes = (
(122,629,l),
(213,618,l),
(199,532,o),
(184,446,o),
(168,360,cs),
(109,50,l),
(24,40,l),
(16,0,l),
(133,0,l),
(83,-48,o),
(32,-102,o),
(32,-162,cs),
(32,-210,o),
(64,-240,o),
(121,-240,cs),
(165,-240,o),
(210,-212,o),
(236,-183,c),
(224,-166,l),
(201,-182,o),
(169,-194,o),
(144,-194,cs),
(115,-194,o),
(94,-175,o),
(94,-137,cs),
(94,-85,o),
(128,-39,o),
(167,0,c),
(281,0,l),
(289,40,l),
(198,51,l),
(212,137,o),
(227,224,o),
(243,310,cs),
(301,619,l),
(387,629,l),
(395,670,l),
(130,670,l)
);
}
);
width = 358;
}
);
note = Iogonek;
unicode = 302;
},
{
glyphname = uni0136;
kernLeft = B;
kernRight = K;
layers = (
{
hints = (
{
horizontal = 1;
place = (624,46);
type = Stem;
},
{
horizontal = 1;
place = (623.5,46.5);
type = Stem;
},
{
horizontal = 1;
place = (618,52);
type = Stem;
},
{
horizontal = 1;
place = (0,45.5);
type = Stem;
},
{
horizontal = 1;
place = (0,45);
type = Stem;
},
{
place = (279,96);
type = Stem;
}
);
layerId = m01;
shapes = (
{
closed = 1;
nodes = (
(484,629,l),
(549,618,l),
(249,341,l),
(301,619,l),
(387,629,l),
(395,670,l),
(130,670,l),
(122,629,l),
(213,618,l),
(199,532,o),
(184,446,o),
(168,360,cs),
(109,50,l),
(24,40,l),
(15,0,l),
(280,0,l),
(288,40,l),
(198,51,l),
(210,127,o),
(223,202,o),
(237,277,c),
(318,351,l),
(478,50,l),
(401,40,l),
(396,0,l),
(646,0,l),
(652,40,l),
(570,51,l),
(379,407,l),
(606,616,l),
(705,629,l),
(713,670,l),
(493,670,l)
);
},
{
closed = 1;
nodes = (
(268,-250,l),
(332,-214,o),
(375,-184,o),
(375,-117,cs),
(375,-105,o),
(373,-93,o),
(365,-73,c),
(352,-61,o),
(338,-55,o),
(324,-55,cs),
(299,-55,o),
(279,-72,o),
(279,-98,cs),
(279,-124,o),
(295,-145,o),
(322,-161,c),
(304,-190,o),
(285,-205,o),
(252,-227,c)
);
}
);
width = 663;
}
);
note = uni0136;
unicode = 310;
},
{
glyphname = Lacute;
kernLeft = B;
kernRight = L;
layers = (
{
hints = (
{
horizontal = 1;
place = (623.5,46.5);
type = Stem;
},
{
horizontal = 1;
place = (623,47);
type = Stem;
},
{
horizontal = 1;
place = (0,188);
type = Stem;
},
{
horizontal = 1;
place = (0,50);
type = Stem;
},
{
horizontal = 1;
place = (0,45.5);
type = Stem;
},
{
place = (16,541);
type = Stem;
}
);
layerId = m01;
shapes = (
{
closed = 1;
nodes = (
(122,629,l),
(213,618,l),
(199,532,o),
(184,446,o),
(168,360,cs),
(110,51,l),
(24,40,l),
(16,0,l),
(521,0,l),
(557,188,l),
(501,188,l),
(453,50,l),
(198,50,l),
(212,137,o),
(227,224,o),
(243,310,cs),
(301,617,l),
(397,629,l),
(405,670,l),
(130,670,l)
);
},
{
closed = 1;
nodes = (
(300,713,l),
(350,735,o),
(401,756,o),
(451,778,cs),
(499,800,o),
(505,816,o),
(505,833,cs),
(505,854,o),
(488,867,o),
(468,867,cs),
(443,867,o),
(433,857,o),
(400,830,cs),
(362,798,o),
(325,767,o),
(287,735,c)
);
}
);
width = 568;
}
);
note = Lacute;
unicode = 313;
},
{
glyphname = Lcaron;
kernLeft = B;
kernRight = L;
layers = (
{
hints = (
{
horizontal = 1;
place = (623.5,46.5);
type = Stem;
},
{
horizontal = 1;
place = (623,47);
type = Stem;
},
{
horizontal = 1;
place = (0,188);
type = Stem;
},
{
horizontal = 1;
place = (0,50);
type = Stem;
},
{
horizontal = 1;
place = (0,45.5);
type = Stem;
},
{
place = (16,589);
type = Stem;
}
);
layerId = m01;
shapes = (
{
closed = 1;
nodes = (
(555,738,o),
(544,736,o),
(529,730,c),
(486,512,l),
(517,509,l),
(550,571,ls),
(574,616,o),
(605,675,o),
(605,708,cs),
(605,721,o),
(601,738,o),
(571,738,cs)
);
},
{
closed = 1;
nodes = (
(122,629,l),
(213,618,l),
(199,532,o),
(184,446,o),
(168,360,cs),
(110,51,l),
(24,40,l),
(16,0,l),
(521,0,l),
(557,188,l),
(501,188,l),
(453,50,l),
(198,50,l),
(212,137,o),
(227,224,o),
(243,310,cs),
(301,617,l),
(397,629,l),
(405,670,l),
(130,670,l)
);
}
);
width = 568;
}
);
note = Lcaron;
unicode = 317;
},
{
glyphname = uni013B;
kernLeft = B;
kernRight = L;
layers = (
{
hints = (
{
horizontal = 1;
place = (623.5,46.5);
type = Stem;
},
{
horizontal = 1;
place = (623,47);
type = Stem;
},
{
horizontal = 1;
place = (0,188);
type = Stem;
},
{
horizontal = 1;
place = (0,50);
type = Stem;
},
{
horizontal = 1;
place = (0,45.5);
type = Stem;
},
{
place = (242,96);
type = Stem;
}
);
layerId = m01;
shapes = (
{
closed = 1;
nodes = (
(231,-250,l),
(295,-214,o),
(338,-184,o),
(338,-117,cs),
(338,-105,o),
(336,-93,o),
(328,-73,c),
(315,-61,o),
(301,-55,o),
(287,-55,cs),
(262,-55,o),
(242,-72,o),
(242,-98,cs),
(242,-124,o),
(258,-145,o),
(285,-161,c),
(267,-190,o),
(248,-205,o),
(215,-227,c)
);
},
{
closed = 1;
nodes = (
(16,0,l),
(521,0,l),
(557,188,l),
(501,188,l),
(453,50,l),
(198,50,l),
(212,137,o),
(227,224,o),
(243,310,cs),
(301,617,l),
(397,629,l),
(405,670,l),
(130,670,l),
(122,629,l),
(213,618,l),
(199,532,o),
(184,446,o),
(168,360,cs),
(110,51,l),
(24,40,l)
);
}
);
width = 568;
}
);
note = uni013B;
unicode = 315;
},
{
glyphname = Ldot;
kernLeft = B;
layers = (
{
hints = (
{
horizontal = 1;
place = (623.5,46.5);
type = Stem;
},
{
horizontal = 1;
place = (623,47);
type = Stem;
},
{
horizontal = 1;
place = (309,126);
type = Stem;
},
{
horizontal = 1;
place = (0,188);
type = Stem;
},
{
horizontal = 1;
place = (0,50);
type = Stem;
},
{
horizontal = 1;
place = (0,45.5);
type = Stem;
},
{
place = (423,129);
type = Stem;
}
);
layerId = m01;
shapes = (
{
closed = 1;
nodes = (
(122,629,l),
(213,618,l),
(199,532,o),
(184,446,o),
(168,360,cs),
(110,51,l),
(24,40,l),
(16,0,l),
(521,0,l),
(557,188,l),
(501,188,l),
(453,50,l),
(198,50,l),
(212,137,o),
(227,224,o),
(243,310,cs),
(301,617,l),
(397,629,l),
(405,670,l),
(130,670,l)
);
},
{
closed = 1;
nodes = (
(521,309,o),
(552,338,o),
(552,378,cs),
(552,409,o),
(529,435,o),
(494,435,cs),
(456,435,o),
(423,406,o),
(423,366,cs),
(423,333,o),
(448,309,o),
(482,309,cs)
);
}
);
width = 568;
}
);
note = Ldot;
unicode = 319;
},
{
glyphname = Lslash;
kernLeft = B;
kernRight = L;
layers = (
{
hints = (
{
horizontal = 1;
place = (623.5,46.5);
type = Stem;
},
{
horizontal = 1;
place = (623,47);
type = Stem;
},
{
horizontal = 1;
place = (0,188);
type = Stem;
},
{
horizontal = 1;
place = (0,50);
type = Stem;
},
{
horizontal = 1;
place = (0,45.5);
type = Stem;
},
{
place = (16,541);
type = Stem;
}
);
layerId = m01;
shapes = (
{
closed = 1;
nodes = (
(122,629,l),
(213,618,l),
(199,532,o),
(184,446,o),
(168,360,cs),
(164,341,l),
(48,281,l),
(37,226,l),
(154,286,l),
(110,51,l),
(24,40,l),
(16,0,l),
(521,0,l),
(557,188,l),
(501,188,l),
(453,50,l),
(198,50,l),
(212,137,o),
(227,224,o),
(243,310,cs),
(247,329,l),
(424,420,l),
(435,476,l),
(257,383,l),
(301,617,l),
(397,629,l),
(405,670,l),
(130,670,l)
);
}
);
width = 568;
}
);
note = Lslash;
unicode = 321;
},
{
glyphname = Nacute;
kernLeft = M;
kernRight = N;
layers = (
{
hints = (
{
horizontal = 1;
place = (629,41);
type = Stem;
},
{
horizontal = 1;
place = (624,46);
type = Stem;
},
{
horizontal = 1;
place = (0,40);
type = Stem;
},
{
horizontal = 1;
place = (-10,21);
target = up;
type = BottomGhost;
},
{
place = (9,783);
type = Stem;
}
);
layerId = m01;
shapes = (
{
closed = 1;
nodes = (
(548,629,l),
(655,616,l),
(569,146,l),
(278,670,l),
(125,670,l),
(116,629,l),
(201,619,l),
(205,612,l),
(100,52,l),
(18,40,l),
(9,0,l),
(242,0,l),
(248,40,l),
(148,53,l),
(242,547,l),
(557,-10,l),
(588,-10,l),
(704,616,l),
(784,629,l),
(792,670,l),
(556,670,l)
);
},
{
closed = 1;
nodes = (
(423,703,l),
(473,725,o),
(524,746,o),
(574,768,cs),
(622,790,o),
(628,806,o),
(628,823,cs),
(628,844,o),
(611,857,o),
(591,857,cs),
(566,857,o),
(556,847,o),
(523,820,cs),
(485,788,o),
(448,757,o),
(410,725,c)
);
}
);
width = 727;
}
);
note = Nacute;
unicode = 323;
},
{
glyphname = Ncaron;
kernLeft = M;
kernRight = N;
layers = (
{
hints = (
{
horizontal = 1;
place = (719,52);
type = Stem;
},
{
horizontal = 1;
place = (629,41);
type = Stem;
},
{
horizontal = 1;
place = (624,46);
type = Stem;
},
{
horizontal = 1;
place = (0,40);
type = Stem;
},
{
horizontal = 1;
place = (-10,21);
target = up;
type = BottomGhost;
},
{
place = (9,783);
type = Stem;
}
);
layerId = m01;
shapes = (
{
closed = 1;
nodes = (
(548,629,l),
(655,616,l),
(569,146,l),
(278,670,l),
(125,670,l),
(116,629,l),
(201,619,l),
(205,612,l),
(100,52,l),
(18,40,l),
(9,0,l),
(242,0,l),
(248,40,l),
(148,53,l),
(242,547,l),
(557,-10,l),
(588,-10,l),
(704,616,l),
(784,629,l),
(792,670,l),
(556,670,l)
);
},
{
closed = 1;
nodes = (
(351,858,l),
(324,837,l),
(422,719,l),
(477,719,l),
(610,837,l),
(590,858,l),
(455,771,l)
);
}
);
width = 727;
}
);
note = Ncaron;
unicode = 327;
},
{
glyphname = Ntilde;
kernLeft = M;
kernRight = N;
layers = (
{
hints = (
{
horizontal = 1;
place = (806,57);
type = Stem;
},
{
horizontal = 1;
place = (724,56);
type = Stem;
},
{
horizontal = 1;
place = (629,41);
type = Stem;
},
{
horizontal = 1;
place = (624,46);
type = Stem;
},
{
horizontal = 1;
place = (0,40);
type = Stem;
},
{
horizontal = 1;
place = (-10,21);
target = up;
type = BottomGhost;
},
{
place = (9,783);
type = Stem;
}
);
layerId = m01;
shapes = (
{
closed = 1;
nodes = (
(548,629,l),
(655,616,l),
(569,146,l),
(278,670,l),
(125,670,l),
(116,629,l),
(201,619,l),
(205,612,l),
(100,52,l),
(18,40,l),
(9,0,l),
(242,0,l),
(248,40,l),
(148,53,l),
(242,547,l),
(557,-10,l),
(588,-10,l),
(704,616,l),
(784,629,l),
(792,670,l),
(556,670,l)
);
},
{
closed = 1;
nodes = (
(326,725,l),
(352,785,o),
(377,806,o),
(410,806,cs),
(440,806,o),
(456,778,o),
(477,757,cs),
(496,740,o),
(516,724,o),
(553,724,cs),
(615,724,o),
(653,764,o),
(681,852,c),
(653,861,l),
(628,801,o),
(603,780,o),
(569,780,cs),
(539,780,o),
(524,808,o),
(502,829,cs),
(483,847,o),
(464,863,o),
(427,863,cs),
(366,863,o),
(325,822,o),
(299,735,c)
);
}
);
width = 727;
}
);
note = Ntilde;
unicode = 209;
},
{
glyphname = uni0145;
kernLeft = M;
kernRight = N;
layers = (
{
hints = (
{
horizontal = 1;
place = (629,41);
type = Stem;
},
{
horizontal = 1;
place = (624,46);
type = Stem;
},
{
horizontal = 1;
place = (0,40);
type = Stem;
},
{
horizontal = 1;
place = (-10,21);
target = up;
type = BottomGhost;
},
{
place = (298,96);
type = Stem;
}
);
layerId = m01;
shapes = (
{
closed = 1;
nodes = (
(548,629,l),
(655,616,l),
(569,146,l),
(278,670,l),
(125,670,l),
(116,629,l),
(201,619,l),
(205,612,l),
(100,52,l),
(18,40,l),
(9,0,l),
(242,0,l),
(248,40,l),
(148,53,l),
(242,547,l),
(557,-10,l),
(588,-10,l),
(704,616,l),
(784,629,l),
(792,670,l),
(556,670,l)
);
},
{
closed = 1;
nodes = (
(287,-250,l),
(351,-214,o),
(394,-184,o),
(394,-117,cs),
(394,-105,o),
(392,-93,o),
(384,-73,c),
(371,-61,o),
(357,-55,o),
(343,-55,cs),
(318,-55,o),
(298,-72,o),
(298,-98,cs),
(298,-124,o),
(314,-145,o),
(341,-161,c),
(323,-190,o),
(304,-205,o),
(271,-227,c)
);
}
);
width = 727;
}
);
note = uni0145;
unicode = 325;
},
{
glyphname = uni1E44;
kernLeft = M;
kernRight = N;
layers = (
{
hints = (
{
horizontal = 1;
place = (730,120);
type = Stem;
},
{
horizontal = 1;
place = (629,41);
type = Stem;
},
{
horizontal = 1;
place = (624,46);
type = Stem;
},
{
horizontal = 1;
place = (0,40);
type = Stem;
},
{
horizontal = 1;
place = (-10,21);
target = up;
type = BottomGhost;
},
{
place = (416,112);
type = Stem;
}
);
layerId = m01;
shapes = (
{
closed = 1;
nodes = (
(548,629,l),
(655,616,l),
(569,146,l),
(278,670,l),
(125,670,l),
(116,629,l),
(201,619,l),
(205,612,l),
(100,52,l),
(18,40,l),
(9,0,l),
(242,0,l),
(248,40,l),
(148,53,l),
(242,547,l),
(557,-10,l),
(588,-10,l),
(704,616,l),
(784,629,l),
(792,670,l),
(556,670,l)
);
},
{
closed = 1;
nodes = (
(500,730,o),
(528,761,o),
(528,794,cs),
(528,828,o),
(506,850,o),
(474,850,cs),
(444,850,o),
(416,821,o),
(416,786,cs),
(416,752,o),
(438,730,o),
(470,730,cs)
);
}
);
width = 727;
}
);
note = uni1E44;
unicode = 7748;
},
{
glyphname = Ograve;
kernLeft = C;
kernRight = O;
layers = (
{
hints = (
{
horizontal = 1;
place = (634,50);
type = Stem;
},
{
horizontal = 1;
place = (-14,50);
type = Stem;
},
{
place = (565,89);
type = Stem;
},
{
place = (66,89);
type = Stem;
}
);
layerId = m01;
shapes = (
{
closed = 1;
nodes = (
(504,-14,o),
(654,179,o),
(654,409,cs),
(654,571,o),
(561,684,o),
(415,684,cs),
(218,684,o),
(66,491,o),
(66,259,cs),
(66,90,o),
(160,-14,o),
(302,-14,cs)
);
},
{
closed = 1;
nodes = (
(205,36,o),
(155,125,o),
(155,257,cs),
(155,471,o),
(265,634,o),
(403,634,cs),
(516,634,o),
(565,547,o),
(565,411,cs),
(565,198,o),
(455,36,o),
(316,36,cs)
);
},
{
closed = 1;
nodes = (
(469,746,l),
(439,777,o),
(408,808,o),
(376,839,cs),
(348,867,o),
(331,877,o),
(314,877,cs),
(293,877,o),
(276,864,o),
(276,844,cs),
(276,826,o),
(289,808,o),
(326,788,cs),
(367,766,o),
(409,743,o),
(451,721,c)
);
}
);
width = 660;
}
);
note = Ograve;
unicode = 210;
},
{
glyphname = Oacute;
kernLeft = C;
kernRight = O;
layers = (
{
hints = (
{
horizontal = 1;
place = (634,50);
type = Stem;
},
{
horizontal = 1;
place = (-14,50);
type = Stem;
},
{
place = (565,89);
type = Stem;
},
{
place = (66,89);
type = Stem;
}
);
layerId = m01;
shapes = (
{
closed = 1;
nodes = (
(504,-14,o),
(654,179,o),
(654,409,cs),
(654,571,o),
(561,684,o),
(415,684,cs),
(218,684,o),
(66,491,o),
(66,259,cs),
(66,90,o),
(160,-14,o),
(302,-14,cs)
);
},
{
closed = 1;
nodes = (
(205,36,o),
(155,125,o),
(155,257,cs),
(155,471,o),
(265,634,o),
(403,634,cs),
(516,634,o),
(565,547,o),
(565,411,cs),
(565,198,o),
(455,36,o),
(316,36,cs)
);
},
{
closed = 1;
nodes = (
(416,713,l),
(466,735,o),
(517,756,o),
(567,778,cs),
(615,800,o),
(621,816,o),
(621,833,cs),
(621,854,o),
(604,867,o),
(584,867,cs),
(559,867,o),
(549,857,o),
(516,830,cs),
(478,798,o),
(441,767,o),
(403,735,c)
);
}
);
width = 660;
}
);
note = Oacute;
unicode = 211;
},
{
glyphname = Ocircumflex;
kernLeft = C;
kernRight = O;
layers = (
{
hints = (
{
horizontal = 1;
place = (634,50);
type = Stem;
},
{
horizontal = 1;
place = (-14,50);
type = Stem;
},
{
place = (565,89);
type = Stem;
},
{
place = (66,89);
type = Stem;
}
);
layerId = m01;
shapes = (
{
closed = 1;
nodes = (
(205,36,o),
(155,125,o),
(155,257,cs),
(155,471,o),
(265,634,o),
(403,634,cs),
(516,634,o),
(565,547,o),
(565,411,cs),
(565,198,o),
(455,36,o),
(316,36,cs)
);
},
{
closed = 1;
nodes = (
(504,-14,o),
(654,179,o),
(654,409,cs),
(654,571,o),
(561,684,o),
(415,684,cs),
(218,684,o),
(66,491,o),
(66,259,cs),
(66,90,o),
(160,-14,o),
(302,-14,cs)
);
},
{
closed = 1;
nodes = (
(464,861,l),
(432,861,l),
(280,741,l),
(294,717,l),
(438,799,l),
(559,717,l),
(583,741,l)
);
}
);
width = 660;
}
);
note = Ocircumflex;
unicode = 212;
},
{
glyphname = Otilde;
kernLeft = C;
kernRight = O;
layers = (
{
hints = (
{
horizontal = 1;
place = (806,57);
type = Stem;
},
{
horizontal = 1;
place = (724,56);
type = Stem;
},
{
horizontal = 1;
place = (634,50);
type = Stem;
},
{
horizontal = 1;
place = (-14,50);
type = Stem;
},
{
place = (565,89);
type = Stem;
},
{
place = (66,89);
type = Stem;
}
);
layerId = m01;
shapes = (
{
closed = 1;
nodes = (
(504,-14,o),
(654,179,o),
(654,409,cs),
(654,571,o),
(561,684,o),
(415,684,cs),
(218,684,o),
(66,491,o),
(66,259,cs),
(66,90,o),
(160,-14,o),
(302,-14,cs)
);
},
{
closed = 1;
nodes = (
(205,36,o),
(155,125,o),
(155,257,cs),
(155,471,o),
(265,634,o),
(403,634,cs),
(516,634,o),
(565,547,o),
(565,411,cs),
(565,198,o),
(455,36,o),
(316,36,cs)
);
},
{
closed = 1;
nodes = (
(270,725,l),
(296,785,o),
(321,806,o),
(354,806,cs),
(384,806,o),
(400,778,o),
(421,757,cs),
(440,740,o),
(460,724,o),
(497,724,cs),
(559,724,o),
(597,764,o),
(625,852,c),
(597,861,l),
(572,801,o),
(547,780,o),
(513,780,cs),
(483,780,o),
(468,808,o),
(446,829,cs),
(427,847,o),
(408,863,o),
(371,863,cs),
(310,863,o),
(269,822,o),
(243,735,c)
);
}
);
width = 660;
}
);
note = Otilde;
unicode = 213;
},
{
glyphname = Odieresis;
kernLeft = C;
kernRight = O;
layers = (
{
hints = (
{
horizontal = 1;
place = (748,103);
type = Stem;
},
{
horizontal = 1;
place = (634,50);
type = Stem;
},
{
horizontal = 1;
place = (-14,50);
type = Stem;
},
{
place = (565,89);
type = Stem;
},
{
place = (486,100);
type = Stem;
},
{
place = (265,101);
type = Stem;
},
{
place = (66,89);
type = Stem;
}
);
layerId = m01;
shapes = (
{
closed = 1;
nodes = (
(504,-14,o),
(654,179,o),
(654,409,cs),
(654,571,o),
(561,684,o),
(415,684,cs),
(218,684,o),
(66,491,o),
(66,259,cs),
(66,90,o),
(160,-14,o),
(302,-14,cs)
);
},
{
closed = 1;
nodes = (
(205,36,o),
(155,125,o),
(155,257,cs),
(155,471,o),
(265,634,o),
(403,634,cs),
(516,634,o),
(565,547,o),
(565,411,cs),
(565,198,o),
(455,36,o),
(316,36,cs)
);
},
{
closed = 1;
nodes = (
(341,748,o),
(366,772,o),
(366,807,cs),
(366,832,o),
(347,851,o),
(321,851,cs),
(293,851,o),
(265,828,o),
(265,793,cs),
(265,765,o),
(287,748,o),
(311,748,cs)
);
},
{
closed = 1;
nodes = (
(560,748,o),
(586,772,o),
(586,807,cs),
(586,832,o),
(566,851,o),
(540,851,cs),
(512,851,o),
(486,828,o),
(486,793,cs),
(486,765,o),
(507,748,o),
(529,748,cs)
);
}
);
width = 660;
}
);
note = Odieresis;
unicode = 214;
},
{
glyphname = Omacron;
kernLeft = C;
kernRight = O;
layers = (
{
hints = (
{
horizontal = 1;
place = (759,58);
type = Stem;
},
{
horizontal = 1;
place = (634,50);
type = Stem;
},
{
horizontal = 1;
place = (-14,50);
type = Stem;
},
{
place = (565,89);
type = Stem;
},
{
place = (66,89);
type = Stem;
}
);
layerId = m01;
shapes = (
{
closed = 1;
nodes = (
(504,-14,o),
(654,179,o),
(654,409,cs),
(654,571,o),
(561,684,o),
(415,684,cs),
(218,684,o),
(66,491,o),
(66,259,cs),
(66,90,o),
(160,-14,o),
(302,-14,cs)
);
},
{
closed = 1;
nodes = (
(205,36,o),
(155,125,o),
(155,257,cs),
(155,471,o),
(265,634,o),
(403,634,cs),
(516,634,o),
(565,547,o),
(565,411,cs),
(565,198,o),
(455,36,o),
(316,36,cs)
);
},
{
closed = 1;
nodes = (
(276,759,l),
(576,759,l),
(587,817,l),
(287,817,l)
);
}
);
width = 660;
}
);
note = Omacron;
unicode = 332;
},
{
glyphname = Ohungarumlaut;
kernLeft = C;
kernRight = O;
layers = (
{
hints = (
{
horizontal = 1;
place = (634,50);
type = Stem;
},
{
horizontal = 1;
place = (-14,50);
type = Stem;
},
{
place = (565,89);
type = Stem;
},
{
place = (66,89);
type = Stem;
}
);
layerId = m01;
shapes = (
{
closed = 1;
nodes = (
(504,-14,o),
(654,179,o),
(654,409,cs),
(654,571,o),
(561,684,o),
(415,684,cs),
(218,684,o),
(66,491,o),
(66,259,cs),
(66,90,o),
(160,-14,o),
(302,-14,cs)
);
},
{
closed = 1;
nodes = (
(205,36,o),
(155,125,o),
(155,257,cs),
(155,471,o),
(265,634,o),
(403,634,cs),
(516,634,o),
(565,547,o),
(565,411,cs),
(565,198,o),
(455,36,o),
(316,36,cs)
);
},
{
closed = 1;
nodes = (
(345,737,l),
(369,717,l),
(481,805,ls),
(504,823,o),
(512,837,o),
(512,856,cs),
(512,874,o),
(497,883,o),
(477,883,cs),
(461,883,o),
(441,874,o),
(422,847,cs)
);
},
{
closed = 1;
nodes = (
(497,737,l),
(519,717,l),
(632,805,ls),
(655,823,o),
(663,837,o),
(663,856,cs),
(663,874,o),
(647,883,o),
(628,883,cs),
(612,883,o),
(592,874,o),
(573,847,cs)
);
}
);
width = 660;
}
);
note = Ohungarumlaut;
unicode = 336;
},
{
glyphname = Oslash;
kernLeft = C;
kernRight = O;
layers = (
{
anchors = (
{
name = top;
pos = (417,691);
}
);
hints = (
{
horizontal = 1;
place = (657,-20);
target = down;
type = TopGhost;
},
{
horizontal = 1;
place = (635,49);
type = Stem;
},
{
horizontal = 1;
place = (-14,49);
type = Stem;
},
{
horizontal = 1;
place = (-20,21);
target = up;
type = BottomGhost;
},
{
place = (568,86);
type = Stem;
},
{
place = (66,86);
type = Stem;
}
);
layerId = m01;
shapes = (
{
closed = 1;
nodes = (
(691,657,l),
(654,690,l),
(582,615,l),
(541,659,o),
(484,684,o),
(415,684,cs),
(218,684,o),
(66,491,o),
(66,259,cs),
(66,200,o),
(77,150,o),
(98,108,c),
(7,13,l),
(44,-20,l),
(126,65,l),
(167,14,o),
(228,-14,o),
(302,-14,cs),
(504,-14,o),
(654,179,o),
(654,409,cs),
(654,473,o),
(639,530,o),
(612,575,c)
);
},
{
closed = 1;
nodes = (
(152,472,o),
(263,635,o),
(405,635,cs),
(466,635,o),
(510,614,o),
(537,567,c),
(160,173,l),
(155,199,o),
(152,230,o),
(152,264,cs)
);
},
{
closed = 1;
nodes = (
(248,35,o),
(202,62,o),
(177,119,c),
(556,516,l),
(564,486,o),
(568,449,o),
(568,405,cs),
(568,198,o),
(457,35,o),
(314,35,cs)
);
}
);
width = 660;
}
);
note = Oslash;
unicode = 216;
},
{
glyphname = OE;
kernLeft = C;
kernRight = E;
layers = (
{
anchors = (
{
name = top;
pos = (569,691);
}
);
hints = (
{
horizontal = 1;
place = (635,50);
type = Stem;
},
{
horizontal = 1;
place = (619,51);
type = Stem;
},
{
horizontal = 1;
place = (492,178);
type = Stem;
},
{
horizontal = 1;
place = (319,46);
type = Stem;
},
{
horizontal = 1;
place = (0,50);
type = Stem;
},
{
horizontal = 1;
place = (-15,50);
type = Stem;
},
{
place = (819.5,50.5);
type = Stem;
},
{
place = (700.5,40.5);
type = Stem;
},
{
place = (66,89);
type = Stem;
}
);
layerId = m01;
shapes = (
{
closed = 1;
nodes = (
(155,475,o),
(277,635,o),
(451,635,cs),
(473,635,o),
(496,632,o),
(516,628,c),
(502,539,o),
(486,449,o),
(470,360,cs),
(410,41,l),
(389,37,o),
(367,35,o),
(346,35,cs),
(226,35,o),
(155,111,o),
(155,262,cs)
);
},
{
closed = 1;
nodes = (
(817,0,l),
(856,178,l),
(805,178,l),
(760,50,l),
(500,50,l),
(514,137,o),
(529,224,o),
(545,310,cs),
(547,319,l),
(702,319,l),
(699,224,l),
(741,224,l),
(786,461,l),
(744,461,l),
(710,365,l),
(555,365,l),
(603,619,l),
(820,619,l),
(819,492,l),
(870,492,l),
(894,670,l),
(567,670,l),
(531,678,o),
(491,685,o),
(444,685,cs),
(222,685,o),
(66,491,o),
(66,262,cs),
(66,80,o),
(176,-15,o),
(333,-15,cs),
(373,-15,o),
(406,-9,o),
(444,0,c)
);
}
);
width = 889;
}
);
note = OE;
unicode = 338;
},
{
glyphname = Racute;
kernLeft = B;
kernRight = R;
layers = (
{
hints = (
{
horizontal = 1;
place = (623.5,46.5);
type = Stem;
},
{
horizontal = 1;
place = (623,47);
type = Stem;
},
{
horizontal = 1;
place = (310,45);
type = Stem;
},
{
horizontal = 1;
place = (0,46);
type = Stem;
},
{
horizontal = 1;
place = (0,45);
type = Stem;
},
{
horizontal = 1;
place = (-10,21);
target = up;
type = BottomGhost;
},
{
place = (507,92);
type = Stem;
}
);
layerId = m01;
shapes = (
{
closed = 1;
nodes = (
(122,629,l),
(213,618,l),
(199,532,o),
(184,446,o),
(168,360,cs),
(109,50,l),
(24,40,l),
(16,0,l),
(286,0,l),
(294,40,l),
(198,52,l),
(212,138,o),
(227,224,o),
(243,310,c),
(285,310,ls),
(341,310,o),
(360,294,o),
(387,215,cs),
(438,60,ls),
(455,9,o),
(487,-10,o),
(545,-10,cs),
(585,-10,o),
(606,-5,o),
(629,0,c),
(637,40,l),
(531,53,l),
(480,198,ls),
(457,264,o),
(435,298,o),
(397,316,c),
(535,337,o),
(599,413,o),
(599,511,cs),
(599,614,o),
(518,670,o),
(395,670,cs),
(130,670,l)
);
},
{
closed = 1;
nodes = (
(386,623,ls),
(464,623,o),
(507,584,o),
(507,513,cs),
(507,420,o),
(456,355,o),
(323,355,cs),
(252,355,l),
(302,623,l)
);
},
{
closed = 1;
nodes = (
(384,713,l),
(434,735,o),
(485,756,o),
(535,778,cs),
(583,800,o),
(589,816,o),
(589,833,cs),
(589,854,o),
(572,867,o),
(552,867,cs),
(527,867,o),
(517,857,o),
(484,830,cs),
(446,798,o),
(409,767,o),
(371,735,c)
);
}
);
width = 646;
}
);
note = Racute;
unicode = 340;
},
{
glyphname = Rcaron;
kernLeft = B;
kernRight = R;
layers = (
{
hints = (
{
horizontal = 1;
place = (729,52);
type = Stem;
},
{
horizontal = 1;
place = (623.5,46.5);
type = Stem;
},
{
horizontal = 1;
place = (623,47);
type = Stem;
},
{
horizontal = 1;
place = (310,45);
type = Stem;
},
{
horizontal = 1;
place = (0,46);
type = Stem;
},
{
horizontal = 1;
place = (0,45);
type = Stem;
},
{
horizontal = 1;
place = (-10,21);
target = up;
type = BottomGhost;
},
{
place = (507,92);
type = Stem;
}
);
layerId = m01;
shapes = (
{
closed = 1;
nodes = (
(122,629,l),
(213,618,l),
(199,532,o),
(184,446,o),
(168,360,cs),
(109,50,l),
(24,40,l),
(16,0,l),
(286,0,l),
(294,40,l),
(198,52,l),
(212,138,o),
(227,224,o),
(243,310,c),
(285,310,ls),
(341,310,o),
(360,294,o),
(387,215,cs),
(438,60,ls),
(455,9,o),
(487,-10,o),
(545,-10,cs),
(585,-10,o),
(606,-5,o),
(629,0,c),
(637,40,l),
(531,53,l),
(480,198,ls),
(457,264,o),
(435,298,o),
(397,316,c),
(535,337,o),
(599,413,o),
(599,511,cs),
(599,614,o),
(518,670,o),
(395,670,cs),
(130,670,l)
);
},
{
closed = 1;
nodes = (
(386,623,ls),
(464,623,o),
(507,584,o),
(507,513,cs),
(507,420,o),
(456,355,o),
(323,355,cs),
(252,355,l),
(302,623,l)
);
},
{
closed = 1;
nodes = (
(301,868,l),
(274,847,l),
(372,729,l),
(427,729,l),
(560,847,l),
(540,868,l),
(405,781,l)
);
}
);
width = 646;
}
);
note = Rcaron;
unicode = 344;
},
{
glyphname = uni0156;
kernLeft = B;
kernRight = R;
layers = (
{
hints = (
{
horizontal = 1;
place = (623.5,46.5);
type = Stem;
},
{
horizontal = 1;
place = (623,47);
type = Stem;
},
{
horizontal = 1;
place = (310,45);
type = Stem;
},
{
horizontal = 1;
place = (0,46);
type = Stem;
},
{
horizontal = 1;
place = (0,45);
type = Stem;
},
{
horizontal = 1;
place = (-10,21);
target = up;
type = BottomGhost;
},
{
place = (507,92);
type = Stem;
},
{
place = (292,96);
type = Stem;
}
);
layerId = m01;
shapes = (
{
closed = 1;
nodes = (
(122,629,l),
(213,618,l),
(199,532,o),
(184,446,o),
(168,360,cs),
(109,50,l),
(24,40,l),
(16,0,l),
(286,0,l),
(294,40,l),
(198,52,l),
(212,138,o),
(227,224,o),
(243,310,c),
(285,310,ls),
(341,310,o),
(360,294,o),
(387,215,cs),
(438,60,ls),
(455,9,o),
(487,-10,o),
(545,-10,cs),
(585,-10,o),
(606,-5,o),
(629,0,c),
(637,40,l),
(531,53,l),
(480,198,ls),
(457,264,o),
(435,298,o),
(397,316,c),
(535,337,o),
(599,413,o),
(599,511,cs),
(599,614,o),
(518,670,o),
(395,670,cs),
(130,670,l)
);
},
{
closed = 1;
nodes = (
(386,623,ls),
(464,623,o),
(507,584,o),
(507,513,cs),
(507,420,o),
(456,355,o),
(323,355,cs),
(252,355,l),
(302,623,l)
);
},
{
closed = 1;
nodes = (
(281,-250,l),
(345,-214,o),
(388,-184,o),
(388,-117,cs),
(388,-105,o),
(386,-93,o),
(378,-73,c),
(365,-61,o),
(351,-55,o),
(337,-55,cs),
(312,-55,o),
(292,-72,o),
(292,-98,cs),
(292,-124,o),
(308,-145,o),
(335,-161,c),
(317,-190,o),
(298,-205,o),
(265,-227,c)
);
}
);
width = 646;
}
);
note = uni0156;
unicode = 342;
},
{
glyphname = Sacute;
kernLeft = S;
kernRight = S;
layers = (
{
hints = (
{
horizontal = 1;
place = (635,50);
type = Stem;
},
{
horizontal = 1;
place = (-15,50);
type = Stem;
},
{
place = (354,80);
type = Stem;
},
{
place = (122,76);
type = Stem;
}
);
layerId = m01;
shapes = (
{
closed = 1;
nodes = (
(34,30,l),
(76,2,o),
(151,-15,o),
(211,-15,cs),
(345,-15,o),
(434,61,o),
(434,177,cs),
(434,238,o),
(409,290,o),
(296,378,cs),
(225,432,o),
(198,471,o),
(198,524,cs),
(198,598,o),
(254,635,o),
(352,635,cs),
(372,635,o),
(391,633,o),
(418,623,c),
(424,500,l),
(483,500,l),
(506,640,l),
(450,673,o),
(394,685,o),
(340,685,cs),
(213,685,o),
(122,608,o),
(122,502,cs),
(122,440,o),
(148,383,o),
(251,305,cs),
(340,236,o),
(354,200,o),
(354,155,cs),
(354,86,o),
(307,35,o),
(207,35,cs),
(178,35,o),
(149,39,o),
(122,47,c),
(110,172,l),
(53,172,l)
);
},
{
closed = 1;
nodes = (
(330,713,l),
(380,735,o),
(431,756,o),
(481,778,cs),
(529,800,o),
(535,816,o),
(535,833,cs),
(535,854,o),
(518,867,o),
(498,867,cs),
(473,867,o),
(463,857,o),
(430,830,cs),
(392,798,o),
(355,767,o),
(317,735,c)
);
}
);
width = 494;
}
);
note = Sacute;
unicode = 346;
},
{
glyphname = Scaron;
kernLeft = S;
kernRight = S;
layers = (
{
hints = (
{
horizontal = 1;
place = (729,52);
type = Stem;
},
{
horizontal = 1;
place = (635,50);
type = Stem;
},
{
horizontal = 1;
place = (-15,50);
type = Stem;
},
{
place = (354,80);
type = Stem;
},
{
place = (122,76);
type = Stem;
}
);
layerId = m01;
shapes = (
{
closed = 1;
nodes = (
(34,30,l),
(76,2,o),
(151,-15,o),
(211,-15,cs),
(345,-15,o),
(434,61,o),
(434,177,cs),
(434,238,o),
(409,290,o),
(296,378,cs),
(225,432,o),
(198,471,o),
(198,524,cs),
(198,598,o),
(254,635,o),
(352,635,cs),
(372,635,o),
(391,633,o),
(418,623,c),
(424,500,l),
(483,500,l),
(506,640,l),
(450,673,o),
(394,685,o),
(340,685,cs),
(213,685,o),
(122,608,o),
(122,502,cs),
(122,440,o),
(148,383,o),
(251,305,cs),
(340,236,o),
(354,200,o),
(354,155,cs),
(354,86,o),
(307,35,o),
(207,35,cs),
(178,35,o),
(149,39,o),
(122,47,c),
(110,172,l),
(53,172,l)
);
},
{
closed = 1;
nodes = (
(261,868,l),
(234,847,l),
(332,729,l),
(387,729,l),
(520,847,l),
(500,868,l),
(365,781,l)
);
}
);
width = 494;
}
);
note = Scaron;
unicode = 352;
},
{
glyphname = uni015E;
kernLeft = S;
kernRight = S;
layers = (
{
hints = (
{
horizontal = 1;
place = (635,50);
type = Stem;
},
{
horizontal = 1;
place = (-15,50);
type = Stem;
},
{
horizontal = 1;
place = (-231,32);
type = Stem;
},
{
place = (354,80);
type = Stem;
},
{
place = (236,57);
type = Stem;
},
{
place = (122,76);
type = Stem;
}
);
layerId = m01;
shapes = (
{
closed = 1;
nodes = (
(34,30,l),
(73,4,o),
(140,-12,o),
(198,-15,c),
(162,-87,l),
(209,-99,o),
(236,-115,o),
(236,-152,cs),
(236,-182,o),
(213,-199,o),
(178,-199,cs),
(153,-199,o),
(134,-193,o),
(112,-183,c),
(101,-208,l),
(122,-221,o),
(156,-231,o),
(190,-231,cs),
(254,-231,o),
(293,-197,o),
(293,-157,cs),
(293,-112,o),
(262,-91,o),
(201,-69,c),
(226,-15,l),
(352,-9,o),
(434,65,o),
(434,177,cs),
(434,238,o),
(409,290,o),
(296,378,cs),
(225,432,o),
(198,471,o),
(198,524,cs),
(198,598,o),
(254,635,o),
(352,635,cs),
(372,635,o),
(391,633,o),
(418,623,c),
(424,500,l),
(483,500,l),
(506,640,l),
(450,673,o),
(394,685,o),
(340,685,cs),
(213,685,o),
(122,608,o),
(122,502,cs),
(122,440,o),
(148,383,o),
(251,305,cs),
(340,236,o),
(354,200,o),
(354,155,cs),
(354,86,o),
(307,35,o),
(207,35,cs),
(178,35,o),
(149,39,o),
(122,47,c),
(110,172,l),
(53,172,l)
);
}
);
width = 494;
}
);
note = uni015E;
unicode = 350;
},
{
glyphname = uni0218;
kernLeft = S;
kernRight = S;
layers = (
{
hints = (
{
horizontal = 1;
place = (635,50);
type = Stem;
},
{
horizontal = 1;
place = (-15,50);
type = Stem;
},
{
place = (354,80);
type = Stem;
},
{
place = (147,96);
type = Stem;
},
{
place = (122,76);
type = Stem;
}
);
layerId = m01;
shapes = (
{
closed = 1;
nodes = (
(34,30,l),
(76,2,o),
(151,-15,o),
(211,-15,cs),
(345,-15,o),
(434,61,o),
(434,177,cs),
(434,238,o),
(409,290,o),
(296,378,cs),
(225,432,o),
(198,471,o),
(198,524,cs),
(198,598,o),
(254,635,o),
(352,635,cs),
(372,635,o),
(391,633,o),
(418,623,c),
(424,500,l),
(483,500,l),
(506,640,l),
(450,673,o),
(394,685,o),
(340,685,cs),
(213,685,o),
(122,608,o),
(122,502,cs),
(122,440,o),
(148,383,o),
(251,305,cs),
(340,236,o),
(354,200,o),
(354,155,cs),
(354,86,o),
(307,35,o),
(207,35,cs),
(178,35,o),
(149,39,o),
(122,47,c),
(110,172,l),
(53,172,l)
);
},
{
closed = 1;
nodes = (
(136,-250,l),
(200,-214,o),
(243,-184,o),
(243,-117,cs),
(243,-105,o),
(241,-93,o),
(233,-73,c),
(220,-61,o),
(206,-55,o),
(192,-55,cs),
(167,-55,o),
(147,-72,o),
(147,-98,cs),
(147,-124,o),
(163,-145,o),
(190,-161,c),
(172,-190,o),
(153,-205,o),
(120,-227,c)
);
}
);
width = 494;
}
);
note = uni0218;
unicode = 536;
},
{
glyphname = Tcaron;
kernLeft = T;
kernRight = T;
layers = (
{
hints = (
{
horizontal = 1;
place = (729,52);
type = Stem;
},
{
horizontal = 1;
place = (619,51);
type = Stem;
},
{
horizontal = 1;
place = (491,179);
type = Stem;
},
{
horizontal = 1;
place = (0,46);
type = Stem;
},
{
horizontal = 1;
place = (0,45.5);
type = Stem;
},
{
place = (554,51);
type = Stem;
}
);
layerId = m01;
shapes = (
{
closed = 1;
nodes = (
(76,491,l),
(127,491,l),
(173,619,l),
(323,619,l),
(309,533,o),
(294,446,o),
(278,360,cs),
(220,51,l),
(123,40,l),
(115,0,l),
(400,0,l),
(408,40,l),
(307,52,l),
(321,138,o),
(336,224,o),
(352,310,cs),
(410,619,l),
(554,619,l),
(554,491,l),
(605,491,l),
(634,670,l),
(112,670,l)
);
},
{
closed = 1;
nodes = (
(281,868,l),
(254,847,l),
(352,729,l),
(407,729,l),
(540,847,l),
(520,868,l),
(385,781,l)
);
}
);
width = 569;
}
);
note = Tcaron;
unicode = 356;
},
{
glyphname = uni0162;
kernLeft = T;
kernRight = T;
layers = (
{
hints = (
{
horizontal = 1;
place = (619,51);
type = Stem;
},
{
horizontal = 1;
place = (491,179);
type = Stem;
},
{
horizontal = 1;
place = (0,46);
type = Stem;
},
{
horizontal = 1;
place = (0,45.5);
type = Stem;
},
{
horizontal = 1;
place = (-231,32);
type = Stem;
},
{
place = (554,51);
type = Stem;
},
{
place = (277,57);
type = Stem;
}
);
layerId = m01;
shapes = (
{
closed = 1;
nodes = (
(76,491,l),
(127,491,l),
(173,619,l),
(323,619,l),
(309,533,o),
(294,446,o),
(278,360,cs),
(220,51,l),
(123,40,l),
(115,0,l),
(246,0,l),
(203,-87,l),
(250,-99,o),
(277,-115,o),
(277,-152,cs),
(277,-182,o),
(254,-199,o),
(219,-199,cs),
(194,-199,o),
(175,-193,o),
(153,-183,c),
(142,-208,l),
(163,-221,o),
(197,-231,o),
(231,-231,cs),
(295,-231,o),
(334,-197,o),
(334,-157,cs),
(334,-112,o),
(303,-91,o),
(242,-69,c),
(274,0,l),
(400,0,l),
(408,40,l),
(307,52,l),
(321,138,o),
(336,224,o),
(352,310,cs),
(410,619,l),
(554,619,l),
(554,491,l),
(605,491,l),
(634,670,l),
(112,670,l)
);
}
);
width = 569;
}
);
note = uni0162;
unicode = 354;
},
{
glyphname = uni021A;
kernLeft = T;
kernRight = T;
layers = (
{
hints = (
{
horizontal = 1;
place = (619,51);
type = Stem;
},
{
horizontal = 1;
place = (491,179);
type = Stem;
},
{
horizontal = 1;
place = (0,46);
type = Stem;
},
{
horizontal = 1;
place = (0,45.5);
type = Stem;
},
{
place = (554,51);
type = Stem;
},
{
place = (200,96);
type = Stem;
}
);
layerId = m01;
shapes = (
{
closed = 1;
nodes = (
(76,491,l),
(127,491,l),
(173,619,l),
(323,619,l),
(309,533,o),
(294,446,o),
(278,360,cs),
(220,51,l),
(123,40,l),
(115,0,l),
(400,0,l),
(408,40,l),
(307,52,l),
(321,138,o),
(336,224,o),
(352,310,cs),
(410,619,l),
(554,619,l),
(554,491,l),
(605,491,l),
(634,670,l),
(112,670,l)
);
},
{
closed = 1;
nodes = (
(189,-250,l),
(253,-214,o),
(296,-184,o),
(296,-117,cs),
(296,-105,o),
(294,-93,o),
(286,-73,c),
(273,-61,o),
(259,-55,o),
(245,-55,cs),
(220,-55,o),
(200,-72,o),
(200,-98,cs),
(200,-124,o),
(216,-145,o),
(243,-161,c),
(225,-190,o),
(206,-205,o),
(173,-227,c)
);
}
);
width = 569;
}
);
note = uni021A;
unicode = 538;
},
{
glyphname = Ugrave;
kernLeft = U;
kernRight = U;
layers = (
{
hints = (
{
horizontal = 1;
place = (623.5,46.5);
type = Stem;
},
{
horizontal = 1;
place = (-15,70);
type = Stem;
},
{
place = (120,85);
type = Stem;
}
);
layerId = m01;
shapes = (
{
closed = 1;
nodes = (
(528,629,l),
(631,616,l),
(570,298,ls),
(534,108,o),
(478,55,o),
(339,55,cs),
(266,55,o),
(205,101,o),
(205,185,cs),
(205,232,o),
(211,256,o),
(216,282,cs),
(278,618,l),
(365,629,l),
(373,670,l),
(108,670,l),
(100,629,l),
(192,618,l),
(178,532,o),
(163,446,o),
(147,360,cs),
(133,286,ls),
(126,249,o),
(120,212,o),
(120,179,cs),
(120,54,o),
(193,-15,o),
(328,-15,cs),
(474,-15,o),
(579,62,o),
(619,274,cs),
(684,617,l),
(770,629,l),
(778,670,l),
(536,670,l)
);
},
{
closed = 1;
nodes = (
(515,746,l),
(485,777,o),
(454,808,o),
(422,839,cs),
(394,867,o),
(377,877,o),
(360,877,cs),
(339,877,o),
(322,864,o),
(322,844,cs),
(322,826,o),
(335,808,o),
(372,788,cs),
(413,766,o),
(455,743,o),
(497,721,c)
);
}
);
width = 712;
}
);
note = Ugrave;
unicode = 217;
},
{
glyphname = Uacute;
kernLeft = U;
kernRight = U;
layers = (
{
hints = (
{
horizontal = 1;
place = (623.5,46.5);
type = Stem;
},
{
horizontal = 1;
place = (-15,70);
type = Stem;
},
{
place = (120,85);
type = Stem;
}
);
layerId = m01;
shapes = (
{
closed = 1;
nodes = (
(528,629,l),
(631,616,l),
(570,298,ls),
(534,108,o),
(478,55,o),
(339,55,cs),
(266,55,o),
(205,101,o),
(205,185,cs),
(205,232,o),
(211,256,o),
(216,282,cs),
(278,618,l),
(365,629,l),
(373,670,l),
(108,670,l),
(100,629,l),
(192,618,l),
(178,532,o),
(163,446,o),
(147,360,cs),
(133,286,ls),
(126,249,o),
(120,212,o),
(120,179,cs),
(120,54,o),
(193,-15,o),
(328,-15,cs),
(474,-15,o),
(579,62,o),
(619,274,cs),
(684,617,l),
(770,629,l),
(778,670,l),
(536,670,l)
);
},
{
closed = 1;
nodes = (
(469,713,l),
(519,735,o),
(570,756,o),
(620,778,cs),
(668,800,o),
(674,816,o),
(674,833,cs),
(674,854,o),
(657,867,o),
(637,867,cs),
(612,867,o),
(602,857,o),
(569,830,cs),
(531,798,o),
(494,767,o),
(456,735,c)
);
}
);
width = 712;
}
);
note = Uacute;
unicode = 218;
},
{
glyphname = Ucircumflex;
kernLeft = U;
kernRight = U;
layers = (
{
hints = (
{
horizontal = 1;
place = (623.5,46.5);
type = Stem;
},
{
horizontal = 1;
place = (-15,70);
type = Stem;
},
{
place = (120,85);
type = Stem;
}
);
layerId = m01;
shapes = (
{
closed = 1;
nodes = (
(528,629,l),
(631,616,l),
(570,298,ls),
(534,108,o),
(478,55,o),
(339,55,cs),
(266,55,o),
(205,101,o),
(205,185,cs),
(205,232,o),
(211,256,o),
(216,282,cs),
(278,618,l),
(365,629,l),
(373,670,l),
(108,670,l),
(100,629,l),
(192,618,l),
(178,532,o),
(163,446,o),
(147,360,cs),
(133,286,ls),
(126,249,o),
(120,212,o),
(120,179,cs),
(120,54,o),
(193,-15,o),
(328,-15,cs),
(474,-15,o),
(579,62,o),
(619,274,cs),
(684,617,l),
(770,629,l),
(778,670,l),
(536,670,l)
);
},
{
closed = 1;
nodes = (
(529,861,l),
(497,861,l),
(345,741,l),
(359,717,l),
(503,799,l),
(624,717,l),
(648,741,l)
);
}
);
width = 712;
}
);
note = Ucircumflex;
unicode = 219;
},
{
glyphname = Udieresis;
kernLeft = U;
kernRight = U;
layers = (
{
hints = (
{
horizontal = 1;
place = (748,103);
type = Stem;
},
{
horizontal = 1;
place = (623.5,46.5);
type = Stem;
},
{
horizontal = 1;
place = (-15,70);
type = Stem;
},
{
place = (551,100);
type = Stem;
},
{
place = (330,101);
type = Stem;
},
{
place = (120,85);
type = Stem;
}
);
layerId = m01;
shapes = (
{
closed = 1;
nodes = (
(528,629,l),
(631,616,l),
(570,298,ls),
(534,108,o),
(478,55,o),
(339,55,cs),
(266,55,o),
(205,101,o),
(205,185,cs),
(205,232,o),
(211,256,o),
(216,282,cs),
(278,618,l),
(365,629,l),
(373,670,l),
(108,670,l),
(100,629,l),
(192,618,l),
(178,532,o),
(163,446,o),
(147,360,cs),
(133,286,ls),
(126,249,o),
(120,212,o),
(120,179,cs),
(120,54,o),
(193,-15,o),
(328,-15,cs),
(474,-15,o),
(579,62,o),
(619,274,cs),
(684,617,l),
(770,629,l),
(778,670,l),
(536,670,l)
);
},
{
closed = 1;
nodes = (
(406,748,o),
(431,772,o),
(431,807,cs),
(431,832,o),
(412,851,o),
(386,851,cs),
(358,851,o),
(330,828,o),
(330,793,cs),
(330,765,o),
(352,748,o),
(376,748,cs)
);
},
{
closed = 1;
nodes = (
(625,748,o),
(651,772,o),
(651,807,cs),
(651,832,o),
(631,851,o),
(605,851,cs),
(577,851,o),
(551,828,o),
(551,793,cs),
(551,765,o),
(572,748,o),
(594,748,cs)
);
}
);
width = 712;
}
);
note = Udieresis;
unicode = 220;
},
{
glyphname = Umacron;
kernLeft = U;
kernRight = U;
layers = (
{
hints = (
{
horizontal = 1;
place = (759,58);
type = Stem;
},
{
horizontal = 1;
place = (623.5,46.5);
type = Stem;
},
{
horizontal = 1;
place = (-15,70);
type = Stem;
},
{
place = (120,85);
type = Stem;
}
);
layerId = m01;
shapes = (
{
closed = 1;
nodes = (
(528,629,l),
(631,616,l),
(570,298,ls),
(534,108,o),
(478,55,o),
(339,55,cs),
(266,55,o),
(205,101,o),
(205,185,cs),
(205,232,o),
(211,256,o),
(216,282,cs),
(278,618,l),
(365,629,l),
(373,670,l),
(108,670,l),
(100,629,l),
(192,618,l),
(178,532,o),
(163,446,o),
(147,360,cs),
(133,286,ls),
(126,249,o),
(120,212,o),
(120,179,cs),
(120,54,o),
(193,-15,o),
(328,-15,cs),
(474,-15,o),
(579,62,o),
(619,274,cs),
(684,617,l),
(770,629,l),
(778,670,l),
(536,670,l)
);
},
{
closed = 1;
nodes = (
(334,759,l),
(634,759,l),
(645,817,l),
(345,817,l)
);
}
);
width = 712;
}
);
note = Umacron;
unicode = 362;
},
{
glyphname = Uring;
kernLeft = U;
kernRight = U;
layers = (
{
hints = (
{
horizontal = 1;
place = (865,33);
type = Stem;
},
{
horizontal = 1;
place = (713,33);
type = Stem;
},
{
horizontal = 1;
place = (623.5,46.5);
type = Stem;
},
{
horizontal = 1;
place = (-15,70);
type = Stem;
},
{
place = (544,41);
type = Stem;
},
{
place = (392,41);
type = Stem;
},
{
place = (120,85);
type = Stem;
}
);
layerId = m01;
shapes = (
{
closed = 1;
nodes = (
(528,629,l),
(631,616,l),
(570,298,ls),
(534,108,o),
(478,55,o),
(339,55,cs),
(266,55,o),
(205,101,o),
(205,185,cs),
(205,232,o),
(211,256,o),
(216,282,cs),
(278,618,l),
(365,629,l),
(373,670,l),
(108,670,l),
(100,629,l),
(192,618,l),
(178,532,o),
(163,446,o),
(147,360,cs),
(133,286,ls),
(126,249,o),
(120,212,o),
(120,179,cs),
(120,54,o),
(193,-15,o),
(328,-15,cs),
(474,-15,o),
(579,62,o),
(619,274,cs),
(684,617,l),
(770,629,l),
(778,670,l),
(536,670,l)
);
},
{
closed = 1;
nodes = (
(452,746,o),
(433,769,o),
(433,799,cs),
(433,836,o),
(461,865,o),
(496,865,cs),
(530,865,o),
(544,840,o),
(544,813,cs),
(544,778,o),
(521,746,o),
(485,746,cs)
);
},
{
closed = 1;
nodes = (
(533,713,o),
(585,752,o),
(585,816,cs),
(585,868,o),
(548,898,o),
(497,898,cs),
(447,898,o),
(392,861,o),
(392,795,cs),
(392,744,o),
(433,713,o),
(481,713,cs)
);
}
);
width = 712;
}
);
note = Uring;
unicode = 366;
},
{
glyphname = Uhungarumlaut;
kernLeft = U;
kernRight = U;
layers = (
{
hints = (
{
horizontal = 1;
place = (623.5,46.5);
type = Stem;
},
{
horizontal = 1;
place = (-15,70);
type = Stem;
},
{
place = (120,85);
type = Stem;
}
);
layerId = m01;
shapes = (
{
closed = 1;
nodes = (
(528,629,l),
(631,616,l),
(570,298,ls),
(534,108,o),
(478,55,o),
(339,55,cs),
(266,55,o),
(205,101,o),
(205,185,cs),
(205,232,o),
(211,256,o),
(216,282,cs),
(278,618,l),
(365,629,l),
(373,670,l),
(108,670,l),
(100,629,l),
(192,618,l),
(178,532,o),
(163,446,o),
(147,360,cs),
(133,286,ls),
(126,249,o),
(120,212,o),
(120,179,cs),
(120,54,o),
(193,-15,o),
(328,-15,cs),
(474,-15,o),
(579,62,o),
(619,274,cs),
(684,617,l),
(770,629,l),
(778,670,l),
(536,670,l)
);
},
{
closed = 1;
nodes = (
(380,737,l),
(404,717,l),
(516,805,ls),
(539,823,o),
(547,837,o),
(547,856,cs),
(547,874,o),
(532,883,o),
(512,883,cs),
(496,883,o),
(476,874,o),
(457,847,cs)
);
},
{
closed = 1;
nodes = (
(532,737,l),
(554,717,l),
(667,805,ls),
(690,823,o),
(698,837,o),
(698,856,cs),
(698,874,o),
(682,883,o),
(663,883,cs),
(647,883,o),
(627,874,o),
(608,847,cs)
);
}
);
width = 712;
}
);
note = Uhungarumlaut;
unicode = 368;
},
{
glyphname = Uogonek;
kernLeft = U;
kernRight = U;
layers = (
{
anchors = (
{
name = top;
pos = (476,691);
}
);
hints = (
{
horizontal = 1;
place = (623.5,46.5);
type = Stem;
},
{
horizontal = 1;
place = (-15,70);
type = Stem;
},
{
horizontal = 1;
place = (-240,46);
type = Stem;
},
{
place = (322,62);
type = Stem;
},
{
place = (120,85);
type = Stem;
}
);
layerId = m01;
shapes = (
{
closed = 1;
nodes = (
(528,629,l),
(631,616,l),
(570,298,ls),
(534,108,o),
(478,55,o),
(339,55,cs),
(266,55,o),
(205,101,o),
(205,185,cs),
(205,232,o),
(211,256,o),
(216,282,cs),
(278,618,l),
(365,629,l),
(373,670,l),
(108,670,l),
(100,629,l),
(192,618,l),
(178,532,o),
(163,446,o),
(147,360,cs),
(133,286,ls),
(126,249,o),
(120,212,o),
(120,179,cs),
(120,54,o),
(193,-15,o),
(328,-15,cs),
(362,-15,o),
(393,-11,o),
(422,-2,c),
(370,-51,o),
(322,-103,o),
(322,-162,cs),
(322,-210,o),
(354,-240,o),
(411,-240,cs),
(455,-240,o),
(500,-212,o),
(526,-183,c),
(514,-166,l),
(491,-182,o),
(459,-194,o),
(434,-194,cs),
(405,-194,o),
(384,-175,o),
(384,-137,cs),
(384,-72,o),
(445,-11,o),
(505,42,cs),
(556,87,o),
(596,152,o),
(619,274,cs),
(684,617,l),
(770,629,l),
(778,670,l),
(536,670,l)
);
}
);
width = 712;
}
);
note = Uogonek;
unicode = 370;
},
{
glyphname = Yacute;
kernLeft = Y;
kernRight = Y;
layers = (
{
hints = (
{
horizontal = 1;
place = (624,46);
type = Stem;
},
{
horizontal = 1;
place = (623.5,46.5);
type = Stem;
},
{
horizontal = 1;
place = (0,46);
type = Stem;
},
{
horizontal = 1;
place = (0,45);
type = Stem;
},
{
place = (62,601);
type = Stem;
}
);
layerId = m01;
shapes = (
{
closed = 1;
nodes = (
(62,629,l),
(142,619,l),
(259,280,l),
(216,50,l),
(120,40,l),
(112,0,l),
(397,0,l),
(405,40,l),
(304,52,l),
(316,127,o),
(329,203,o),
(343,278,c),
(565,616,l),
(655,629,l),
(663,670,l),
(440,670,l),
(432,629,l),
(516,616,l),
(330,329,l),
(239,618,l),
(327,629,l),
(335,670,l),
(70,670,l)
);
},
{
closed = 1;
nodes = (
(369,713,l),
(419,735,o),
(470,756,o),
(520,778,cs),
(568,800,o),
(574,816,o),
(574,833,cs),
(574,854,o),
(557,867,o),
(537,867,cs),
(512,867,o),
(502,857,o),
(469,830,cs),
(431,798,o),
(394,767,o),
(356,735,c)
);
}
);
width = 554;
}
);
note = Yacute;
unicode = 221;
},
{
glyphname = Ydieresis;
kernLeft = Y;
kernRight = Y;
layers = (
{
hints = (
{
horizontal = 1;
place = (748,103);
type = Stem;
},
{
horizontal = 1;
place = (624,46);
type = Stem;
},
{
horizontal = 1;
place = (623.5,46.5);
type = Stem;
},
{
horizontal = 1;
place = (0,46);
type = Stem;
},
{
horizontal = 1;
place = (0,45);
type = Stem;
},
{
place = (465,100);
type = Stem;
},
{
place = (244,101);
type = Stem;
}
);
layerId = m01;
shapes = (
{
closed = 1;
nodes = (
(62,629,l),
(142,619,l),
(259,280,l),
(216,50,l),
(120,40,l),
(112,0,l),
(397,0,l),
(405,40,l),
(304,52,l),
(316,127,o),
(329,203,o),
(343,278,c),
(565,616,l),
(655,629,l),
(663,670,l),
(440,670,l),
(432,629,l),
(516,616,l),
(330,329,l),
(239,618,l),
(327,629,l),
(335,670,l),
(70,670,l)
);
},
{
closed = 1;
nodes = (
(320,748,o),
(345,772,o),
(345,807,cs),
(345,832,o),
(326,851,o),
(300,851,cs),
(272,851,o),
(244,828,o),
(244,793,cs),
(244,765,o),
(266,748,o),
(290,748,cs)
);
},
{
closed = 1;
nodes = (
(539,748,o),
(565,772,o),
(565,807,cs),
(565,832,o),
(545,851,o),
(519,851,cs),
(491,851,o),
(465,828,o),
(465,793,cs),
(465,765,o),
(486,748,o),
(508,748,cs)
);
}
);
width = 554;
}
);
note = Ydieresis;
unicode = 376;
},
{
glyphname = Zacute;
kernLeft = Z;
kernRight = Z;
layers = (
{
hints = (
{
horizontal = 1;
place = (619,51);
type = Stem;
},
{
horizontal = 1;
place = (491,179);
type = Stem;
},
{
horizontal = 1;
place = (0,178);
type = Stem;
},
{
horizontal = 1;
place = (0,50);
type = Stem;
},
{
place = (1,588);
type = Stem;
}
);
layerId = m01;
shapes = (
{
closed = 1;
nodes = (
(89,491,l),
(147,491,l),
(192,619,l),
(473,619,l),
(8,35,l),
(1,0,l),
(484,0,l),
(519,178,l),
(460,178,l),
(415,50,l),
(115,50,l),
(582,634,l),
(589,670,l),
(123,670,l)
);
},
{
closed = 1;
nodes = (
(354,713,l),
(404,735,o),
(455,756,o),
(505,778,cs),
(553,800,o),
(559,816,o),
(559,833,cs),
(559,854,o),
(542,867,o),
(522,867,cs),
(497,867,o),
(487,857,o),
(454,830,cs),
(416,798,o),
(379,767,o),
(341,735,c)
);
}
);
width = 537;
}
);
note = Zacute;
unicode = 377;
},
{
glyphname = Zcaron;
kernLeft = Z;
kernRight = Z;
layers = (
{
hints = (
{
horizontal = 1;
place = (729,52);
type = Stem;
},
{
horizontal = 1;
place = (619,51);
type = Stem;
},
{
horizontal = 1;
place = (491,179);
type = Stem;
},
{
horizontal = 1;
place = (0,178);
type = Stem;
},
{
horizontal = 1;
place = (0,50);
type = Stem;
},
{
place = (1,588);
type = Stem;
}
);
layerId = m01;
shapes = (
{
closed = 1;
nodes = (
(89,491,l),
(147,491,l),
(192,619,l),
(473,619,l),
(8,35,l),
(1,0,l),
(484,0,l),
(519,178,l),
(460,178,l),
(415,50,l),
(115,50,l),
(582,634,l),
(589,670,l),
(123,670,l)
);
},
{
closed = 1;
nodes = (
(280,868,l),
(253,847,l),
(351,729,l),
(406,729,l),
(539,847,l),
(519,868,l),
(384,781,l)
);
}
);
width = 537;
}
);
note = Zcaron;
unicode = 381;
},
{
glyphname = Zdotaccent;
kernLeft = Z;
kernRight = Z;
layers = (
{
hints = (
{
horizontal = 1;
place = (730,120);
type = Stem;
},
{
horizontal = 1;
place = (619,51);
type = Stem;
},
{
horizontal = 1;
place = (491,179);
type = Stem;
},
{
horizontal = 1;
place = (0,178);
type = Stem;
},
{
horizontal = 1;
place = (0,50);
type = Stem;
},
{
place = (322,112);
type = Stem;
}
);
layerId = m01;
shapes = (
{
closed = 1;
nodes = (
(89,491,l),
(147,491,l),
(192,619,l),
(473,619,l),
(8,35,l),
(1,0,l),
(484,0,l),
(519,178,l),
(460,178,l),
(415,50,l),
(115,50,l),
(582,634,l),
(589,670,l),
(123,670,l)
);
},
{
closed = 1;
nodes = (
(406,730,o),
(434,761,o),
(434,794,cs),
(434,828,o),
(412,850,o),
(380,850,cs),
(350,850,o),
(322,821,o),
(322,786,cs),
(322,752,o),
(344,730,o),
(376,730,cs)
);
}
);
width = 537;
}
);
note = Zdotaccent;
unicode = 379;
},
{
glyphname = Eth;
kernLeft = B;
kernRight = D;
layers = (
{
hints = (
{
horizontal = 1;
place = (623.5,46.5);
type = Stem;
},
{
horizontal = 1;
place = (623,47);
type = Stem;
},
{
horizontal = 1;
place = (320,46);
type = Stem;
},
{
horizontal = 1;
place = (0,46);
type = Stem;
},
{
horizontal = 1;
place = (0,45.5);
type = Stem;
},
{
place = (590,95);
type = Stem;
}
);
layerId = m01;
shapes = (
{
closed = 1;
nodes = (
(122,629,l),
(213,618,l),
(199,534,o),
(184,450,o),
(169,366,c),
(66,366,l),
(58,320,l),
(160,320,l),
(110,51,l),
(24,40,l),
(16,0,l),
(290,0,ls),
(493,0,o),
(684,129,o),
(685,394,cs),
(685,565,o),
(575,670,o),
(404,670,cs),
(130,670,l)
);
},
{
closed = 1;
nodes = (
(398,320,l),
(406,366,l),
(254,366,l),
(302,623,l),
(363,623,ls),
(505,623,o),
(591,543,o),
(590,394,cs),
(589,228,o),
(495,46,o),
(304,46,cs),
(197,46,l),
(211,134,o),
(227,222,o),
(243,310,cs),
(245,320,l)
);
}
);
width = 701;
}
);
note = Eth;
unicode = 208;
},
{
glyphname = Thorn;
kernLeft = B;
kernRight = Thorn;
layers = (
{
hints = (
{
horizontal = 1;
place = (624,46);
type = Stem;
},
{
horizontal = 1;
place = (623.5,46.5);
type = Stem;
},
{
horizontal = 1;
place = (489,46);
type = Stem;
},
{
horizontal = 1;
place = (155,46);
type = Stem;
},
{
horizontal = 1;
place = (0,45.5);
type = Stem;
},
{
horizontal = 1;
place = (0,45);
type = Stem;
},
{
place = (473,91);
type = Stem;
}
);
layerId = m01;
shapes = (
{
closed = 1;
nodes = (
(277,489,l),
(322,489,ls),
(426,489,o),
(473,447,o),
(473,363,cs),
(473,268,o),
(410,201,o),
(281,201,cs),
(223,201,l),
(230,237,o),
(236,274,o),
(243,310,cs)
);
},
{
closed = 1;
nodes = (
(122,629,l),
(213,618,l),
(199,532,o),
(184,446,o),
(168,360,cs),
(109,50,l),
(24,40,l),
(16,0,l),
(281,0,l),
(289,40,l),
(198,51,l),
(204,86,o),
(209,120,o),
(215,155,c),
(273,155,ls),
(457,155,o),
(564,241,o),
(564,365,cs),
(564,469,o),
(486,535,o),
(329,535,cs),
(286,535,l),
(301,619,l),
(387,629,l),
(395,670,l),
(130,670,l)
);
}
);
width = 562;
}
);
note = Thorn;
unicode = 222;
},
{
glyphname = agrave;
kernLeft = a;
kernRight = a;
layers = (
{
hints = (
{
horizontal = 1;
place = (497,-20);
target = down;
type = TopGhost;
},
{
horizontal = 1;
place = (421,66);
type = Stem;
},
{
horizontal = 1;
place = (-13,69);
type = Stem;
},
{
place = (311,75);
type = Stem;
},
{
place = (45,78);
type = Stem;
}
);
layerId = m01;
shapes = (
{
closed = 1;
nodes = (
(430,-13,o),
(493,51,o),
(532,109,c),
(508,128,l),
(473,85,o),
(435,56,o),
(410,56,cs),
(397,56,o),
(386,64,o),
(386,78,cs),
(386,89,o),
(389,110,o),
(395,135,cs),
(475,488,l),
(457,497,l),
(411,460,l),
(395,477,o),
(377,487,o),
(354,487,cs),
(225,487,o),
(45,279,o),
(45,105,cs),
(45,22,o),
(92,-13,o),
(140,-13,cs),
(194,-13,o),
(257,32,o),
(315,98,c),
(312,80,o),
(311,64,o),
(311,45,cs),
(311,5,o),
(336,-13,o),
(363,-13,cs)
);
},
{
closed = 1;
nodes = (
(123,234,o),
(161,313,o),
(209,363,cs),
(245,400,o),
(287,421,o),
(319,421,cs),
(340,421,o),
(361,413,o),
(380,402,c),
(326,152,l),
(260,80,o),
(218,56,o),
(183,56,cs),
(147,56,o),
(123,85,o),
(123,146,cs)
);
},
{
closed = 1;
nodes = (
(405,549,l),
(380,605,o),
(356,661,o),
(331,717,cs),
(319,744,o),
(302,762,o),
(280,762,cs),
(260,762,o),
(242,748,o),
(242,727,cs),
(242,710,o),
(247,695,o),
(263,676,cs),
(303,628,o),
(342,582,o),
(382,534,c)
);
}
);
width = 522;
}
);
note = agrave;
unicode = 224;
},
{
glyphname = aacute;
kernLeft = a;
kernRight = a;
layers = (
{
hints = (
{
horizontal = 1;
place = (497,-20);
target = down;
type = TopGhost;
},
{
horizontal = 1;
place = (421,66);
type = Stem;
},
{
horizontal = 1;
place = (-13,69);
type = Stem;
},
{
place = (311,75);
type = Stem;
},
{
place = (45,78);
type = Stem;
}
);
layerId = m01;
shapes = (
{
closed = 1;
nodes = (
(430,-13,o),
(493,51,o),
(532,109,c),
(508,128,l),
(473,85,o),
(435,56,o),
(410,56,cs),
(397,56,o),
(386,64,o),
(386,78,cs),
(386,89,o),
(389,110,o),
(395,135,cs),
(475,488,l),
(457,497,l),
(411,460,l),
(395,477,o),
(377,487,o),
(354,487,cs),
(225,487,o),
(45,279,o),
(45,105,cs),
(45,22,o),
(92,-13,o),
(140,-13,cs),
(194,-13,o),
(257,32,o),
(315,98,c),
(312,80,o),
(311,64,o),
(311,45,cs),
(311,5,o),
(336,-13,o),
(363,-13,cs)
);
},
{
closed = 1;
nodes = (
(123,234,o),
(161,313,o),
(209,363,cs),
(245,400,o),
(287,421,o),
(319,421,cs),
(340,421,o),
(361,413,o),
(380,402,c),
(326,152,l),
(260,80,o),
(218,56,o),
(183,56,cs),
(147,56,o),
(123,85,o),
(123,146,cs)
);
},
{
closed = 1;
nodes = (
(360,534,l),
(400,582,o),
(439,628,o),
(479,676,cs),
(495,695,o),
(501,710,o),
(501,725,cs),
(501,748,o),
(483,760,o),
(462,760,cs),
(440,760,o),
(424,744,o),
(411,717,cs),
(387,661,o),
(362,605,o),
(337,549,c)
);
}
);
width = 522;
}
);
note = aacute;
unicode = 225;
},
{
glyphname = acircumflex;
kernLeft = a;
kernRight = a;
layers = (
{
hints = (
{
horizontal = 1;
place = (497,-20);
target = down;
type = TopGhost;
},
{
horizontal = 1;
place = (421,66);
type = Stem;
},
{
horizontal = 1;
place = (-13,69);
type = Stem;
},
{
place = (311,75);
type = Stem;
},
{
place = (45,78);
type = Stem;
}
);
layerId = m01;
shapes = (
{
closed = 1;
nodes = (
(123,234,o),
(161,313,o),
(209,363,cs),
(245,400,o),
(287,421,o),
(319,421,cs),
(340,421,o),
(361,413,o),
(380,402,c),
(326,152,l),
(260,80,o),
(218,56,o),
(183,56,cs),
(147,56,o),
(123,85,o),
(123,146,cs)
);
},
{
closed = 1;
nodes = (
(430,-13,o),
(493,51,o),
(532,109,c),
(508,128,l),
(473,85,o),
(435,56,o),
(410,56,cs),
(397,56,o),
(386,64,o),
(386,78,cs),
(386,89,o),
(389,110,o),
(395,135,cs),
(475,488,l),
(457,497,l),
(411,460,l),
(395,477,o),
(377,487,o),
(354,487,cs),
(225,487,o),
(45,279,o),
(45,105,cs),
(45,22,o),
(92,-13,o),
(140,-13,cs),
(194,-13,o),
(257,32,o),
(315,98,c),
(312,80,o),
(311,64,o),
(311,45,cs),
(311,5,o),
(336,-13,o),
(363,-13,cs)
);
},
{
closed = 1;
nodes = (
(473,546,l),
(500,567,l),
(400,743,l),
(368,743,l),
(212,567,l),
(232,546,l),
(370,667,l)
);
}
);
width = 522;
}
);
note = acircumflex;
unicode = 226;
},
{
glyphname = atilde;
kernLeft = a;
kernRight = a;
layers = (
{
hints = (
{
horizontal = 1;
place = (497,-20);
target = down;
type = TopGhost;
},
{
horizontal = 1;
place = (661,53);
type = Stem;
},
{
horizontal = 1;
place = (575,53);
type = Stem;
},
{
horizontal = 1;
place = (421,66);
type = Stem;
},
{
horizontal = 1;
place = (-13,69);
type = Stem;
},
{
place = (311,75);
type = Stem;
},
{
place = (45,78);
type = Stem;
}
);
layerId = m01;
shapes = (
{
closed = 1;
nodes = (
(123,234,o),
(161,313,o),
(209,363,cs),
(245,400,o),
(287,421,o),
(319,421,cs),
(340,421,o),
(361,413,o),
(380,402,c),
(326,152,l),
(260,80,o),
(218,56,o),
(183,56,cs),
(147,56,o),
(123,85,o),
(123,146,cs)
);
},
{
closed = 1;
nodes = (
(430,-13,o),
(493,51,o),
(532,109,c),
(508,128,l),
(473,85,o),
(435,56,o),
(410,56,cs),
(397,56,o),
(386,64,o),
(386,78,cs),
(386,89,o),
(389,110,o),
(395,135,cs),
(475,488,l),
(457,497,l),
(411,460,l),
(395,477,o),
(377,487,o),
(354,487,cs),
(225,487,o),
(45,279,o),
(45,105,cs),
(45,22,o),
(92,-13,o),
(140,-13,cs),
(194,-13,o),
(257,32,o),
(315,98,c),
(312,80,o),
(311,64,o),
(311,45,cs),
(311,5,o),
(336,-13,o),
(363,-13,cs)
);
},
{
closed = 1;
nodes = (
(228,577,l),
(241,635,o),
(269,661,o),
(295,661,cs),
(327,661,o),
(347,636,o),
(367,613,cs),
(384,594,o),
(404,575,o),
(442,575,cs),
(493,575,o),
(533,617,o),
(550,703,c),
(525,712,l),
(512,654,o),
(484,628,o),
(458,628,cs),
(427,628,o),
(408,654,o),
(386,677,cs),
(369,695,o),
(350,714,o),
(312,714,cs),
(262,714,o),
(219,672,o),
(204,586,c)
);
}
);
width = 522;
}
);
note = atilde;
unicode = 227;
},
{
glyphname = adieresis;
kernLeft = a;
kernRight = a;
layers = (
{
hints = (
{
horizontal = 1;
place = (497,-20);
target = down;
type = TopGhost;
},
{
horizontal = 1;
place = (624,103);
type = Stem;
},
{
horizontal = 1;
place = (421,66);
type = Stem;
},
{
horizontal = 1;
place = (-13,69);
type = Stem;
},
{
place = (429,100);
type = Stem;
},
{
place = (311,75);
type = Stem;
},
{
place = (234,101);
type = Stem;
},
{
place = (45,78);
type = Stem;
}
);
layerId = m01;
shapes = (
{
closed = 1;
nodes = (
(123,234,o),
(161,313,o),
(209,363,cs),
(245,400,o),
(287,421,o),
(319,421,cs),
(340,421,o),
(361,413,o),
(380,402,c),
(326,152,l),
(260,80,o),
(218,56,o),
(183,56,cs),
(147,56,o),
(123,85,o),
(123,146,cs)
);
},
{
closed = 1;
nodes = (
(430,-13,o),
(493,51,o),
(532,109,c),
(508,128,l),
(473,85,o),
(435,56,o),
(410,56,cs),
(397,56,o),
(386,64,o),
(386,78,cs),
(386,89,o),
(389,110,o),
(395,135,cs),
(475,488,l),
(457,497,l),
(411,460,l),
(395,477,o),
(377,487,o),
(354,487,cs),
(225,487,o),
(45,279,o),
(45,105,cs),
(45,22,o),
(92,-13,o),
(140,-13,cs),
(194,-13,o),
(257,32,o),
(315,98,c),
(312,80,o),
(311,64,o),
(311,45,cs),
(311,5,o),
(336,-13,o),
(363,-13,cs)
);
},
{
closed = 1;
nodes = (
(310,624,o),
(335,648,o),
(335,683,cs),
(335,708,o),
(316,727,o),
(290,727,cs),
(261,727,o),
(234,704,o),
(234,670,cs),
(234,641,o),
(255,624,o),
(280,624,cs)
);
},
{
closed = 1;
nodes = (
(504,624,o),
(529,648,o),
(529,683,cs),
(529,708,o),
(510,727,o),
(483,727,cs),
(456,727,o),
(429,704,o),
(429,670,cs),
(429,641,o),
(450,624,o),
(473,624,cs)
);
}
);
width = 522;
}
);
note = adieresis;
unicode = 228;
},
{
glyphname = amacron;
kernLeft = a;
kernRight = a;
layers = (
{
hints = (
{
horizontal = 1;
place = (497,-20);
target = down;
type = TopGhost;
},
{
horizontal = 1;
place = (613,61);
type = Stem;
},
{
horizontal = 1;
place = (421,66);
type = Stem;
},
{
horizontal = 1;
place = (-13,69);
type = Stem;
},
{
place = (311,75);
type = Stem;
},
{
place = (45,78);
type = Stem;
}
);
layerId = m01;
shapes = (
{
closed = 1;
nodes = (
(123,234,o),
(161,313,o),
(209,363,cs),
(245,400,o),
(287,421,o),
(319,421,cs),
(340,421,o),
(361,413,o),
(380,402,c),
(326,152,l),
(260,80,o),
(218,56,o),
(183,56,cs),
(147,56,o),
(123,85,o),
(123,146,cs)
);
},
{
closed = 1;
nodes = (
(430,-13,o),
(493,51,o),
(532,109,c),
(508,128,l),
(473,85,o),
(435,56,o),
(410,56,cs),
(397,56,o),
(386,64,o),
(386,78,cs),
(386,89,o),
(389,110,o),
(395,135,cs),
(475,488,l),
(457,497,l),
(411,460,l),
(395,477,o),
(377,487,o),
(354,487,cs),
(225,487,o),
(45,279,o),
(45,105,cs),
(45,22,o),
(92,-13,o),
(140,-13,cs),
(194,-13,o),
(257,32,o),
(315,98,c),
(312,80,o),
(311,64,o),
(311,45,cs),
(311,5,o),
(336,-13,o),
(363,-13,cs)
);
},
{
closed = 1;
nodes = (
(236,613,l),
(498,613,l),
(510,674,l),
(249,674,l)
);
}
);
width = 522;
}
);
note = amacron;
unicode = 257;
},
{
glyphname = abreve;
kernLeft = a;
kernRight = a;
layers = (
{
hints = (
{
horizontal = 1;
place = (723,-20);
target = down;
type = TopGhost;
},
{
horizontal = 1;
place = (497,-20);
target = down;
type = TopGhost;
},
{
horizontal = 1;
place = (575,64);
type = Stem;
},
{
horizontal = 1;
place = (421,66);
type = Stem;
},
{
horizontal = 1;
place = (-13,69);
type = Stem;
},
{
place = (311,75);
type = Stem;
},
{
place = (45,78);
type = Stem;
}
);
layerId = m01;
shapes = (
{
closed = 1;
nodes = (
(123,234,o),
(161,313,o),
(209,363,cs),
(245,400,o),
(287,421,o),
(319,421,cs),
(340,421,o),
(361,413,o),
(380,402,c),
(326,152,l),
(260,80,o),
(218,56,o),
(183,56,cs),
(147,56,o),
(123,85,o),
(123,146,cs)
);
},
{
closed = 1;
nodes = (
(430,-13,o),
(493,51,o),
(532,109,c),
(508,128,l),
(473,85,o),
(435,56,o),
(410,56,cs),
(397,56,o),
(386,64,o),
(386,78,cs),
(386,89,o),
(389,110,o),
(395,135,cs),
(475,488,l),
(457,497,l),
(411,460,l),
(395,477,o),
(377,487,o),
(354,487,cs),
(225,487,o),
(45,279,o),
(45,105,cs),
(45,22,o),
(92,-13,o),
(140,-13,cs),
(194,-13,o),
(257,32,o),
(315,98,c),
(312,80,o),
(311,64,o),
(311,45,cs),
(311,5,o),
(336,-13,o),
(363,-13,cs)
);
},
{
closed = 1;
nodes = (
(465,575,o),
(518,650,o),
(540,723,c),
(507,735,l),
(480,682,o),
(438,639,o),
(376,639,cs),
(315,639,o),
(285,683,o),
(267,735,c),
(234,719,l),
(240,649,o),
(272,575,o),
(369,575,cs)
);
}
);
width = 522;
}
);
note = abreve;
unicode = 259;
},
{
glyphname = aring;
kernLeft = a;
kernRight = a;
layers = (
{
hints = (
{
horizontal = 1;
place = (497,-20);
target = down;
type = TopGhost;
},
{
horizontal = 1;
place = (715,37);
type = Stem;
},
{
horizontal = 1;
place = (549,37);
type = Stem;
},
{
horizontal = 1;
place = (421,66);
type = Stem;
},
{
horizontal = 1;
place = (-13,69);
type = Stem;
},
{
place = (451,46);
type = Stem;
},
{
place = (311,75);
type = Stem;
},
{
place = (286,45);
type = Stem;
},
{
place = (45,78);
type = Stem;
}
);
layerId = m01;
shapes = (
{
closed = 1;
nodes = (
(123,234,o),
(161,313,o),
(209,363,cs),
(245,400,o),
(287,421,o),
(319,421,cs),
(340,421,o),
(361,413,o),
(380,402,c),
(326,152,l),
(260,80,o),
(218,56,o),
(183,56,cs),
(147,56,o),
(123,85,o),
(123,146,cs)
);
},
{
closed = 1;
nodes = (
(430,-13,o),
(493,51,o),
(532,109,c),
(508,128,l),
(473,85,o),
(435,56,o),
(410,56,cs),
(397,56,o),
(386,64,o),
(386,78,cs),
(386,89,o),
(389,110,o),
(395,135,cs),
(475,488,l),
(457,497,l),
(411,460,l),
(395,477,o),
(377,487,o),
(354,487,cs),
(225,487,o),
(45,279,o),
(45,105,cs),
(45,22,o),
(92,-13,o),
(140,-13,cs),
(194,-13,o),
(257,32,o),
(315,98,c),
(312,80,o),
(311,64,o),
(311,45,cs),
(311,5,o),
(336,-13,o),
(363,-13,cs)
);
},
{
closed = 1;
nodes = (
(346,586,o),
(331,615,o),
(331,642,cs),
(331,678,o),
(357,715,o),
(398,715,cs),
(434,715,o),
(451,687,o),
(451,659,cs),
(451,620,o),
(421,586,o),
(385,586,cs)
);
},
{
closed = 1;
nodes = (
(437,549,o),
(497,589,o),
(497,663,cs),
(497,718,o),
(450,752,o),
(399,752,cs),
(346,752,o),
(286,712,o),
(286,640,cs),
(286,584,o),
(329,549,o),
(382,549,cs)
);
}
);
width = 522;
}
);
note = aring;
unicode = 229;
},
{
glyphname = aogonek;
kernLeft = a;
kernRight = a;
layers = (
{
anchors = (
{
name = top;
pos = (353,506);
}
);
hints = (
{
horizontal = 1;
place = (497,-20);
target = down;
type = TopGhost;
},
{
horizontal = 1;
place = (421,66);
type = Stem;
},
{
horizontal = 1;
place = (-13,69);
type = Stem;
},
{
horizontal = 1;
place = (-240,46);
type = Stem;
},
{
place = (311,75);
type = Stem;
},
{
place = (292,63);
type = Stem;
},
{
place = (45,78);
type = Stem;
}
);
layerId = m01;
shapes = (
{
closed = 1;
nodes = (
(123,234,o),
(161,313,o),
(209,363,cs),
(245,400,o),
(287,421,o),
(319,421,cs),
(340,421,o),
(361,413,o),
(380,402,c),
(326,152,l),
(260,80,o),
(218,56,o),
(183,56,cs),
(147,56,o),
(123,85,o),
(123,146,cs)
);
},
{
closed = 1;
nodes = (
(292,-210,o),
(324,-240,o),
(381,-240,cs),
(425,-240,o),
(470,-212,o),
(496,-183,c),
(484,-166,l),
(461,-182,o),
(430,-194,o),
(405,-194,cs),
(376,-194,o),
(355,-175,o),
(355,-137,cs),
(355,-79,o),
(398,-27,o),
(447,15,cs),
(480,43,o),
(510,76,o),
(532,109,c),
(508,128,l),
(473,85,o),
(435,56,o),
(410,56,cs),
(397,56,o),
(386,64,o),
(386,78,cs),
(386,89,o),
(389,110,o),
(395,135,cs),
(475,488,l),
(457,497,l),
(411,460,l),
(395,477,o),
(377,487,o),
(354,487,cs),
(225,487,o),
(45,279,o),
(45,105,cs),
(45,22,o),
(92,-13,o),
(140,-13,cs),
(194,-13,o),
(257,32,o),
(315,98,c),
(312,80,o),
(311,64,o),
(311,45,cs),
(311,5,o),
(336,-13,o),
(363,-13,cs),
(369,-13,o),
(376,-12,o),
(382,-11,c),
(336,-56,o),
(292,-106,o),
(292,-162,cs)
);
}
);
width = 522;
}
);
note = aogonek;
unicode = 261;
},
{
glyphname = ae;
kernLeft = a;
kernRight = e;
layers = (
{
anchors = (
{
name = bottom;
pos = (330,-22);
},
{
name = top;
pos = (452,506);
}
);
hints = (
{
horizontal = 1;
place = (444,43);
type = Stem;
},
{
horizontal = 1;
place = (421,66);
type = Stem;
},
{
horizontal = 1;
place = (-13,69);
type = Stem;
},
{
place = (610,66);
type = Stem;
},
{
place = (315,70);
type = Stem;
},
{
place = (45,78);
type = Stem;
}
);
layerId = m01;
shapes = (
{
closed = 1;
nodes = (
(123,234,o),
(161,313,o),
(209,363,cs),
(245,400,o),
(287,421,o),
(319,421,cs),
(346,421,o),
(372,413,o),
(396,394,c),
(347,335,o),
(315,255,o),
(315,173,cs),
(315,162,o),
(315,152,o),
(316,142,c),
(256,78,o),
(218,56,o),
(183,56,cs),
(147,56,o),
(123,85,o),
(123,146,cs)
);
},
{
closed = 1;
nodes = (
(587,444,o),
(610,422,o),
(610,385,cs),
(610,331,o),
(551,262,o),
(385,214,c),
(395,339,o),
(492,444,o),
(554,444,cs)
);
},
{
closed = 1;
nodes = (
(539,-13,o),
(604,43,o),
(646,111,c),
(623,129,l),
(596,95,o),
(551,56,o),
(488,56,cs),
(427,56,o),
(389,90,o),
(385,175,c),
(613,241,o),
(676,331,o),
(676,395,cs),
(676,454,o),
(641,487,o),
(576,487,cs),
(527,487,o),
(480,468,o),
(440,437,c),
(418,467,o),
(391,487,o),
(354,487,cs),
(225,487,o),
(45,279,o),
(45,105,cs),
(45,22,o),
(92,-13,o),
(140,-13,cs),
(195,-13,o),
(263,35,o),
(322,106,c),
(340,25,o),
(395,-13,o),
(466,-13,cs)
);
}
);
width = 667;
}
);
note = ae;
unicode = 230;
},
{
glyphname = ccedilla;
kernLeft = c;
kernRight = c;
layers = (
{
hints = (
{
horizontal = 1;
place = (449,38);
type = Stem;
},
{
horizontal = 1;
place = (-12,68);
type = Stem;
},
{
horizontal = 1;
place = (-231,32);
type = Stem;
},
{
horizontal = 1;
place = (-12,21);
target = up;
type = BottomGhost;
},
{
place = (223,57);
type = Stem;
},
{
place = (54,75);
type = Stem;
}
);
layerId = m01;
shapes = (
{
closed = 1;
nodes = (
(149,-87,l),
(196,-99,o),
(223,-115,o),
(223,-152,cs),
(223,-182,o),
(200,-199,o),
(165,-199,cs),
(140,-199,o),
(121,-193,o),
(99,-183,c),
(88,-208,l),
(109,-221,o),
(143,-231,o),
(177,-231,cs),
(241,-231,o),
(280,-197,o),
(280,-157,cs),
(280,-112,o),
(249,-91,o),
(188,-69,c),
(214,-13,l),
(279,-8,o),
(347,44,o),
(385,111,c),
(362,129,l),
(334,95,o),
(293,56,o),
(240,56,cs),
(174,56,o),
(129,98,o),
(129,185,cs),
(129,308,o),
(202,419,o),
(288,449,c),
(318,415,ls),
(336,395,o),
(355,379,o),
(377,379,cs),
(396,379,o),
(415,389,o),
(419,414,c),
(408,457,o),
(372,487,o),
(311,487,cs),
(185,487,o),
(54,343,o),
(54,174,cs),
(54,58,o),
(108,-4,o),
(186,-12,c)
);
}
);
width = 407;
}
);
note = ccedilla;
unicode = 231;
},
{
glyphname = cacute;
kernLeft = c;
kernRight = c;
layers = (
{
hints = (
{
horizontal = 1;
place = (449,38);
type = Stem;
},
{
horizontal = 1;
place = (-13,69);
type = Stem;
},
{
place = (54,75);
type = Stem;
}
);
layerId = m01;
shapes = (
{
closed = 1;
nodes = (
(272,-13,o),
(345,41,o),
(385,111,c),
(362,129,l),
(334,95,o),
(293,56,o),
(240,56,cs),
(174,56,o),
(129,98,o),
(129,185,cs),
(129,308,o),
(202,419,o),
(288,449,c),
(318,415,ls),
(336,395,o),
(355,379,o),
(377,379,cs),
(396,379,o),
(415,389,o),
(419,414,c),
(408,457,o),
(372,487,o),
(311,487,cs),
(185,487,o),
(54,343,o),
(54,174,cs),
(54,49,o),
(116,-13,o),
(204,-13,cs)
);
},
{
closed = 1;
nodes = (
(332,534,l),
(372,582,o),
(411,628,o),
(451,676,cs),
(467,695,o),
(473,710,o),
(473,725,cs),
(473,748,o),
(455,760,o),
(434,760,cs),
(412,760,o),
(396,744,o),
(383,717,cs),
(359,661,o),
(334,605,o),
(309,549,c)
);
}
);
width = 407;
}
);
note = cacute;
unicode = 263;
},
{
glyphname = ccaron;
kernLeft = c;
kernRight = c;
layers = (
{
hints = (
{
horizontal = 1;
place = (449,38);
type = Stem;
},
{
horizontal = 1;
place = (-13,69);
type = Stem;
},
{
place = (54,75);
type = Stem;
}
);
layerId = m01;
shapes = (
{
closed = 1;
nodes = (
(272,-13,o),
(345,41,o),
(385,111,c),
(362,129,l),
(334,95,o),
(293,56,o),
(240,56,cs),
(174,56,o),
(129,98,o),
(129,185,cs),
(129,308,o),
(202,419,o),
(288,449,c),
(318,415,ls),
(336,395,o),
(355,379,o),
(377,379,cs),
(396,379,o),
(415,389,o),
(419,414,c),
(408,457,o),
(372,487,o),
(311,487,cs),
(185,487,o),
(54,343,o),
(54,174,cs),
(54,49,o),
(116,-13,o),
(204,-13,cs)
);
},
{
closed = 1;
nodes = (
(239,751,l),
(212,732,l),
(309,554,l),
(341,554,l),
(499,732,l),
(479,751,l),
(335,634,l)
);
}
);
width = 407;
}
);
note = ccaron;
unicode = 269;
},
{
glyphname = dcaron;
kernLeft = a;
kernRight = dcaron;
layers = (
{
hints = (
{
horizontal = 1;
place = (421,66);
type = Stem;
},
{
horizontal = 1;
place = (-13,69);
type = Stem;
},
{
place = (315,79);
type = Stem;
},
{
place = (47,77);
type = Stem;
}
);
layerId = m01;
shapes = (
{
closed = 1;
nodes = (
(634,749,o),
(623,747,o),
(608,741,c),
(565,523,l),
(595,520,l),
(628,581,ls),
(652,626,o),
(683,686,o),
(683,719,cs),
(683,732,o),
(679,749,o),
(650,749,cs)
);
},
{
closed = 1;
nodes = (
(124,232,o),
(155,309,o),
(200,359,cs),
(234,397,o),
(277,421,o),
(320,421,cs),
(340,421,o),
(361,414,o),
(381,397,c),
(333,158,l),
(266,82,o),
(223,56,o),
(187,56,cs),
(151,56,o),
(124,85,o),
(124,151,cs)
);
},
{
closed = 1;
nodes = (
(523,732,l),
(511,740,l),
(340,690,l),
(336,661,l),
(437,654,l),
(399,472,l),
(384,482,o),
(369,487,o),
(350,487,cs),
(215,487,o),
(47,279,o),
(47,113,cs),
(47,22,o),
(89,-13,o),
(137,-13,cs),
(192,-13,o),
(262,35,o),
(322,105,c),
(315,70,o),
(314,53,o),
(315,39,cs),
(315,4,o),
(340,-13,o),
(371,-13,cs),
(438,-13,o),
(500,51,o),
(539,109,c),
(515,128,l),
(481,85,o),
(443,56,o),
(417,56,cs),
(405,56,o),
(394,64,o),
(394,78,cs),
(394,89,o),
(397,110,o),
(402,135,cs)
);
}
);
width = 545;
}
);
note = dcaron;
unicode = 271;
},
{
glyphname = dcroat;
kernLeft = a;
kernRight = d;
layers = (
{
hints = (
{
horizontal = 1;
place = (543,37);
type = Stem;
},
{
horizontal = 1;
place = (408,66);
type = Stem;
},
{
horizontal = 1;
place = (-13,69);
type = Stem;
},
{
place = (315,79);
type = Stem;
},
{
place = (47,77);
type = Stem;
}
);
layerId = m01;
shapes = (
{
closed = 1;
nodes = (
(124,227,o),
(156,297,o),
(200,346,cs),
(234,384,o),
(277,408,o),
(320,408,cs),
(339,408,o),
(359,402,o),
(378,386,c),
(333,158,l),
(265,82,o),
(223,56,o),
(187,56,cs),
(151,56,o),
(124,85,o),
(124,151,cs)
);
},
{
closed = 1;
nodes = (
(485,543,l),
(590,543,l),
(598,580,l),
(492,580,l),
(523,732,l),
(511,740,l),
(340,690,l),
(336,661,l),
(437,654,l),
(421,580,l),
(258,580,l),
(251,543,l),
(414,543,l),
(397,460,l),
(382,470,o),
(368,474,o),
(350,474,cs),
(214,474,o),
(47,273,o),
(47,113,cs),
(47,22,o),
(89,-13,o),
(137,-13,cs),
(192,-13,o),
(262,35,o),
(322,105,c),
(315,70,o),
(314,53,o),
(315,39,cs),
(315,4,o),
(340,-13,o),
(371,-13,cs),
(438,-13,o),
(500,51,o),
(539,109,c),
(515,128,l),
(481,85,o),
(443,56,o),
(417,56,cs),
(405,56,o),
(394,64,o),
(394,78,cs),
(394,89,o),
(397,110,o),
(402,135,cs)
);
}
);
width = 524;
}
);
note = dcroat;
unicode = 273;
},
{
glyphname = egrave;
kernLeft = c;
kernRight = e;
layers = (
{
hints = (
{
horizontal = 1;
place = (444,43);
type = Stem;
},
{
horizontal = 1;
place = (-13,69);
type = Stem;
},
{
place = (349,66);
type = Stem;
},
{
place = (54,70);
type = Stem;
}
);
layerId = m01;
shapes = (
{
closed = 1;
nodes = (
(326,444,o),
(349,422,o),
(349,385,cs),
(349,331,o),
(290,262,o),
(124,214,c),
(134,339,o),
(231,444,o),
(293,444,cs)
);
},
{
closed = 1;
nodes = (
(278,-13,o),
(343,43,o),
(385,111,c),
(362,129,l),
(335,95,o),
(290,56,o),
(227,56,cs),
(166,56,o),
(128,90,o),
(124,175,c),
(352,241,o),
(415,331,o),
(415,395,cs),
(415,454,o),
(380,487,o),
(315,487,cs),
(175,487,o),
(54,334,o),
(54,173,cs),
(54,45,o),
(117,-13,o),
(205,-13,cs)
);
},
{
closed = 1;
nodes = (
(352,549,l),
(327,605,o),
(303,661,o),
(278,717,cs),
(266,744,o),
(249,762,o),
(227,762,cs),
(207,762,o),
(189,748,o),
(189,727,cs),
(189,710,o),
(194,695,o),
(210,676,cs),
(250,628,o),
(289,582,o),
(329,534,c)
);
}
);
width = 407;
}
);
note = egrave;
unicode = 232;
},
{
glyphname = eacute;
kernLeft = c;
kernRight = e;
layers = (
{
hints = (
{
horizontal = 1;
place = (444,43);
type = Stem;
},
{
horizontal = 1;
place = (-13,69);
type = Stem;
},
{
place = (349,66);
type = Stem;
},
{
place = (54,70);
type = Stem;
}
);
layerId = m01;
shapes = (
{
closed = 1;
nodes = (
(326,444,o),
(349,422,o),
(349,385,cs),
(349,331,o),
(290,262,o),
(124,214,c),
(134,339,o),
(231,444,o),
(293,444,cs)
);
},
{
closed = 1;
nodes = (
(278,-13,o),
(343,43,o),
(385,111,c),
(362,129,l),
(335,95,o),
(290,56,o),
(227,56,cs),
(166,56,o),
(128,90,o),
(124,175,c),
(352,241,o),
(415,331,o),
(415,395,cs),
(415,454,o),
(380,487,o),
(315,487,cs),
(175,487,o),
(54,334,o),
(54,173,cs),
(54,45,o),
(117,-13,o),
(205,-13,cs)
);
},
{
closed = 1;
nodes = (
(335,534,l),
(375,582,o),
(414,628,o),
(454,676,cs),
(470,695,o),
(476,710,o),
(476,725,cs),
(476,748,o),
(458,760,o),
(437,760,cs),
(415,760,o),
(399,744,o),
(386,717,cs),
(362,661,o),
(337,605,o),
(312,549,c)
);
}
);
width = 407;
}
);
note = eacute;
unicode = 233;
},
{
glyphname = ecircumflex;
kernLeft = c;
kernRight = e;
layers = (
{
hints = (
{
horizontal = 1;
place = (444,43);
type = Stem;
},
{
horizontal = 1;
place = (-13,69);
type = Stem;
},
{
place = (349,66);
type = Stem;
},
{
place = (54,70);
type = Stem;
}
);
layerId = m01;
shapes = (
{
closed = 1;
nodes = (
(326,444,o),
(349,422,o),
(349,385,cs),
(349,331,o),
(290,262,o),
(124,214,c),
(134,339,o),
(231,444,o),
(293,444,cs)
);
},
{
closed = 1;
nodes = (
(278,-13,o),
(343,43,o),
(385,111,c),
(362,129,l),
(335,95,o),
(290,56,o),
(227,56,cs),
(166,56,o),
(128,90,o),
(124,175,c),
(352,241,o),
(415,331,o),
(415,395,cs),
(415,454,o),
(380,487,o),
(315,487,cs),
(175,487,o),
(54,334,o),
(54,173,cs),
(54,45,o),
(117,-13,o),
(205,-13,cs)
);
},
{
closed = 1;
nodes = (
(443,546,l),
(470,567,l),
(370,743,l),
(338,743,l),
(182,567,l),
(202,546,l),
(340,667,l)
);
}
);
width = 407;
}
);
note = ecircumflex;
unicode = 234;
},
{
glyphname = ecaron;
kernLeft = c;
kernRight = e;
layers = (
{
hints = (
{
horizontal = 1;
place = (444,43);
type = Stem;
},
{
horizontal = 1;
place = (-13,69);
type = Stem;
},
{
place = (349,66);
type = Stem;
},
{
place = (54,70);
type = Stem;
}
);
layerId = m01;
shapes = (
{
closed = 1;
nodes = (
(326,444,o),
(349,422,o),
(349,385,cs),
(349,331,o),
(290,262,o),
(124,214,c),
(134,339,o),
(231,444,o),
(293,444,cs)
);
},
{
closed = 1;
nodes = (
(278,-13,o),
(343,43,o),
(385,111,c),
(362,129,l),
(335,95,o),
(290,56,o),
(227,56,cs),
(166,56,o),
(128,90,o),
(124,175,c),
(352,241,o),
(415,331,o),
(415,395,cs),
(415,454,o),
(380,487,o),
(315,487,cs),
(175,487,o),
(54,334,o),
(54,173,cs),
(54,45,o),
(117,-13,o),
(205,-13,cs)
);
},
{
closed = 1;
nodes = (
(240,751,l),
(213,732,l),
(310,554,l),
(342,554,l),
(500,732,l),
(480,751,l),
(336,634,l)
);
}
);
width = 407;
}
);
note = ecaron;
unicode = 283;
},
{
glyphname = edieresis;
kernLeft = c;
kernRight = e;
layers = (
{
hints = (
{
horizontal = 1;
place = (624,103);
type = Stem;
},
{
horizontal = 1;
place = (444,43);
type = Stem;
},
{
horizontal = 1;
place = (-13,69);
type = Stem;
},
{
place = (389,100);
type = Stem;
},
{
place = (349,66);
type = Stem;
},
{
place = (194,101);
type = Stem;
},
{
place = (54,70);
type = Stem;
}
);
layerId = m01;
shapes = (
{
closed = 1;
nodes = (
(326,444,o),
(349,422,o),
(349,385,cs),
(349,331,o),
(290,262,o),
(124,214,c),
(134,339,o),
(231,444,o),
(293,444,cs)
);
},
{
closed = 1;
nodes = (
(278,-13,o),
(343,43,o),
(385,111,c),
(362,129,l),
(335,95,o),
(290,56,o),
(227,56,cs),
(166,56,o),
(128,90,o),
(124,175,c),
(352,241,o),
(415,331,o),
(415,395,cs),
(415,454,o),
(380,487,o),
(315,487,cs),
(175,487,o),
(54,334,o),
(54,173,cs),
(54,45,o),
(117,-13,o),
(205,-13,cs)
);
},
{
closed = 1;
nodes = (
(270,624,o),
(295,648,o),
(295,683,cs),
(295,708,o),
(276,727,o),
(250,727,cs),
(221,727,o),
(194,704,o),
(194,670,cs),
(194,641,o),
(215,624,o),
(240,624,cs)
);
},
{
closed = 1;
nodes = (
(464,624,o),
(489,648,o),
(489,683,cs),
(489,708,o),
(470,727,o),
(443,727,cs),
(416,727,o),
(389,704,o),
(389,670,cs),
(389,641,o),
(410,624,o),
(433,624,cs)
);
}
);
width = 407;
}
);
note = edieresis;
unicode = 235;
},
{
glyphname = emacron;
kernLeft = c;
kernRight = e;
layers = (
{
hints = (
{
horizontal = 1;
place = (613,61);
type = Stem;
},
{
horizontal = 1;
place = (444,43);
type = Stem;
},
{
horizontal = 1;
place = (-13,69);
type = Stem;
},
{
place = (349,66);
type = Stem;
},
{
place = (54,70);
type = Stem;
}
);
layerId = m01;
shapes = (
{
closed = 1;
nodes = (
(326,444,o),
(349,422,o),
(349,385,cs),
(349,331,o),
(290,262,o),
(124,214,c),
(134,339,o),
(231,444,o),
(293,444,cs)
);
},
{
closed = 1;
nodes = (
(278,-13,o),
(343,43,o),
(385,111,c),
(362,129,l),
(335,95,o),
(290,56,o),
(227,56,cs),
(166,56,o),
(128,90,o),
(124,175,c),
(352,241,o),
(415,331,o),
(415,395,cs),
(415,454,o),
(380,487,o),
(315,487,cs),
(175,487,o),
(54,334,o),
(54,173,cs),
(54,45,o),
(117,-13,o),
(205,-13,cs)
);
},
{
closed = 1;
nodes = (
(194,613,l),
(456,613,l),
(468,674,l),
(207,674,l)
);
}
);
width = 407;
}
);
note = emacron;
unicode = 275;
},
{
glyphname = edotaccent;
kernLeft = c;
kernRight = e;
layers = (
{
hints = (
{
horizontal = 1;
place = (626,115);
type = Stem;
},
{
horizontal = 1;
place = (444,43);
type = Stem;
},
{
horizontal = 1;
place = (-13,69);
type = Stem;
},
{
place = (349,66);
type = Stem;
},
{
place = (291,107);
type = Stem;
},
{
place = (54,70);
type = Stem;
}
);
layerId = m01;
shapes = (
{
closed = 1;
nodes = (
(326,444,o),
(349,422,o),
(349,385,cs),
(349,331,o),
(290,262,o),
(124,214,c),
(134,339,o),
(231,444,o),
(293,444,cs)
);
},
{
closed = 1;
nodes = (
(278,-13,o),
(343,43,o),
(385,111,c),
(362,129,l),
(335,95,o),
(290,56,o),
(227,56,cs),
(166,56,o),
(128,90,o),
(124,175,c),
(352,241,o),
(415,331,o),
(415,395,cs),
(415,454,o),
(380,487,o),
(315,487,cs),
(175,487,o),
(54,334,o),
(54,173,cs),
(54,45,o),
(117,-13,o),
(205,-13,cs)
);
},
{
closed = 1;
nodes = (
(372,626,o),
(398,655,o),
(398,688,cs),
(398,720,o),
(377,741,o),
(347,741,cs),
(318,741,o),
(291,713,o),
(291,680,cs),
(291,647,o),
(313,626,o),
(343,626,cs)
);
}
);
width = 407;
}
);
note = edotaccent;
unicode = 279;
},
{
glyphname = eogonek;
kernLeft = c;
kernRight = e;
layers = (
{
anchors = (
{
name = top;
pos = (319,506);
}
);
hints = (
{
horizontal = 1;
place = (444,43);
type = Stem;
},
{
horizontal = 1;
place = (-13,69);
type = Stem;
},
{
horizontal = 1;
place = (-240,46);
type = Stem;
},
{
place = (349,66);
type = Stem;
},
{
place = (144,63);
type = Stem;
},
{
place = (54,70);
type = Stem;
}
);
layerId = m01;
shapes = (
{
closed = 1;
nodes = (
(326,444,o),
(349,422,o),
(349,385,cs),
(349,331,o),
(290,262,o),
(124,214,c),
(134,339,o),
(231,444,o),
(293,444,cs)
);
},
{
closed = 1;
nodes = (
(277,-240,o),
(322,-212,o),
(348,-183,c),
(336,-166,l),
(313,-182,o),
(281,-194,o),
(257,-194,cs),
(228,-194,o),
(207,-175,o),
(207,-137,cs),
(207,-76,o),
(254,-23,o),
(306,21,cs),
(340,49,o),
(363,77,o),
(385,111,c),
(362,129,l),
(335,95,o),
(290,56,o),
(227,56,cs),
(166,56,o),
(128,90,o),
(124,175,c),
(352,241,o),
(415,331,o),
(415,395,cs),
(415,454,o),
(380,487,o),
(315,487,cs),
(175,487,o),
(54,334,o),
(54,173,cs),
(54,45,o),
(117,-13,o),
(205,-13,cs),
(216,-13,o),
(227,-12,o),
(237,-9,c),
(188,-55,o),
(144,-106,o),
(144,-162,cs),
(144,-210,o),
(176,-240,o),
(233,-240,cs)
);
}
);
width = 407;
}
);
note = eogonek;
unicode = 281;
},
{
glyphname = gbreve;
kernLeft = g;
kernRight = g;
layers = (
{
hints = (
{
horizontal = 1;
place = (723,-20);
target = down;
type = TopGhost;
},
{
horizontal = 1;
place = (498,-20);
target = down;
type = TopGhost;
},
{
horizontal = 1;
place = (575,64);
type = Stem;
},
{
horizontal = 1;
place = (455,32);
type = Stem;
},
{
horizontal = 1;
place = (155,32);
type = Stem;
},
{
horizontal = 1;
place = (-7,72);
type = Stem;
},
{
horizontal = 1;
place = (-241,47);
type = Stem;
},
{
horizontal = 1;
place = (-7,21);
target = up;
type = BottomGhost;
},
{
place = (358,69);
type = Stem;
},
{
place = (83,77);
type = Stem;
},
{
place = (57,72);
type = Stem;
},
{
place = (-25,78);
type = Stem;
}
);
layerId = m01;
shapes = (
{
closed = 1;
nodes = (
(187,186,o),
(160,224,o),
(160,295,cs),
(160,388,o),
(194,453,o),
(264,455,cs),
(306,456,o),
(341,417,o),
(341,353,cs),
(341,247,o),
(302,188,o),
(239,187,cs)
);
},
{
closed = 1;
nodes = (
(83,244,o),
(100,207,o),
(132,184,c),
(85,151,o),
(57,119,o),
(57,82,cs),
(57,61,o),
(66,33,o),
(101,16,c),
(32,-17,o),
(-25,-75,o),
(-25,-135,cs),
(-25,-207,o),
(45,-241,o),
(138,-241,cs),
(304,-241,o),
(427,-155,o),
(427,-50,cs),
(427,7,o),
(387,45,o),
(280,59,cs),
(181,71,ls),
(141,76,o),
(129,99,o),
(129,116,cs),
(129,130,o),
(132,144,o),
(154,170,c),
(175,160,o),
(201,155,o),
(231,155,cs),
(311,155,o),
(382,213,o),
(412,342,cs),
(417,365,o),
(422,384,o),
(429,401,c),
(493,419,o),
(528,431,o),
(528,471,cs),
(528,479,o),
(524,486,o),
(519,492,c),
(512,496,o),
(502,498,o),
(489,498,cs),
(452,498,o),
(415,472,o),
(396,393,c),
(383,453,o),
(336,487,o),
(272,487,cs),
(168,487,o),
(83,399,o),
(83,290,cs)
);
},
{
closed = 1;
nodes = (
(412,575,o),
(465,650,o),
(487,723,c),
(454,735,l),
(427,682,o),
(385,639,o),
(323,639,cs),
(262,639,o),
(232,683,o),
(214,735,c),
(181,719,l),
(187,649,o),
(219,575,o),
(316,575,cs)
);
},
{
closed = 1;
nodes = (
(53,-60,o),
(80,-30,o),
(134,5,c),
(139,4,o),
(145,3,o),
(151,2,cs),
(231,-7,ls),
(334,-19,o),
(358,-51,o),
(358,-88,cs),
(358,-152,o),
(288,-194,o),
(182,-194,cs),
(101,-194,o),
(53,-160,o),
(53,-102,cs)
);
}
);
width = 486;
}
);
note = gbreve;
unicode = 287;
},
{
glyphname = gdotaccent;
kernLeft = g;
kernRight = g;
layers = (
{
hints = (
{
horizontal = 1;
place = (498,-20);
target = down;
type = TopGhost;
},
{
horizontal = 1;
place = (626,115);
type = Stem;
},
{
horizontal = 1;
place = (455,32);
type = Stem;
},
{
horizontal = 1;
place = (155,32);
type = Stem;
},
{
horizontal = 1;
place = (-7,72);
type = Stem;
},
{
horizontal = 1;
place = (-241,47);
type = Stem;
},
{
horizontal = 1;
place = (-7,21);
target = up;
type = BottomGhost;
},
{
place = (358,69);
type = Stem;
},
{
place = (264,107);
type = Stem;
},
{
place = (83,77);
type = Stem;
},
{
place = (57,72);
type = Stem;
},
{
place = (-25,78);
type = Stem;
}
);
layerId = m01;
shapes = (
{
closed = 1;
nodes = (
(187,186,o),
(160,224,o),
(160,295,cs),
(160,388,o),
(194,453,o),
(264,455,cs),
(306,456,o),
(341,417,o),
(341,353,cs),
(341,247,o),
(302,188,o),
(239,187,cs)
);
},
{
closed = 1;
nodes = (
(345,626,o),
(371,655,o),
(371,688,cs),
(371,720,o),
(350,741,o),
(320,741,cs),
(291,741,o),
(264,713,o),
(264,680,cs),
(264,647,o),
(286,626,o),
(316,626,cs)
);
},
{
closed = 1;
nodes = (
(83,244,o),
(100,207,o),
(132,184,c),
(85,151,o),
(57,119,o),
(57,82,cs),
(57,61,o),
(66,33,o),
(101,16,c),
(32,-17,o),
(-25,-75,o),
(-25,-135,cs),
(-25,-207,o),
(45,-241,o),
(138,-241,cs),
(304,-241,o),
(427,-155,o),
(427,-50,cs),
(427,7,o),
(387,45,o),
(280,59,cs),
(181,71,ls),
(141,76,o),
(129,99,o),
(129,116,cs),
(129,130,o),
(132,144,o),
(154,170,c),
(175,160,o),
(201,155,o),
(231,155,cs),
(311,155,o),
(382,213,o),
(412,342,cs),
(417,365,o),
(422,384,o),
(429,401,c),
(493,419,o),
(528,431,o),
(528,471,cs),
(528,479,o),
(524,486,o),
(519,492,c),
(512,496,o),
(502,498,o),
(489,498,cs),
(452,498,o),
(415,472,o),
(396,393,c),
(383,453,o),
(336,487,o),
(272,487,cs),
(168,487,o),
(83,399,o),
(83,290,cs)
);
},
{
closed = 1;
nodes = (
(53,-60,o),
(80,-30,o),
(134,5,c),
(139,4,o),
(145,3,o),
(151,2,cs),
(231,-7,ls),
(334,-19,o),
(358,-51,o),
(358,-88,cs),
(358,-152,o),
(288,-194,o),
(182,-194,cs),
(101,-194,o),
(53,-160,o),
(53,-102,cs)
);
}
);
width = 486;
}
);
note = gdotaccent;
unicode = 289;
},
{
glyphname = uni0123;
kernLeft = g;
kernRight = g;
layers = (
{
hints = (
{
horizontal = 1;
place = (498,-20);
target = down;
type = TopGhost;
},
{
horizontal = 1;
place = (455,32);
type = Stem;
},
{
horizontal = 1;
place = (155,32);
type = Stem;
},
{
horizontal = 1;
place = (-7,72);
type = Stem;
},
{
horizontal = 1;
place = (-241,47);
type = Stem;
},
{
horizontal = 1;
place = (-7,21);
target = up;
type = BottomGhost;
},
{
place = (358,69);
type = Stem;
},
{
place = (252,96);
type = Stem;
},
{
place = (83,77);
type = Stem;
},
{
place = (57,72);
type = Stem;
},
{
place = (-25,78);
type = Stem;
}
);
layerId = m01;
shapes = (
{
closed = 1;
nodes = (
(360,770,l),
(295,734,o),
(252,704,o),
(252,637,cs),
(252,625,o),
(254,613,o),
(262,593,c),
(276,581,o),
(290,575,o),
(304,575,cs),
(328,575,o),
(348,592,o),
(348,617,cs),
(348,642,o),
(333,664,o),
(306,680,c),
(324,710,o),
(342,725,o),
(375,747,c)
);
},
{
closed = 1;
nodes = (
(187,186,o),
(160,224,o),
(160,295,cs),
(160,388,o),
(194,453,o),
(264,455,cs),
(306,456,o),
(341,417,o),
(341,353,cs),
(341,247,o),
(302,188,o),
(239,187,cs)
);
},
{
closed = 1;
nodes = (
(83,244,o),
(100,207,o),
(132,184,c),
(85,151,o),
(57,119,o),
(57,82,cs),
(57,61,o),
(66,33,o),
(101,16,c),
(32,-17,o),
(-25,-75,o),
(-25,-135,cs),
(-25,-207,o),
(45,-241,o),
(138,-241,cs),
(304,-241,o),
(427,-155,o),
(427,-50,cs),
(427,7,o),
(387,45,o),
(280,59,cs),
(181,71,ls),
(141,76,o),
(129,99,o),
(129,116,cs),
(129,130,o),
(132,144,o),
(154,170,c),
(175,160,o),
(201,155,o),
(231,155,cs),
(311,155,o),
(382,213,o),
(412,342,cs),
(417,365,o),
(422,384,o),
(429,401,c),
(493,419,o),
(528,431,o),
(528,471,cs),
(528,479,o),
(524,486,o),
(519,492,c),
(512,496,o),
(502,498,o),
(489,498,cs),
(452,498,o),
(415,472,o),
(396,393,c),
(383,453,o),
(336,487,o),
(272,487,cs),
(168,487,o),
(83,399,o),
(83,290,cs)
);
},
{
closed = 1;
nodes = (
(53,-60,o),
(80,-30,o),
(134,5,c),
(139,4,o),
(145,3,o),
(151,2,cs),
(231,-7,ls),
(334,-19,o),
(358,-51,o),
(358,-88,cs),
(358,-152,o),
(288,-194,o),
(182,-194,cs),
(101,-194,o),
(53,-160,o),
(53,-102,cs)
);
}
);
width = 486;
}
);
note = uni0123;
unicode = 291;
},
{
glyphname = igrave;
kernLeft = i;
kernRight = i;
layers = (
{
hints = (
{
horizontal = 1;
place = (487,-20);
target = down;
type = TopGhost;
},
{
horizontal = 1;
place = (404,32);
type = Stem;
},
{
horizontal = 1;
place = (-13,69);
type = Stem;
},
{
place = (90,79);
type = Stem;
}
);
layerId = m01;
shapes = (
{
closed = 1;
nodes = (
(90,4,o),
(117,-13,o),
(144,-13,cs),
(215,-13,o),
(267,49,o),
(312,109,c),
(287,128,l),
(247,80,o),
(215,56,o),
(191,56,cs),
(180,56,o),
(169,64,o),
(169,78,cs),
(169,89,o),
(173,110,o),
(178,135,cs),
(249,477,l),
(236,487,l),
(66,436,l),
(62,407,l),
(161,401,l),
(101,111,ls),
(92,70,o),
(90,53,o),
(90,38,cs)
);
},
{
closed = 1;
nodes = (
(244,549,l),
(219,605,o),
(195,661,o),
(170,717,cs),
(158,744,o),
(141,762,o),
(119,762,cs),
(99,762,o),
(81,748,o),
(81,727,cs),
(81,710,o),
(86,695,o),
(102,676,cs),
(142,628,o),
(181,582,o),
(221,534,c)
);
}
);
width = 305;
}
);
note = igrave;
unicode = 236;
},
{
glyphname = iacute;
kernLeft = i;
kernRight = i;
layers = (
{
hints = (
{
horizontal = 1;
place = (487,-20);
target = down;
type = TopGhost;
},
{
horizontal = 1;
place = (404,32);
type = Stem;
},
{
horizontal = 1;
place = (-13,69);
type = Stem;
},
{
place = (90,79);
type = Stem;
}
);
layerId = m01;
shapes = (
{
closed = 1;
nodes = (
(90,4,o),
(117,-13,o),
(144,-13,cs),
(215,-13,o),
(267,49,o),
(312,109,c),
(287,128,l),
(247,80,o),
(215,56,o),
(191,56,cs),
(180,56,o),
(169,64,o),
(169,78,cs),
(169,89,o),
(173,110,o),
(178,135,cs),
(249,477,l),
(236,487,l),
(66,436,l),
(62,407,l),
(161,401,l),
(101,111,ls),
(92,70,o),
(90,53,o),
(90,38,cs)
);
},
{
closed = 1;
nodes = (
(245,534,l),
(285,582,o),
(324,628,o),
(364,676,cs),
(380,695,o),
(386,710,o),
(386,725,cs),
(386,748,o),
(368,760,o),
(347,760,cs),
(325,760,o),
(309,744,o),
(296,717,cs),
(272,661,o),
(247,605,o),
(222,549,c)
);
}
);
width = 305;
}
);
note = iacute;
unicode = 237;
},
{
glyphname = icircumflex;
kernLeft = icircumflex;
kernRight = icircumflex;
layers = (
{
hints = (
{
horizontal = 1;
place = (487,-20);
target = down;
type = TopGhost;
},
{
horizontal = 1;
place = (404,32);
type = Stem;
},
{
horizontal = 1;
place = (-13,69);
type = Stem;
},
{
place = (90,79);
type = Stem;
}
);
layerId = m01;
shapes = (
{
closed = 1;
nodes = (
(90,4,o),
(117,-13,o),
(144,-13,cs),
(215,-13,o),
(267,49,o),
(312,109,c),
(287,128,l),
(247,80,o),
(215,56,o),
(191,56,cs),
(180,56,o),
(169,64,o),
(169,78,cs),
(169,89,o),
(173,110,o),
(178,135,cs),
(249,477,l),
(236,487,l),
(66,436,l),
(62,407,l),
(161,401,l),
(101,111,ls),
(92,70,o),
(90,53,o),
(90,38,cs)
);
},
{
closed = 1;
nodes = (
(339,546,l),
(366,567,l),
(266,743,l),
(234,743,l),
(78,567,l),
(98,546,l),
(236,667,l)
);
}
);
width = 305;
}
);
note = icircumflex;
unicode = 238;
},
{
glyphname = idieresis;
kernLeft = icircumflex;
kernRight = icircumflex;
layers = (
{
hints = (
{
horizontal = 1;
place = (487,-20);
target = down;
type = TopGhost;
},
{
horizontal = 1;
place = (624,103);
type = Stem;
},
{
horizontal = 1;
place = (404,32);
type = Stem;
},
{
horizontal = 1;
place = (-13,69);
type = Stem;
},
{
place = (299,100);
type = Stem;
},
{
place = (104,101);
type = Stem;
},
{
place = (90,79);
type = Stem;
}
);
layerId = m01;
shapes = (
{
closed = 1;
nodes = (
(90,4,o),
(117,-13,o),
(144,-13,cs),
(215,-13,o),
(267,49,o),
(312,109,c),
(287,128,l),
(247,80,o),
(215,56,o),
(191,56,cs),
(180,56,o),
(169,64,o),
(169,78,cs),
(169,89,o),
(173,110,o),
(178,135,cs),
(249,477,l),
(236,487,l),
(66,436,l),
(62,407,l),
(161,401,l),
(101,111,ls),
(92,70,o),
(90,53,o),
(90,38,cs)
);
},
{
closed = 1;
nodes = (
(180,624,o),
(205,648,o),
(205,683,cs),
(205,708,o),
(186,727,o),
(160,727,cs),
(131,727,o),
(104,704,o),
(104,670,cs),
(104,641,o),
(125,624,o),
(150,624,cs)
);
},
{
closed = 1;
nodes = (
(374,624,o),
(399,648,o),
(399,683,cs),
(399,708,o),
(380,727,o),
(353,727,cs),
(326,727,o),
(299,704,o),
(299,670,cs),
(299,641,o),
(320,624,o),
(343,624,cs)
);
}
);
width = 305;
}
);
note = idieresis;
unicode = 239;
},
{
glyphname = imacron;
kernLeft = icircumflex;
kernRight = icircumflex;
layers = (
{
hints = (
{
horizontal = 1;
place = (487,-20);
target = down;
type = TopGhost;
},
{
horizontal = 1;
place = (613,61);
type = Stem;
},
{
horizontal = 1;
place = (404,32);
type = Stem;
},
{
horizontal = 1;
place = (-13,69);
type = Stem;
},
{
place = (90,79);
type = Stem;
}
);
layerId = m01;
shapes = (
{
closed = 1;
nodes = (
(90,4,o),
(117,-13,o),
(144,-13,cs),
(215,-13,o),
(267,49,o),
(312,109,c),
(287,128,l),
(247,80,o),
(215,56,o),
(191,56,cs),
(180,56,o),
(169,64,o),
(169,78,cs),
(169,89,o),
(173,110,o),
(178,135,cs),
(249,477,l),
(236,487,l),
(66,436,l),
(62,407,l),
(161,401,l),
(101,111,ls),
(92,70,o),
(90,53,o),
(90,38,cs)
);
},
{
closed = 1;
nodes = (
(112,613,l),
(374,613,l),
(386,674,l),
(125,674,l)
);
}
);
width = 305;
}
);
note = imacron;
unicode = 299;
},
{
glyphname = iogonek;
kernLeft = i;
kernRight = i;
layers = (
{
hints = (
{
horizontal = 1;
place = (487,-20);
target = down;
type = TopGhost;
},
{
horizontal = 1;
place = (623,121);
type = Stem;
},
{
horizontal = 1;
place = (404,32);
type = Stem;
},
{
horizontal = 1;
place = (-13,69);
type = Stem;
},
{
horizontal = 1;
place = (-240,46);
type = Stem;
},
{
horizontal = 1;
place = (-11,21);
target = up;
type = BottomGhost;
},
{
place = (183,113);
type = Stem;
},
{
place = (90,79);
type = Stem;
},
{
place = (75,63);
type = Stem;
}
);
layerId = m01;
shapes = (
{
closed = 1;
nodes = (
(268,623,o),
(296,654,o),
(296,686,cs),
(296,722,o),
(274,744,o),
(242,744,cs),
(211,744,o),
(183,715,o),
(183,682,cs),
(183,645,o),
(205,623,o),
(237,623,cs)
);
},
{
closed = 1;
nodes = (
(90,4,o),
(117,-13,o),
(144,-13,cs),
(151,-13,o),
(158,-12,o),
(165,-11,c),
(119,-56,o),
(75,-106,o),
(75,-162,cs),
(75,-210,o),
(107,-240,o),
(164,-240,cs),
(208,-240,o),
(253,-212,o),
(279,-183,c),
(267,-166,l),
(244,-182,o),
(213,-194,o),
(188,-194,cs),
(159,-194,o),
(138,-175,o),
(138,-137,cs),
(138,-77,o),
(182,-25,o),
(229,18,cs),
(258,45,o),
(287,76,o),
(312,109,c),
(287,128,l),
(247,80,o),
(215,56,o),
(191,56,cs),
(180,56,o),
(169,64,o),
(169,78,cs),
(169,89,o),
(173,110,o),
(178,135,cs),
(249,477,l),
(236,487,l),
(66,436,l),
(62,407,l),
(161,401,l),
(101,111,ls),
(92,70,o),
(90,53,o),
(90,38,cs)
);
}
);
width = 305;
}
);
note = iogonek;
unicode = 303;
},
{
glyphname = i.trk;
kernLeft = i;
kernRight = i;
layers = (
{
hints = (
{
horizontal = 1;
place = (487,-20);
target = down;
type = TopGhost;
},
{
horizontal = 1;
place = (623,121);
type = Stem;
},
{
horizontal = 1;
place = (404,32);
type = Stem;
},
{
horizontal = 1;
place = (-13,69);
type = Stem;
},
{
place = (183,113);
type = Stem;
},
{
place = (90,79);
type = Stem;
}
);
layerId = m01;
shapes = (
{
closed = 1;
nodes = (
(90,4,o),
(117,-13,o),
(144,-13,cs),
(215,-13,o),
(267,49,o),
(312,109,c),
(287,128,l),
(247,80,o),
(215,56,o),
(191,56,cs),
(180,56,o),
(169,64,o),
(169,78,cs),
(169,89,o),
(173,110,o),
(178,135,cs),
(249,477,l),
(236,487,l),
(66,436,l),
(62,407,l),
(161,401,l),
(101,111,ls),
(92,70,o),
(90,53,o),
(90,38,cs)
);
},
{
closed = 1;
nodes = (
(268,623,o),
(296,654,o),
(296,686,cs),
(296,722,o),
(274,744,o),
(242,744,cs),
(211,744,o),
(183,715,o),
(183,682,cs),
(183,645,o),
(205,623,o),
(237,623,cs)
);
}
);
width = 305;
}
);
note = i.trk;
},
{
glyphname = dotlessi;
kernLeft = m;
kernRight = i;
layers = (
{
anchors = (
{
name = bottom;
pos = (138,-22);
},
{
name = ogonek;
pos = (181,0);
},
{
name = top;
pos = (215,506);
}
);
hints = (
{
horizontal = 1;
place = (487,-20);
target = down;
type = TopGhost;
},
{
horizontal = 1;
place = (404,32);
type = Stem;
},
{
horizontal = 1;
place = (-13,69);
type = Stem;
},
{
place = (90,79);
type = Stem;
}
);
layerId = m01;
shapes = (
{
closed = 1;
nodes = (
(90,4,o),
(117,-13,o),
(144,-13,cs),
(215,-13,o),
(267,49,o),
(312,109,c),
(287,128,l),
(247,80,o),
(215,56,o),
(191,56,cs),
(180,56,o),
(169,64,o),
(169,78,cs),
(169,89,o),
(173,110,o),
(178,135,cs),
(249,477,l),
(236,487,l),
(66,436,l),
(62,407,l),
(161,401,l),
(101,111,ls),
(92,70,o),
(90,53,o),
(90,38,cs)
);
}
);
width = 305;
}
);
note = dotlessi;
unicode = 305;
},
{
glyphname = uni0237;
kernLeft = j;
kernRight = j;
layers = (
{
anchors = (
{
name = top;
pos = (215,506);
}
);
hints = (
{
horizontal = 1;
place = (487,-20);
target = down;
type = TopGhost;
},
{
horizontal = 1;
place = (404,32);
type = Stem;
},
{
place = (-70,318);
type = Stem;
}
);
layerId = m01;
shapes = (
{
closed = 1;
nodes = (
(-62,-248,l),
(-27,-242,o),
(7,-226,o),
(39,-199,cs),
(102,-146,o),
(141,-70,o),
(160,23,cs),
(248,477,l),
(235,487,l),
(66,436,l),
(63,407,l),
(161,401,l),
(93,48,ls),
(71,-73,o),
(45,-123,o),
(11,-166,cs),
(-9,-191,o),
(-34,-205,o),
(-70,-220,c)
);
}
);
width = 260;
}
);
note = uni0237;
unicode = 567;
},
{
glyphname = uni0137;
kernLeft = b;
kernRight = k;
layers = (
{
hints = (
{
horizontal = 1;
place = (658,32);
type = Stem;
},
{
horizontal = 1;
place = (-13,45);
type = Stem;
},
{
horizontal = 1;
place = (0,21);
target = up;
type = BottomGhost;
},
{
horizontal = 1;
place = (-8,21);
target = up;
type = BottomGhost;
},
{
horizontal = 1;
place = (-227,21);
target = up;
type = BottomGhost;
},
{
place = (165,96);
type = Stem;
}
);
layerId = m01;
shapes = (
{
closed = 1;
nodes = (
(61,0,l),
(71,-8,l),
(137,0,l),
(149,70,o),
(161,140,o),
(175,210,cs),
(179,232,l),
(188,229,ls),
(223,219,o),
(238,201,o),
(262,145,cs),
(294,67,ls),
(323,-3,o),
(356,-13,o),
(403,-13,cs),
(425,-13,o),
(444,-10,o),
(474,0,c),
(479,30,l),
(428,34,ls),
(397,36,o),
(382,44,o),
(360,92,cs),
(331,155,ls),
(308,205,o),
(277,239,o),
(219,250,cs),
(196,255,l),
(439,389,ls),
(476,409,o),
(491,423,o),
(491,441,cs),
(491,462,o),
(475,481,o),
(454,482,c),
(188,275,l),
(278,732,l),
(272,740,l),
(99,690,l),
(95,661,l),
(190,655,l),
(180,595,o),
(169,536,o),
(157,477,cs)
);
},
{
closed = 1;
nodes = (
(154,-250,l),
(218,-214,o),
(261,-184,o),
(261,-117,cs),
(261,-105,o),
(259,-93,o),
(251,-73,c),
(238,-61,o),
(224,-55,o),
(210,-55,cs),
(185,-55,o),
(165,-72,o),
(165,-98,cs),
(165,-124,o),
(181,-145,o),
(208,-161,c),
(190,-190,o),
(171,-205,o),
(138,-227,c)
);
}
);
width = 472;
}
);
note = uni0137;
unicode = 311;
},
{
glyphname = lacute;
kernLeft = b;
kernRight = d;
layers = (
{
hints = (
{
horizontal = 1;
place = (658,32);
type = Stem;
},
{
horizontal = 1;
place = (-13,69);
type = Stem;
},
{
place = (74,77);
type = Stem;
}
);
layerId = m01;
shapes = (
{
closed = 1;
nodes = (
(201,-13,o),
(251,50,o),
(294,109,c),
(271,128,l),
(231,82,o),
(197,56,o),
(176,56,cs),
(163,56,o),
(151,64,o),
(151,79,cs),
(151,89,o),
(154,110,o),
(160,137,cs),
(280,732,l),
(269,740,l),
(97,690,l),
(93,661,l),
(187,655,l),
(178,595,o),
(167,536,o),
(155,477,cs),
(83,112,ls),
(77,77,o),
(74,59,o),
(74,45,cs),
(74,6,o),
(99,-13,o),
(130,-13,cs)
);
},
{
closed = 1;
nodes = (
(234,763,l),
(284,785,o),
(335,806,o),
(385,828,cs),
(433,850,o),
(439,866,o),
(439,883,cs),
(439,904,o),
(422,917,o),
(402,917,cs),
(377,917,o),
(367,907,o),
(334,880,cs),
(296,848,o),
(259,817,o),
(221,785,c)
);
}
);
width = 279;
}
);
note = lacute;
unicode = 314;
},
{
glyphname = lcaron;
kernLeft = b;
kernRight = dcaron;
layers = (
{
hints = (
{
horizontal = 1;
place = (658,32);
type = Stem;
},
{
horizontal = 1;
place = (-13,69);
type = Stem;
},
{
place = (74,77);
type = Stem;
}
);
layerId = m01;
shapes = (
{
closed = 1;
nodes = (
(392,749,o),
(381,747,o),
(366,741,c),
(323,523,l),
(353,520,l),
(387,581,ls),
(411,626,o),
(442,686,o),
(442,719,cs),
(442,732,o),
(437,749,o),
(408,749,cs)
);
},
{
closed = 1;
nodes = (
(201,-13,o),
(251,50,o),
(294,109,c),
(271,128,l),
(231,82,o),
(197,56,o),
(176,56,cs),
(163,56,o),
(151,64,o),
(151,79,cs),
(151,89,o),
(154,110,o),
(160,137,cs),
(280,732,l),
(269,740,l),
(97,690,l),
(93,661,l),
(187,655,l),
(178,595,o),
(167,536,o),
(155,477,cs),
(83,112,ls),
(77,77,o),
(74,59,o),
(74,45,cs),
(74,6,o),
(99,-13,o),
(130,-13,cs)
);
}
);
width = 303;
}
);
note = lcaron;
unicode = 318;
},
{
glyphname = uni013C;
kernLeft = b;
kernRight = d;
layers = (
{
hints = (
{
horizontal = 1;
place = (658,32);
type = Stem;
},
{
horizontal = 1;
place = (-13,69);
type = Stem;
},
{
horizontal = 1;
place = (-227,21);
target = up;
type = BottomGhost;
},
{
place = (74,96);
type = Stem;
},
{
place = (74,77);
type = Stem;
}
);
layerId = m01;
shapes = (
{
closed = 1;
nodes = (
(201,-13,o),
(251,50,o),
(294,109,c),
(271,128,l),
(231,82,o),
(197,56,o),
(176,56,cs),
(163,56,o),
(151,64,o),
(151,79,cs),
(151,89,o),
(154,110,o),
(160,137,cs),
(280,732,l),
(269,740,l),
(97,690,l),
(93,661,l),
(187,655,l),
(178,595,o),
(167,536,o),
(155,477,cs),
(83,112,ls),
(77,77,o),
(74,59,o),
(74,45,cs),
(74,6,o),
(99,-13,o),
(130,-13,cs)
);
},
{
closed = 1;
nodes = (
(63,-250,l),
(127,-214,o),
(170,-184,o),
(170,-117,cs),
(170,-105,o),
(168,-93,o),
(160,-73,c),
(147,-61,o),
(133,-55,o),
(119,-55,cs),
(94,-55,o),
(74,-72,o),
(74,-98,cs),
(74,-124,o),
(90,-145,o),
(117,-161,c),
(99,-190,o),
(80,-205,o),
(47,-227,c)
);
}
);
width = 279;
}
);
note = uni013C;
unicode = 316;
},
{
glyphname = ldot;
kernLeft = b;
layers = (
{
hints = (
{
horizontal = 1;
place = (658,32);
type = Stem;
},
{
horizontal = 1;
place = (308,126);
type = Stem;
},
{
horizontal = 1;
place = (-13,69);
type = Stem;
},
{
place = (259,129);
type = Stem;
},
{
place = (74,77);
type = Stem;
}
);
layerId = m01;
shapes = (
{
closed = 1;
nodes = (
(201,-13,o),
(251,50,o),
(294,109,c),
(271,128,l),
(231,82,o),
(197,56,o),
(176,56,cs),
(163,56,o),
(151,64,o),
(151,79,cs),
(151,89,o),
(154,110,o),
(160,137,cs),
(280,732,l),
(269,740,l),
(97,690,l),
(93,661,l),
(187,655,l),
(178,595,o),
(167,536,o),
(155,477,cs),
(83,112,ls),
(77,77,o),
(74,59,o),
(74,45,cs),
(74,6,o),
(99,-13,o),
(130,-13,cs)
);
},
{
closed = 1;
nodes = (
(357,308,o),
(388,337,o),
(388,377,cs),
(388,408,o),
(365,434,o),
(330,434,cs),
(292,434,o),
(259,405,o),
(259,365,cs),
(259,332,o),
(284,308,o),
(318,308,cs)
);
}
);
width = 291;
}
);
note = ldot;
unicode = 320;
},
{
glyphname = lslash;
kernLeft = b;
kernRight = d;
layers = (
{
hints = (
{
horizontal = 1;
place = (658,32);
type = Stem;
},
{
horizontal = 1;
place = (-13,69);
type = Stem;
},
{
place = (74,77);
type = Stem;
}
);
layerId = m01;
shapes = (
{
closed = 1;
nodes = (
(201,-13,o),
(251,50,o),
(294,109,c),
(271,128,l),
(231,82,o),
(197,56,o),
(176,56,cs),
(163,56,o),
(151,64,o),
(151,79,cs),
(151,89,o),
(154,110,o),
(160,137,cs),
(209,378,l),
(307,424,l),
(317,473,l),
(218,426,l),
(280,732,l),
(269,740,l),
(97,690,l),
(93,661,l),
(187,655,l),
(178,595,o),
(167,536,o),
(155,477,cs),
(139,394,l),
(45,351,l),
(35,302,l),
(129,346,l),
(83,112,ls),
(77,77,o),
(74,59,o),
(74,45,cs),
(74,6,o),
(99,-13,o),
(130,-13,cs)
);
}
);
width = 279;
}
);
note = lslash;
unicode = 322;
},
{
glyphname = nacute;
kernLeft = m;
kernRight = h;
layers = (
{
hints = (
{
horizontal = 1;
place = (420,67);
type = Stem;
},
{
horizontal = 1;
place = (404,32);
type = Stem;
},
{
horizontal = 1;
place = (-13,69);
type = Stem;
},
{
horizontal = 1;
place = (0,21);
target = up;
type = BottomGhost;
},
{
horizontal = 1;
place = (-8,21);
target = up;
type = BottomGhost;
},
{
place = (421,80);
type = Stem;
},
{
place = (346,81);
type = Stem;
}
);
layerId = m01;
shapes = (
{
closed = 1;
nodes = (
(153,0,l),
(166,71,o),
(178,140,o),
(193,210,cs),
(220,331,l),
(293,391,o),
(350,420,o),
(386,420,cs),
(408,420,o),
(421,409,o),
(421,374,cs),
(421,354,o),
(413,321,o),
(405,287,cs),
(362,111,ls),
(352,70,o),
(346,53,o),
(346,30,cs),
(346,4,o),
(365,-13,o),
(396,-13,cs),
(465,-13,o),
(530,50,o),
(569,109,c),
(545,128,l),
(509,83,o),
(471,56,o),
(446,56,cs),
(435,56,o),
(427,63,o),
(427,77,cs),
(427,87,o),
(433,107,o),
(440,135,cs),
(485,320,ls),
(493,353,o),
(501,386,o),
(501,418,cs),
(501,464,o),
(479,487,o),
(437,487,cs),
(376,487,o),
(294,437,o),
(228,374,c),
(249,477,l),
(236,487,l),
(66,436,l),
(62,407,l),
(161,401,l),
(76,0,l),
(86,-8,l)
);
},
{
closed = 1;
nodes = (
(357,534,l),
(397,582,o),
(436,628,o),
(476,676,cs),
(492,695,o),
(498,710,o),
(498,725,cs),
(498,748,o),
(480,760,o),
(459,760,cs),
(437,760,o),
(421,744,o),
(408,717,cs),
(384,661,o),
(359,605,o),
(334,549,c)
);
}
);
width = 563;
}
);
note = nacute;
unicode = 324;
},
{
glyphname = ncaron;
kernLeft = m;
kernRight = h;
layers = (
{
hints = (
{
horizontal = 1;
place = (420,67);
type = Stem;
},
{
horizontal = 1;
place = (404,32);
type = Stem;
},
{
horizontal = 1;
place = (-13,69);
type = Stem;
},
{
horizontal = 1;
place = (0,21);
target = up;
type = BottomGhost;
},
{
horizontal = 1;
place = (-8,21);
target = up;
type = BottomGhost;
},
{
place = (421,80);
type = Stem;
},
{
place = (346,81);
type = Stem;
}
);
layerId = m01;
shapes = (
{
closed = 1;
nodes = (
(153,0,l),
(166,71,o),
(178,140,o),
(193,210,cs),
(220,331,l),
(293,391,o),
(350,420,o),
(386,420,cs),
(408,420,o),
(421,409,o),
(421,374,cs),
(421,354,o),
(413,321,o),
(405,287,cs),
(362,111,ls),
(352,70,o),
(346,53,o),
(346,30,cs),
(346,4,o),
(365,-13,o),
(396,-13,cs),
(465,-13,o),
(530,50,o),
(569,109,c),
(545,128,l),
(509,83,o),
(471,56,o),
(446,56,cs),
(435,56,o),
(427,63,o),
(427,77,cs),
(427,87,o),
(433,107,o),
(440,135,cs),
(485,320,ls),
(493,353,o),
(501,386,o),
(501,418,cs),
(501,464,o),
(479,487,o),
(437,487,cs),
(376,487,o),
(294,437,o),
(228,374,c),
(249,477,l),
(236,487,l),
(66,436,l),
(62,407,l),
(161,401,l),
(76,0,l),
(86,-8,l)
);
},
{
closed = 1;
nodes = (
(278,751,l),
(251,732,l),
(348,554,l),
(380,554,l),
(538,732,l),
(518,751,l),
(374,634,l)
);
}
);
width = 563;
}
);
note = ncaron;
unicode = 328;
},
{
glyphname = ntilde;
kernLeft = m;
kernRight = h;
layers = (
{
hints = (
{
horizontal = 1;
place = (661,53);
type = Stem;
},
{
horizontal = 1;
place = (575,53);
type = Stem;
},
{
horizontal = 1;
place = (420,67);
type = Stem;
},
{
horizontal = 1;
place = (404,32);
type = Stem;
},
{
horizontal = 1;
place = (-13,69);
type = Stem;
},
{
horizontal = 1;
place = (0,21);
target = up;
type = BottomGhost;
},
{
horizontal = 1;
place = (-8,21);
target = up;
type = BottomGhost;
},
{
place = (421,80);
type = Stem;
},
{
place = (346,81);
type = Stem;
}
);
layerId = m01;
shapes = (
{
closed = 1;
nodes = (
(153,0,l),
(166,71,o),
(178,140,o),
(193,210,cs),
(220,331,l),
(293,391,o),
(350,420,o),
(386,420,cs),
(408,420,o),
(421,409,o),
(421,374,cs),
(421,354,o),
(413,321,o),
(405,287,cs),
(362,111,ls),
(352,70,o),
(346,53,o),
(346,30,cs),
(346,4,o),
(365,-13,o),
(396,-13,cs),
(465,-13,o),
(530,50,o),
(569,109,c),
(545,128,l),
(509,83,o),
(471,56,o),
(446,56,cs),
(435,56,o),
(427,63,o),
(427,77,cs),
(427,87,o),
(433,107,o),
(440,135,cs),
(485,320,ls),
(493,353,o),
(501,386,o),
(501,418,cs),
(501,464,o),
(479,487,o),
(437,487,cs),
(376,487,o),
(294,437,o),
(228,374,c),
(249,477,l),
(236,487,l),
(66,436,l),
(62,407,l),
(161,401,l),
(76,0,l),
(86,-8,l)
);
},
{
closed = 1;
nodes = (
(220,577,l),
(233,635,o),
(261,661,o),
(287,661,cs),
(319,661,o),
(339,636,o),
(359,613,cs),
(376,594,o),
(396,575,o),
(434,575,cs),
(485,575,o),
(525,617,o),
(542,703,c),
(517,712,l),
(504,654,o),
(476,628,o),
(450,628,cs),
(419,628,o),
(400,654,o),
(378,677,cs),
(361,695,o),
(342,714,o),
(304,714,cs),
(254,714,o),
(211,672,o),
(196,586,c)
);
}
);
width = 563;
}
);
note = ntilde;
unicode = 241;
},
{
glyphname = uni0146;
kernLeft = m;
kernRight = h;
layers = (
{
hints = (
{
horizontal = 1;
place = (420,67);
type = Stem;
},
{
horizontal = 1;
place = (404,32);
type = Stem;
},
{
horizontal = 1;
place = (-13,69);
type = Stem;
},
{
horizontal = 1;
place = (0,21);
target = up;
type = BottomGhost;
},
{
horizontal = 1;
place = (-8,21);
target = up;
type = BottomGhost;
},
{
place = (421,80);
type = Stem;
},
{
place = (346,81);
type = Stem;
},
{
place = (184,96);
type = Stem;
}
);
layerId = m01;
shapes = (
{
closed = 1;
nodes = (
(153,0,l),
(166,71,o),
(178,140,o),
(193,210,cs),
(220,331,l),
(293,391,o),
(350,420,o),
(386,420,cs),
(408,420,o),
(421,409,o),
(421,374,cs),
(421,354,o),
(413,321,o),
(405,287,cs),
(362,111,ls),
(352,70,o),
(346,53,o),
(346,30,cs),
(346,4,o),
(365,-13,o),
(396,-13,cs),
(465,-13,o),
(530,50,o),
(569,109,c),
(545,128,l),
(509,83,o),
(471,56,o),
(446,56,cs),
(435,56,o),
(427,63,o),
(427,77,cs),
(427,87,o),
(433,107,o),
(440,135,cs),
(485,320,ls),
(493,353,o),
(501,386,o),
(501,418,cs),
(501,464,o),
(479,487,o),
(437,487,cs),
(376,487,o),
(294,437,o),
(228,374,c),
(249,477,l),
(236,487,l),
(66,436,l),
(62,407,l),
(161,401,l),
(76,0,l),
(86,-8,l)
);
},
{
closed = 1;
nodes = (
(173,-240,l),
(237,-204,o),
(280,-174,o),
(280,-107,cs),
(280,-95,o),
(278,-83,o),
(270,-63,c),
(257,-51,o),
(243,-45,o),
(229,-45,cs),
(204,-45,o),
(184,-62,o),
(184,-88,cs),
(184,-114,o),
(200,-135,o),
(227,-151,c),
(209,-180,o),
(190,-195,o),
(157,-217,c)
);
}
);
width = 563;
}
);
note = uni0146;
unicode = 326;
},
{
glyphname = uni1E45;
kernLeft = m;
kernRight = h;
layers = (
{
hints = (
{
horizontal = 1;
place = (626,115);
type = Stem;
},
{
horizontal = 1;
place = (420,67);
type = Stem;
},
{
horizontal = 1;
place = (404,32);
type = Stem;
},
{
horizontal = 1;
place = (-13,69);
type = Stem;
},
{
horizontal = 1;
place = (0,21);
target = up;
type = BottomGhost;
},
{
horizontal = 1;
place = (-8,21);
target = up;
type = BottomGhost;
},
{
place = (421,80);
type = Stem;
},
{
place = (346,81);
type = Stem;
},
{
place = (322,107);
type = Stem;
}
);
layerId = m01;
shapes = (
{
closed = 1;
nodes = (
(153,0,l),
(166,71,o),
(178,140,o),
(193,210,cs),
(220,331,l),
(293,391,o),
(350,420,o),
(386,420,cs),
(408,420,o),
(421,409,o),
(421,374,cs),
(421,354,o),
(413,321,o),
(405,287,cs),
(362,111,ls),
(352,70,o),
(346,53,o),
(346,30,cs),
(346,4,o),
(365,-13,o),
(396,-13,cs),
(465,-13,o),
(530,50,o),
(569,109,c),
(545,128,l),
(509,83,o),
(471,56,o),
(446,56,cs),
(435,56,o),
(427,63,o),
(427,77,cs),
(427,87,o),
(433,107,o),
(440,135,cs),
(485,320,ls),
(493,353,o),
(501,386,o),
(501,418,cs),
(501,464,o),
(479,487,o),
(437,487,cs),
(376,487,o),
(294,437,o),
(228,374,c),
(249,477,l),
(236,487,l),
(66,436,l),
(62,407,l),
(161,401,l),
(76,0,l),
(86,-8,l)
);
},
{
closed = 1;
nodes = (
(403,626,o),
(429,655,o),
(429,688,cs),
(429,720,o),
(408,741,o),
(378,741,cs),
(349,741,o),
(322,713,o),
(322,680,cs),
(322,647,o),
(344,626,o),
(374,626,cs)
);
}
);
width = 563;
}
);
note = uni1E45;
unicode = 7749;
},
{
glyphname = ograve;
kernLeft = c;
kernRight = o;
layers = (
{
hints = (
{
horizontal = 1;
place = (447,40);
type = Stem;
},
{
horizontal = 1;
place = (-13,40);
type = Stem;
},
{
place = (396,81);
type = Stem;
},
{
place = (54,82);
type = Stem;
}
);
layerId = m01;
shapes = (
{
closed = 1;
nodes = (
(361,-13,o),
(477,138,o),
(477,312,cs),
(477,425,o),
(409,487,o),
(315,487,cs),
(173,487,o),
(54,343,o),
(54,163,cs),
(54,49,o),
(128,-13,o),
(221,-13,cs)
);
},
{
closed = 1;
nodes = (
(176,27,o),
(136,70,o),
(136,175,cs),
(136,324,o),
(209,447,o),
(304,447,cs),
(358,447,o),
(396,405,o),
(396,297,cs),
(396,163,o),
(330,27,o),
(232,27,cs)
);
},
{
closed = 1;
nodes = (
(350,549,l),
(325,605,o),
(301,661,o),
(276,717,cs),
(264,744,o),
(247,762,o),
(225,762,cs),
(205,762,o),
(187,748,o),
(187,727,cs),
(187,710,o),
(192,695,o),
(208,676,cs),
(248,628,o),
(287,582,o),
(327,534,c)
);
}
);
width = 488;
}
);
note = ograve;
unicode = 242;
},
{
glyphname = oacute;
kernLeft = c;
kernRight = o;
layers = (
{
hints = (
{
horizontal = 1;
place = (447,40);
type = Stem;
},
{
horizontal = 1;
place = (-13,40);
type = Stem;
},
{
place = (396,81);
type = Stem;
},
{
place = (54,82);
type = Stem;
}
);
layerId = m01;
shapes = (
{
closed = 1;
nodes = (
(361,-13,o),
(477,138,o),
(477,312,cs),
(477,425,o),
(409,487,o),
(315,487,cs),
(173,487,o),
(54,343,o),
(54,163,cs),
(54,49,o),
(128,-13,o),
(221,-13,cs)
);
},
{
closed = 1;
nodes = (
(176,27,o),
(136,70,o),
(136,175,cs),
(136,324,o),
(209,447,o),
(304,447,cs),
(358,447,o),
(396,405,o),
(396,297,cs),
(396,163,o),
(330,27,o),
(232,27,cs)
);
},
{
closed = 1;
nodes = (
(317,534,l),
(357,582,o),
(396,628,o),
(436,676,cs),
(452,695,o),
(458,710,o),
(458,725,cs),
(458,748,o),
(440,760,o),
(419,760,cs),
(397,760,o),
(381,744,o),
(368,717,cs),
(344,661,o),
(319,605,o),
(294,549,c)
);
}
);
width = 488;
}
);
note = oacute;
unicode = 243;
},
{
glyphname = ocircumflex;
kernLeft = c;
kernRight = o;
layers = (
{
hints = (
{
horizontal = 1;
place = (447,40);
type = Stem;
},
{
horizontal = 1;
place = (-13,40);
type = Stem;
},
{
place = (396,81);
type = Stem;
},
{
place = (54,82);
type = Stem;
}
);
layerId = m01;
shapes = (
{
closed = 1;
nodes = (
(176,27,o),
(136,70,o),
(136,175,cs),
(136,324,o),
(209,447,o),
(304,447,cs),
(358,447,o),
(396,405,o),
(396,297,cs),
(396,163,o),
(330,27,o),
(232,27,cs)
);
},
{
closed = 1;
nodes = (
(361,-13,o),
(477,138,o),
(477,312,cs),
(477,425,o),
(409,487,o),
(315,487,cs),
(173,487,o),
(54,343,o),
(54,163,cs),
(54,49,o),
(128,-13,o),
(221,-13,cs)
);
},
{
closed = 1;
nodes = (
(444,546,l),
(471,567,l),
(371,743,l),
(339,743,l),
(183,567,l),
(203,546,l),
(341,667,l)
);
}
);
width = 488;
}
);
note = ocircumflex;
unicode = 244;
},
{
glyphname = otilde;
kernLeft = c;
kernRight = o;
layers = (
{
hints = (
{
horizontal = 1;
place = (664,53);
type = Stem;
},
{
horizontal = 1;
place = (578,53);
type = Stem;
},
{
horizontal = 1;
place = (447,40);
type = Stem;
},
{
horizontal = 1;
place = (-13,40);
type = Stem;
},
{
place = (396,81);
type = Stem;
},
{
place = (54,82);
type = Stem;
}
);
layerId = m01;
shapes = (
{
closed = 1;
nodes = (
(361,-13,o),
(477,138,o),
(477,312,cs),
(477,425,o),
(409,487,o),
(315,487,cs),
(173,487,o),
(54,343,o),
(54,163,cs),
(54,49,o),
(128,-13,o),
(221,-13,cs)
);
},
{
closed = 1;
nodes = (
(176,27,o),
(136,70,o),
(136,175,cs),
(136,324,o),
(209,447,o),
(304,447,cs),
(358,447,o),
(396,405,o),
(396,297,cs),
(396,163,o),
(330,27,o),
(232,27,cs)
);
},
{
closed = 1;
nodes = (
(185,580,l),
(198,638,o),
(226,664,o),
(252,664,cs),
(284,664,o),
(304,639,o),
(324,616,cs),
(341,597,o),
(361,578,o),
(399,578,cs),
(450,578,o),
(490,620,o),
(507,706,c),
(482,715,l),
(469,657,o),
(441,631,o),
(415,631,cs),
(384,631,o),
(365,657,o),
(343,680,cs),
(326,698,o),
(307,717,o),
(269,717,cs),
(219,717,o),
(176,675,o),
(161,589,c)
);
}
);
width = 488;
}
);
note = otilde;
unicode = 245;
},
